<?xml version="1.0" encoding="UTF-8"?>
<svg xmlns="http://www.w3.org/2000/svg" xmlns:xlink="http://www.w3.org/1999/xlink"
     width="800" height="800.0" viewBox="-1.05 -1.05 2.1 2.1">
<defs>
</defs>
<circle cx="0" cy="0" r="1" fill="none" stroke-width="0.006" stroke="black" />
<circle cx="0" cy="0" r="0.0175" fill="black" />
<circle cx="0.3332809985261642" cy="-0.0" r="0.015556166080374552" fill="black" />
<path d="M0.3332925708861455,-0.005555677155484773 A80.00416662326454,80.00416662326454,0,0,0,4.898842328681621e-15,-0.006249918621065831 L0.0,0.006249918621065831 A80.00416662326454,80.00416662326454,0,0,0,0.3332925708861455,0.005555677155484773 A1.3335950443505682,1.3335950443505682,0,0,1,0.33329257088566955,-0.005555677155486805 Z" fill="black" />
<circle cx="0.3332809985261642" cy="-0.0" r="0.015556166080374552" fill="black" />
<circle cx="0.3657640065038875" cy="0.2926572160639383" r="0.013659947795058767" fill="black" />
<path d="M0.37051739094171676,0.2915998391231219 A1.3563094203433947,1.3563094203433947,0,0,1,0.3388251514127696,4.6096209294883915e-07 A16006.268128919313,16006.268128919313,0,0,1,0.3277136974223771,-4.6482091420330107e-07 A1.311830534144077,1.311830534144077,0,0,0,0.36099810360967743,0.29374026912754575 A1.0670348659770317,1.0670348659770317,0,0,1,0.3705173909417164,0.2915998391231214 Z" fill="black" />
<circle cx="0.5999414926672879" cy="-0.0" r="0.011201228594082563" fill="black" />
<path d="M0.5999564922492903,-0.004000330453152401 A80.00416662326454,80.00416662326454,0,0,0,0.3332925708861455,-0.005555677155484773 A1.3335950443505682,1.3335950443505682,0,0,0,0.33329257088566955,0.005555677155486805 A80.00416662326454,80.00416662326454,0,0,0,0.5999564922492903,0.004000330453152401 A0.5334438551086456,0.5334438551086456,0,0,1,0.5999564922483765,-0.004000330453159087 Z" fill="black" />
<circle cx="0.3657640065038875" cy="-0.2926572160639383" r="0.013659947795058767" fill="black" />
<path d="M0.36099810360967766,-0.2937402691275469 A1.311830534144077,1.311830534144077,0,0,0,0.32771370072002837,4.6482063441568764e-07 A16006.268128791344,16006.268128791344,0,0,1,0.3388251384729235,-4.6096101868897676e-07 A1.3563094203433947,1.3563094203433947,0,0,1,0.37051739094171676,-0.2915998391231219 A1.0670348659770323,1.0670348659770323,0,0,1,0.3609981036096775,-0.2937402691275466 Z" fill="black" />
<circle cx="0.3657640065038875" cy="0.2926572160639383" r="0.013659947795058767" fill="black" />
<circle cx="0.09796325132365669" cy="0.3920544976297485" r="0.014642188264871715" fill="black" />
<path d="M0.10041387327170992,0.39665953200405635 A1.0815601954667626,1.0815601954667626,0,0,1,0.3668403189027984,0.29740407730033014 A1.333564599347784,1.333564599347784,0,0,1,0.36470021397603336,0.28788467927502875 A1.0530872471943933,1.0530872471943933,0,0,0,0.09549492663831133,0.38742985832398125 A4.27149174157554,4.27149174157554,0,0,1,0.10041387327170881,0.3966595320040551 Z" fill="black" />
<circle cx="0.43577662047451476" cy="0.5128195703455373" r="0.009574509443072513" fill="black" />
<path d="M0.43893439867920137,0.5115192695833075 A1.356309429005278,1.356309429005278,0,0,1,0.3705173909364674,0.2915998390992688 A1.0670348616871972,1.0670348616871972,0,0,0,0.360998103615184,0.29374026915152496 A1.3118305422471588,1.3118305422471588,0,0,0,0.4326212810544774,0.5141485312494386 A0.4268046739283855,0.4268046739283855,0,0,1,0.43893439867920125,0.511519269583307 Z" fill="black" />
<circle cx="0.5999209712221608" cy="0.2666318199504035" r="0.009957540265361412" fill="black" />
<path d="M0.5999341645840823,0.2630697146651617 A1.0529352096326081,1.0529352096326081,0,0,0,0.364699338804816,0.28788487275044394 A1.3338694988621393,1.3338694988621393,0,0,0,0.3668411846817565,0.2974038792471051 A1.081399825926158,1.081399825926158,0,0,1,0.5999344442543768,0.2701820705819984 A0.4742419700252823,0.4742419700252823,0,0,1,0.599934164584083,0.26306971466516166 Z" fill="black" />
<circle cx="0.5999414926672879" cy="-0.0" r="0.011201228594082563" fill="black" />
<circle cx="0.6409281829922902" cy="0.20513681229993133" r="0.009574774168498425" fill="black" />
<path d="M0.6440784131813763,0.20383509489075075 A0.537066817674589,0.537066817674589,0,0,1,0.6039269355592616,5.955041039678146e-07 A3556.762339690758,3556.762339690758,0,0,1,0.5959260504465858,-6.045038389856927e-07 A0.5299517014048328,0.5299517014048328,0,0,0,0.6377648770399005,0.20646415045226324 A0.6278036196530329,0.6278036196530329,0,0,1,0.6440784131813764,0.2038350948907509 Z" fill="black" />
<circle cx="0.7777364095938333" cy="-0.0" r="0.006914706350861633" fill="black" />
<path d="M0.7777484130549835,-0.002469447481232123 A80.00416662326454,80.00416662326454,0,0,0,0.5999564922492903,-0.004000330453152401 A0.5334438551086456,0.5334438551086456,0,0,0,0.5999564922483765,0.004000330453159087 A80.00416662326454,80.00416662326454,0,0,0,0.7777484130549835,0.002469447481232123 A0.25402313194932247,0.25402313194932247,0,0,1,0.7777484130576493,-0.0024694474812063244 Z" fill="black" />
<circle cx="0.6409281829922902" cy="-0.20513681229993133" r="0.009574774168498425" fill="black" />
<path d="M0.6377648770399005,-0.20646415045226324 A0.5299517014048328,0.5299517014048328,0,0,0,0.5959260497709348,6.045039404871958e-07 A3556.762339706555,3556.762339706555,0,0,1,0.6039269374724175,-5.955043889116496e-07 A0.537066817674589,0.537066817674589,0,0,1,0.6440784131813763,-0.20383509489075075 A0.6278036196530332,0.6278036196530332,0,0,1,0.6377648770399005,-0.20646415045226318 Z" fill="black" />
<circle cx="0.3657640065038875" cy="-0.2926572160639383" r="0.013659947795058767" fill="black" />
<circle cx="0.5999209712221608" cy="-0.2666318199504035" r="0.009957540265361412" fill="black" />
<path d="M0.5999344442543768,-0.2701820705819984 A1.081399825926158,1.081399825926158,0,0,1,0.36684118468175697,-0.29740387924710543 A1.3338694988621393,1.3338694988621393,0,0,0,0.36469933880481564,-0.2878848727504435 A1.0529352096326081,1.0529352096326081,0,0,0,0.599934164584083,-0.2630697146651617 A0.4742419700252823,0.4742419700252823,0,0,1,0.599934444254377,-0.2701820705819987 Z" fill="black" />
<circle cx="0.43577662047451476" cy="-0.5128195703455373" r="0.009574509443072513" fill="black" />
<path d="M0.43262128105447695,-0.5141485312494382 A1.3118305422471588,1.3118305422471588,0,0,0,0.36099810361518414,-0.29374026915152496 A1.0670348616871972,1.0670348616871972,0,0,0,0.3705173909364674,-0.2915998390992689 A1.356309429005278,1.356309429005278,0,0,1,0.43893439867920114,-0.511519269583307 A0.42680467392838567,0.42680467392838567,0,0,1,0.432621281054477,-0.5141485312494385 Z" fill="black" />
<circle cx="0.09796325132365669" cy="-0.3920544976297485" r="0.014642188264871715" fill="black" />
<path d="M0.09549492663831133,-0.38742985832398125 A1.0530872471943933,1.0530872471943933,0,0,0,0.36470021397603286,-0.2878846792750287 A1.333564599347785,1.333564599347785,0,0,1,0.36684031890279845,-0.29740407730033075 A1.0815601954667626,1.0815601954667626,0,0,1,0.10041387327170992,-0.39665953200405635 A4.27149174157554,4.27149174157554,0,0,1,0.09549492663831138,-0.38742985832398125 Z" fill="black" />
<circle cx="2.040757540308503e-17" cy="-0.3332809985261642" r="0.015556166080374552" fill="black" />
<path d="M-0.005555677155484773,-0.3332925708860745 A80.00416662326454,80.00416662326454,0,0,0,-0.006249918621065831,-4.8992250258233324e-15 L0.006249918621065831,3.826971417105449e-19 A80.00416662326454,80.00416662326454,0,0,0,0.005555677155484773,-0.33329257088611736 A1.3335950443505682,1.3335950443505682,0,0,1,-0.005555677155486753,-0.33329257088566955 Z" fill="black" />
<circle cx="2.040757540308503e-17" cy="-0.3332809985261642" r="0.015556166080374552" fill="black" />
<circle cx="0.29265721606393846" cy="-0.3657640065038864" r="0.01365994779505878" fill="black" />
<path d="M0.29159983912312165,-0.3705173909417152 A1.3563094203433956,1.3563094203433956,0,0,1,4.609621665568832e-07,-0.33882515141276937 A16006.268128108819,16006.268128108819,0,0,1,-4.6482091420330107e-07,-0.32771369748998835 A1.3118305341440777,1.3118305341440777,0,0,0,0.2937402691275464,-0.36099810360967655 A1.0670348659770363,1.0670348659770363,0,0,1,0.2915998391231216,-0.3705173909417154 Z" fill="black" />
<circle cx="3.673582143353385e-17" cy="-0.5999414926672879" r="0.011201228594082563" fill="black" />
<path d="M-0.004000330453152401,-0.5999564922493258 A80.00416662326454,80.00416662326454,0,0,0,-0.005555677155484773,-0.3332925708860745 A1.3335950443505682,1.3335950443505682,0,0,0,0.005555677155486825,-0.33329257088566955 A80.00416662326454,80.00416662326454,0,0,0,0.004000330453152401,-0.5999564922492957 A0.5334438551086456,0.5334438551086456,0,0,1,-0.004000330453159275,-0.5999564922483765 Z" fill="black" />
<circle cx="-0.2926572160639383" cy="-0.36576400650388724" r="0.013659947795058771" fill="black" />
<path d="M-0.29374026912754597,-0.3609981036096772 A1.3118305341440772,1.3118305341440772,0,0,0,4.648206336936361e-07,-0.32771370072002837 A16006.268128791342,16006.268128791342,0,0,1,-4.6096101868897676e-07,-0.3388251384699834 A1.3563094203433956,1.3563094203433956,0,0,1,-0.29159983912312165,-0.3705173909417159 A1.067034865977034,1.067034865977034,0,0,1,-0.29374026912754614,-0.3609981036096772 Z" fill="black" />
<circle cx="0.29265721606393846" cy="-0.3657640065038864" r="0.01365994779505878" fill="black" />
<circle cx="0.3920544976297494" cy="-0.09796325132365574" r="0.014642188264871705" fill="black" />
<path d="M0.3966595320040579,-0.10041387327170848 A1.0815601954667622,1.0815601954667622,0,0,1,0.2974040773003306,-0.3668403189027982 A1.333564599347794,1.333564599347794,0,0,1,0.2878846792750287,-0.36470021397603225 A1.0530872471943922,1.0530872471943922,0,0,0,0.38742985832398236,-0.09549492663831022 A4.27149174157543,4.27149174157543,0,0,1,0.39665953200405557,-0.10041387327170792 Z" fill="black" />
<circle cx="0.5128195703455383" cy="-0.43577662047451243" r="0.009574509443072528" fill="black" />
<path d="M0.5115192695833075,-0.4389343986791985 A1.3563094290052726,1.3563094290052726,0,0,1,0.29159983909926895,-0.3705173909364663 A1.0670348616872067,1.0670348616872067,0,0,0,0.2937402691515245,-0.36099810361518353 A1.311830542247154,1.311830542247154,0,0,0,0.514148531249438,-0.4326212810544747 A0.4268046739283875,0.4268046739283875,0,0,1,0.5115192695833077,-0.4389343986791987 Z" fill="black" />
<circle cx="0.2666318199504041" cy="-0.5999209712221599" r="0.009957540265361428" fill="black" />
<path d="M0.2630697146651624,-0.5999341645840822 A1.052935209632611,1.052935209632611,0,0,0,0.28788487275044417,-0.36469933880481464 A1.3338694988621436,1.3338694988621436,0,0,0,0.2974038792471057,-0.3668411846817552 A1.0813998259261606,1.0813998259261606,0,0,1,0.2701820705819993,-0.5999344442543766 A0.47424197002528284,0.47424197002528284,0,0,1,0.26306971466516244,-0.5999341645840821 Z" fill="black" />
<circle cx="3.673582143353385e-17" cy="-0.5999414926672879" r="0.011201228594082563" fill="black" />
<circle cx="0.20513681229993133" cy="-0.64092818299229" r="0.009574774168498425" fill="black" />
<path d="M0.20383509489075102,-0.6440784131813762 A0.5370668176745889,0.5370668176745889,0,0,1,5.955041032020426e-07,-0.6039269355592615 A3556.762339664429,3556.762339664429,0,0,1,-6.045038389856927e-07,-0.5959260504506128 A0.529951701404833,0.529951701404833,0,0,0,0.2064641504522632,-0.6377648770399004 A0.6278036196530336,0.6278036196530336,0,0,1,0.2038350948907509,-0.6440784131813762 Z" fill="black" />
<circle cx="4.7622620229472144e-17" cy="-0.7777364095938333" r="0.006914706350861633" fill="black" />
<path d="M-0.002469447481232123,-0.7777484130549659 A80.00416662326454,80.00416662326454,0,0,0,-0.004000330453152401,-0.5999564922493258 A0.5334438551086456,0.5334438551086456,0,0,0,0.004000330453159242,-0.5999564922483765 A80.00416662326454,80.00416662326454,0,0,0,0.002469447481232123,-0.7777484130549974 A0.25402313194932247,0.25402313194932247,0,0,1,-0.002469447481206384,-0.7777484130576493 Z" fill="black" />
<circle cx="-0.2051368122999309" cy="-0.6409281829922909" r="0.009574774168498409" fill="black" />
<path d="M-0.20646415045226282,-0.6377648770399014 A0.5299517014048329,0.5299517014048329,0,0,0,6.045039391668679e-07,-0.5959260497709349 A3556.762339777643,3556.762339777643,0,0,1,-5.955043889116496e-07,-0.6039269374627615 A0.5370668176745891,0.5370668176745891,0,0,1,-0.2038350948907504,-0.644078413181377 A0.627803619653029,0.627803619653029,0,0,1,-0.20646415045226274,-0.6377648770399014 Z" fill="black" />
<circle cx="-0.2926572160639383" cy="-0.36576400650388724" r="0.013659947795058771" fill="black" />
<circle cx="-0.2666318199504031" cy="-0.5999209712221606" r="0.00995754026536142" fill="black" />
<path d="M-0.2701820705819977,-0.599934444254377 A1.081399825926157,1.081399825926157,0,0,1,-0.297403879247105,-0.3668411846817563 A1.3338694988621445,1.3338694988621445,0,0,0,-0.28788487275044355,-0.3646993388048152 A1.0529352096326072,1.0529352096326072,0,0,0,-0.26306971466516105,-0.5999341645840829 A0.47424197002528284,0.47424197002528284,0,0,1,-0.2701820705819977,-0.599934444254377 Z" fill="black" />
<circle cx="-0.5128195703455372" cy="-0.4357766204745148" r="0.009574509443072513" fill="black" />
<path d="M-0.5141485312494383,-0.4326212810544776 A1.3118305422471632,1.3118305422471632,0,0,0,-0.29374026915152507,-0.36099810361518414 A1.0670348616871963,1.0670348616871963,0,0,0,-0.2915998390992691,-0.370517390936467 A1.3563094290052826,1.3563094290052826,0,0,1,-0.5115192695833068,-0.43893439867920114 A0.4268046739283856,0.4268046739283856,0,0,1,-0.5141485312494379,-0.43262128105447734 Z" fill="black" />
<circle cx="-0.392054497629753" cy="-0.09796325132365892" r="0.014642188264871644" fill="black" />
<path d="M-0.3874298583239856,-0.0954949266383135 A1.0530872471943802,1.0530872471943802,0,0,0,-0.2878846792750285,-0.364700213976033 A1.333564599347814,1.333564599347814,0,0,1,-0.29740407730033047,-0.36684031890279845 A1.0815601954667489,1.0815601954667489,0,0,1,-0.3966595320040609,-0.10041387327171192 A4.271491741575202,4.271491741575202,0,0,1,-0.3874298583239857,-0.0954949266383136 Z" fill="black" />
<circle cx="-0.3332809985261642" cy="-4.081515080617006e-17" r="0.015556166080374552" fill="black" />
<path d="M-0.33329257088612596,0.005555677155484773 A80.00416662326454,80.00416662326454,0,0,0,-2.083322554867686e-14,0.006249918621065831 L-9.796919263079821e-15,-0.006249918621065831 A80.00416662326454,80.00416662326454,0,0,0,-0.33329257088611,-0.005555677155484773 A1.3335950443505682,1.3335950443505682,0,0,1,-0.33329257088566955,0.005555677155486674 Z" fill="black" />
<circle cx="-0.3332809985261642" cy="-4.081515080617006e-17" r="0.015556166080374552" fill="black" />
<circle cx="-0.3657640065038874" cy="-0.29265721606393835" r="0.013659947795058767" fill="black" />
<path d="M-0.3705173909417163,-0.2915998391231218 A1.3563094203433954,1.3563094203433954,0,0,1,-0.33882515141276937,-4.6096217104965435e-07 A16006.268128748681,16006.268128748681,0,0,1,-0.32771369743824663,4.6482091420330107e-07 A1.3118305341440775,1.3118305341440775,0,0,0,-0.36099810360967743,-0.2937402691275467 A1.067034865977032,1.067034865977032,0,0,1,-0.3705173909417162,-0.2915998391231216 Z" fill="black" />
<circle cx="-0.5999414926672879" cy="-7.34716428670677e-17" r="0.011201228594082563" fill="black" />
<path d="M-0.5999564922492707,0.004000330453152401 A80.00416662326454,80.00416662326454,0,0,0,-0.33329257088612596,0.005555677155484773 A1.3335950443505682,1.3335950443505682,0,0,0,-0.33329257088566955,-0.005555677155486681 A80.00416662326454,80.00416662326454,0,0,0,-0.5999564922492725,-0.004000330453152401 A0.5334438551086456,0.5334438551086456,0,0,1,-0.5999564922483765,0.004000330453159239 Z" fill="black" />
<circle cx="-0.36576400650388663" cy="0.2926572160639384" r="0.013659947795058778" fill="black" />
<path d="M-0.36099810360967677,0.29374026912754647 A1.3118305341440775,1.3118305341440775,0,0,0,-0.32771370072002837,-4.6482064351520674e-07 A16006.268128194133,16006.268128194133,0,0,1,-0.33882515949329073,4.609628376783803e-07 A1.3563094203433952,1.3563094203433952,0,0,1,-0.37051739094171543,0.2915998391231213 A1.0670348659770363,1.0670348659770363,0,0,1,-0.3609981036096768,0.29374026912754636 Z" fill="black" />
<circle cx="-0.3657640065038874" cy="-0.29265721606393835" r="0.013659947795058767" fill="black" />
<circle cx="-0.09796325132365744" cy="-0.39205449762975025" r="0.014642188264871688" fill="black" />
<path d="M-0.10041387327171003,-0.3966595320040588 A1.081560195466758,1.081560195466758,0,0,1,-0.3668403189027981,-0.2974040773003306 A1.3335645993477963,1.3335645993477963,0,0,1,-0.36470021397603314,-0.2878846792750289 A1.0530872471943888,1.0530872471943888,0,0,0,-0.09549492663831205,-0.387429858323983 A4.2714917415754075,4.2714917415754075,0,0,1,-0.1004138732717097,-0.39665953200405824 Z" fill="black" />
<circle cx="-0.4357766204745146" cy="-0.5128195703455374" r="0.009574509443072513" fill="black" />
<path d="M-0.4389343986792009,-0.5115192695833067 A1.356309429005278,1.356309429005278,0,0,1,-0.3705173909364674,-0.29159983909926906 A1.0670348616871979,1.0670348616871979,0,0,0,-0.3609981036151844,-0.29374026915152474 A1.3118305422471588,1.3118305422471588,0,0,0,-0.43262128105447717,-0.5141485312494384 A0.4268046739283859,0.4268046739283859,0,0,1,-0.4389343986792009,-0.5115192695833068 Z" fill="black" />
<circle cx="-0.5999209712221606" cy="-0.2666318199504028" r="0.009957540265361423" fill="black" />
<path d="M-0.5999341645840832,-0.26306971466516105 A1.0529352096326052,1.0529352096326052,0,0,0,-0.3646993388048155,-0.28788487275044394 A1.3338694988621451,1.3338694988621451,0,0,0,-0.3668411846817565,-0.2974038792471057 A1.0813998259261548,1.0813998259261548,0,0,1,-0.599934444254377,-0.27018207058199817 A0.4742419700252832,0.4742419700252832,0,0,1,-0.599934164584083,-0.26306971466516105 Z" fill="black" />
<circle cx="-0.5999414926672879" cy="-7.34716428670677e-17" r="0.011201228594082563" fill="black" />
<circle cx="-0.64092818299229" cy="-0.20513681229993141" r="0.009574774168498425" fill="black" />
<path d="M-0.6440784131813762,-0.20383509489075108 A0.5370668176745891,0.5370668176745891,0,0,1,-0.6039269355592615,-5.9550410307534e-07 A3556.762339661796,3556.762339661796,0,0,1,-0.5959260504513163,6.045038389856927e-07 A0.5299517014048332,0.5299517014048332,0,0,0,-0.6377648770399003,-0.20646415045226335 A0.6278036196530331,0.6278036196530331,0,0,1,-0.644078413181376,-0.20383509489075113 Z" fill="black" />
<circle cx="-0.7777364095938333" cy="-9.524524045894429e-17" r="0.006914706350861633" fill="black" />
<path d="M-0.7777484130549996,0.002469447481232123 A80.00416662326454,80.00416662326454,0,0,0,-0.5999564922492707,0.004000330453152401 A0.5334438551086456,0.5334438551086456,0,0,0,-0.5999564922483765,-0.004000330453159252 A80.00416662326454,80.00416662326454,0,0,0,-0.7777484130549837,-0.002469447481232123 A0.25402313194932247,0.25402313194932247,0,0,1,-0.7777484130576493,0.002469447481206364 Z" fill="black" />
<circle cx="-0.64092818299229" cy="0.20513681229993128" r="0.009574774168498426" fill="black" />
<path d="M-0.6377648770399003,0.20646415045226335 A0.5299517014048332,0.5299517014048332,0,0,0,-0.5959260497709347,-6.045039416181e-07 A3556.7623396644294,3556.7623396644294,0,0,1,-0.6039269374782527,5.955043889116496e-07 A0.5370668176745891,0.5370668176745891,0,0,1,-0.6440784131813762,0.20383509489075108 A0.6278036196530336,0.6278036196530336,0,0,1,-0.6377648770399,0.2064641504522634 Z" fill="black" />
<circle cx="-0.36576400650388663" cy="0.2926572160639384" r="0.013659947795058778" fill="black" />
<circle cx="-0.59992097122216" cy="0.26663181995040425" r="0.00995754026536142" fill="black" />
<path d="M-0.5999344442543768,0.2701820705819993 A1.0813998259261624,1.0813998259261624,0,0,1,-0.36684118468175597,0.29740387924710565 A1.3338694988621402,1.3338694988621402,0,0,0,-0.36469933880481475,0.2878848727504437 A1.0529352096326121,1.0529352096326121,0,0,0,-0.599934164584083,0.2630697146651626 A0.47424197002528207,0.47424197002528207,0,0,1,-0.5999344442543766,0.2701820705819993 Z" fill="black" />
<circle cx="-0.4357766204745114" cy="0.5128195703455387" r="0.00957450944307254" fill="black" />
<path d="M-0.43262128105447384,0.5141485312494394 A1.3118305422471424,1.3118305422471424,0,0,0,-0.3609981036151835,0.29374026915152446 A1.0670348616872103,1.0670348616872103,0,0,0,-0.3705173909364664,0.2915998390992691 A1.3563094290052602,1.3563094290052602,0,0,1,-0.4389343986791976,0.5115192695833081 A0.42680467392838806,0.42680467392838806,0,0,1,-0.43262128105447384,0.5141485312494396 Z" fill="black" />
<circle cx="-0.09796325132365659" cy="0.39205449762975025" r="0.014642188264871691" fill="black" />
<path d="M-0.09549492663831155,0.38742985832398236 A1.0530872471943897,1.0530872471943897,0,0,0,-0.36470021397603203,0.28788467927502825 A1.3335645993478018,1.3335645993478018,0,0,1,-0.3668403189027971,0.2974040773003301 A1.0815601954667593,1.0815601954667593,0,0,1,-0.10041387327170959,0.39665953200405824 A4.27149174157538,4.27149174157538,0,0,1,-0.09549492663831138,0.38742985832398213 Z" fill="black" />
<circle cx="-6.122272620925524e-17" cy="0.3332809985261642" r="0.015556166080374552" fill="black" />
<path d="M0.005555677155484773,0.3332925708861176 A80.00416662326452,80.00416662326452,0,0,0,0.006249918621065831,-8.88193560189577e-15 L-0.006249918621065831,-1.8680242625686623e-14 A80.00416662326454,80.00416662326454,0,0,0,-0.005555677155484773,0.3332925708860834 A1.3335950443505682,1.3335950443505682,0,0,1,0.005555677155486712,0.33329257088566955 Z" fill="black" />
<circle cx="-6.122272620925524e-17" cy="0.3332809985261642" r="0.015556166080374552" fill="black" />
<circle cx="-0.2926572160639384" cy="0.3657640065038872" r="0.013659947795058771" fill="black" />
<path d="M-0.291599839123122,0.3705173909417161 A1.3563094203433956,1.3563094203433956,0,0,1,-4.6096209041991047e-07,0.33882515141276937 A16006.268128535397,16006.268128535397,0,0,1,4.648190952138975e-07,0.32771371912804614 A1.3118305341440775,1.3118305341440775,0,0,0,-0.2937402691275463,0.3609981036096772 A1.0670348659770323,1.0670348659770323,0,0,1,-0.2915998391231214,0.370517390941716 Z" fill="black" />
<circle cx="-1.1020746430060199e-16" cy="0.5999414926672879" r="0.011201228594082563" fill="black" />
<path d="M0.004000330453152401,0.5999564922492957 A80.00416662326452,80.00416662326452,0,0,0,0.005555677155484773,0.3332925708861176 A1.3335950443505682,1.3335950443505682,0,0,0,-0.005555677155486273,0.33329257088566955 A80.00416662326454,80.00416662326454,0,0,0,-0.004000330453152401,0.5999564922493347 A0.5334438551086456,0.5334438551086456,0,0,1,0.00400033045315932,0.5999564922483765 Z" fill="black" />
<circle cx="0.29265721606393835" cy="0.3657640065038867" r="0.013659947795058778" fill="black" />
<path d="M0.29374026912754553,0.36099810360967655 A1.3118305341440777,1.3118305341440777,0,0,0,-4.648206432815883e-07,0.32771370072002837 A16006.268128194137,16006.268128194137,0,0,1,4.609628376783803e-07,0.3388251594951892 A1.3563094203433956,1.3563094203433956,0,0,1,0.2915998391231211,0.37051739094171543 A1.0670348659770372,1.0670348659770372,0,0,1,0.2937402691275459,0.36099810360967655 Z" fill="black" />
<circle cx="-0.2926572160639384" cy="0.3657640065038872" r="0.013659947795058771" fill="black" />
<circle cx="-0.39205449762975053" cy="0.09796325132365741" r="0.014642188264871684" fill="black" />
<path d="M-0.3966595320040587,0.10041387327171003 A1.0815601954667575,1.0815601954667575,0,0,1,-0.29740407730033036,0.36684031890279767 A1.3335645993477983,1.3335645993477983,0,0,1,-0.2878846792750282,0.3647002139760325 A1.0530872471943886,1.0530872471943886,0,0,0,-0.38742985832398347,0.0954949266383115 A4.271491741575385,4.271491741575385,0,0,1,-0.3966595320040591,0.10041387327171014 Z" fill="black" />
<circle cx="-0.5128195703455373" cy="0.43577662047451465" r="0.009574509443072513" fill="black" />
<path d="M-0.5115192695833066,0.43893439867920114 A1.356309429005282,1.356309429005282,0,0,1,-0.291599839099269,0.3705173909364672 A1.0670348616871967,1.0670348616871967,0,0,0,-0.29374026915152496,0.36099810361518414 A1.311830542247163,1.311830542247163,0,0,0,-0.5141485312494377,0.43262128105447717 A0.4268046739283849,0.4268046739283849,0,0,1,-0.5115192695833071,0.43893439867920125 Z" fill="black" />
<circle cx="-0.2666318199504041" cy="0.5999209712221606" r="0.009957540265361412" fill="black" />
<path d="M-0.2630697146651624,0.5999341645840827 A1.0529352096326101,1.0529352096326101,0,0,0,-0.28788487275044417,0.3646993388048153 A1.333869498862137,1.333869498862137,0,0,0,-0.2974038792471055,0.3668411846817563 A1.0813998259261597,1.0813998259261597,0,0,1,-0.27018207058199906,0.5999344442543767 A0.4742419700252815,0.4742419700252815,0,0,1,-0.2630697146651623,0.5999341645840828 Z" fill="black" />
<circle cx="-1.1020746430060199e-16" cy="0.5999414926672879" r="0.011201228594082563" fill="black" />
<circle cx="-0.20513681229993108" cy="0.6409281829922908" r="0.009574774168498409" fill="black" />
<path d="M-0.2038350948907507,0.6440784131813769 A0.537066817674589,0.537066817674589,0,0,1,-5.955041057249268e-07,0.6039269355592616 A3556.7623397829093,3556.7623397829093,0,0,1,6.045042937330436e-07,0.5959260451319289 A0.529951701404833,0.529951701404833,0,0,0,-0.20646415045226285,0.6377648770399009 A0.6278036196530299,0.6278036196530299,0,0,1,-0.2038350948907507,0.644078413181377 Z" fill="black" />
<circle cx="-1.42867860688416e-16" cy="0.7777364095938333" r="0.006914706350861633" fill="black" />
<path d="M0.002469447481232123,0.7777484130549979 A80.00416662326452,80.00416662326452,0,0,0,0.004000330453152401,0.5999564922492957 A0.5334438551086456,0.5334438551086456,0,0,0,-0.0040003304531593155,0.5999564922483765 A80.00416662326454,80.00416662326454,0,0,0,-0.002469447481232123,0.7777484130549748 A0.25402313194932247,0.25402313194932247,0,0,1,0.0024694474812063452,0.7777484130576493 Z" fill="black" />
<circle cx="0.20513681229993122" cy="0.6409281829922902" r="0.009574774168498425" fill="black" />
<path d="M0.20646415045226305,0.6377648770399005 A0.529951701404833,0.529951701404833,0,0,0,-6.045039414791594e-07,0.5959260497709348 A3556.762339674961,3556.762339674961,0,0,1,5.955043889116496e-07,0.603926937477036 A0.537066817674589,0.537066817674589,0,0,1,0.20383509489075066,0.6440784131813764 A0.6278036196530334,0.6278036196530334,0,0,1,0.20646415045226318,0.6377648770399003 Z" fill="black" />
<circle cx="0.29265721606393835" cy="0.3657640065038867" r="0.013659947795058778" fill="black" />
<circle cx="0.26663181995040636" cy="0.5999209712221603" r="0.009957540265361397" fill="black" />
<path d="M0.2701820705820015,0.5999344442543771 A1.0813998259261706,1.0813998259261706,0,0,1,0.29740387924710565,0.3668411846817554 A1.3338694988621191,1.3338694988621191,0,0,0,0.287884872750443,0.364699338804815 A1.0529352096326203,1.0529352096326203,0,0,0,0.2630697146651644,0.5999341645840818 A0.47424197002527974,0.47424197002527974,0,0,1,0.2701820705820015,0.5999344442543766 Z" fill="black" />
<circle cx="0.5128195703455386" cy="0.4357766204745116" r="0.009574509443072535" fill="black" />
<path d="M0.5141485312494393,0.4326212810544745 A1.311830542247143,1.311830542247143,0,0,0,0.2937402691515242,0.3609981036151837 A1.06703486168721,1.06703486168721,0,0,0,0.2915998390992689,0.3705173909364671 A1.3563094290052604,1.3563094290052604,0,0,1,0.5115192695833081,0.4389343986791985 A0.426804673928388,0.426804673928388,0,0,1,0.5141485312494392,0.43262128105447417 Z" fill="black" />
<circle cx="0.39205449762975025" cy="0.0979632513236567" r="0.014642188264871691" fill="black" />
<path d="M0.387429858323983,0.0954949266383116 A1.0530872471943904,1.0530872471943904,0,0,0,0.2878846792750287,0.3647002139760327 A1.3335645993477991,1.3335645993477991,0,0,1,0.29740407730033014,0.3668403189027978 A1.0815601954667595,1.0815601954667595,0,0,1,0.3966595320040588,0.10041387327170914 A4.271491741575383,4.271491741575383,0,0,1,0.3874298583239826,0.09549492663831138 Z" fill="black" />
</svg>