<?xml version="1.0" encoding="UTF-8"?>
<svg xmlns="http://www.w3.org/2000/svg" xmlns:xlink="http://www.w3.org/1999/xlink"
     width="800" height="800.0" viewBox="-1.05 -1.05 2.1 2.1">
<defs>
</defs>
<circle cx="0" cy="0" r="1" fill="none" stroke-width="0.006" stroke="black" />
<circle cx="0" cy="0" r="0.0075" fill="black" />
<circle cx="0.3332809985261642" cy="-0.0" r="0.006666928320160522" fill="black" />
<path d="M0.333282040071543,-0.0016667294760281948 A266.66791666549483,266.66791666549483,0,0,0,1.632870052898457e-14,-0.0018749978027585712 L0.0,0.0018749978027585712 A266.66791666549483,266.66791666549483,0,0,0,0.333282040071543,0.0016667294760281948 A1.3335950443505682,1.3335950443505682,0,0,1,0.33328204006731377,-0.00166672947603359 Z" fill="black" />
<circle cx="2.040757540308503e-17" cy="-0.3332809985261642" r="0.006666928320160522" fill="black" />
<path d="M-0.0016667294760281948,-0.3332820400716614 A266.66791666549483,266.66791666549483,0,0,0,-0.0018749978027585712,-1.6328815339487446e-14 L0.0018749978027585712,1.1481050287657882e-19 A266.66791666549483,266.66791666549483,0,0,0,0.0016667294760281948,-0.3332820400716289 A1.3335950443505682,1.3335950443505682,0,0,1,-0.001666729476033539,-0.33328204006731377 Z" fill="black" />
<circle cx="-0.3332809985261642" cy="-4.081515080617006e-17" r="0.006666928320160522" fill="black" />
<path d="M-0.3332820400715961,0.0016667294760281948 A266.66791666549483,266.66791666549483,0,0,0,-6.943847243839399e-14,0.0018749978027585712 L-3.265717143696338e-14,-0.0018749978027585712 A266.66791666549483,266.66791666549483,0,0,0,-0.33328204007154294,-0.0016667294760281948 A1.3335950443505682,1.3335950443505682,0,0,1,-0.33328204006731377,0.0016667294760335468 Z" fill="black" />
<circle cx="-6.122272620925524e-17" cy="0.3332809985261642" r="0.006666928320160522" fill="black" />
<path d="M0.0016667294760281948,0.3332820400716292 A266.66791666549483,266.66791666549483,0,0,0,0.0018749978027585712,-2.960599274501519e-14 L-0.0018749978027585712,-6.226358051512493e-14 A266.66791666549483,266.66791666549483,0,0,0,-0.0016667294760281948,0.3332820400714541 A1.3335950443505682,1.3335950443505682,0,0,1,0.0016667294760334985,0.33328204006731377 Z" fill="black" />
</svg>