<?xml version="1.0" encoding="UTF-8"?>
<svg xmlns="http://www.w3.org/2000/svg" xmlns:xlink="http://www.w3.org/1999/xlink"
     width="800" height="800.0" viewBox="-1.05 -1.05 2.1 2.1">
<defs>
</defs>
<circle cx="0" cy="0" r="1" fill="none" stroke-width="0.006" stroke="black" />
<circle cx="0" cy="0" r="0.0175" fill="black" />
<circle cx="0.3332809985261642" cy="-0.0" r="0.015556166080374552" fill="black" />
<path d="M0.3332925708861455,-0.005555677155484773 A80.00416662326454,80.00416662326454,0,0,0,4.898842328681621e-15,-0.006249918621065831 L0.0,0.006249918621065831 A80.00416662326454,80.00416662326454,0,0,0,0.3332925708861455,0.005555677155484773 A1.3335950443505682,1.3335950443505682,0,0,1,0.33329257088566955,-0.005555677155486805 Z" fill="black" />
<circle cx="2.040757540308503e-17" cy="-0.3332809985261642" r="0.015556166080374552" fill="black" />
<path d="M-0.005555677155484773,-0.3332925708860745 A80.00416662326454,80.00416662326454,0,0,0,-0.006249918621065831,-4.8992250258233324e-15 L0.006249918621065831,3.826971417105449e-19 A80.00416662326454,80.00416662326454,0,0,0,0.005555677155484773,-0.33329257088611736 A1.3335950443505682,1.3335950443505682,0,0,1,-0.005555677155486753,-0.33329257088566955 Z" fill="black" />
<circle cx="-0.3332809985261642" cy="-4.081515080617006e-17" r="0.015556166080374552" fill="black" />
<path d="M-0.33329257088612596,0.005555677155484773 A80.00416662326454,80.00416662326454,0,0,0,-2.083322554867686e-14,0.006249918621065831 L-9.796919263079821e-15,-0.006249918621065831 A80.00416662326454,80.00416662326454,0,0,0,-0.33329257088611,-0.005555677155484773 A1.3335950443505682,1.3335950443505682,0,0,1,-0.33329257088566955,0.005555677155486674 Z" fill="black" />
<circle cx="-6.122272620925524e-17" cy="0.3332809985261642" r="0.015556166080374552" fill="black" />
<path d="M0.005555677155484773,0.3332925708861176 A80.00416662326452,80.00416662326452,0,0,0,0.006249918621065831,-8.88193560189577e-15 L-0.006249918621065831,-1.8680242625686623e-14 A80.00416662326454,80.00416662326454,0,0,0,-0.005555677155484773,0.3332925708860834 A1.3335950443505682,1.3335950443505682,0,0,1,0.005555677155486712,0.33329257088566955 Z" fill="black" />
</svg>