<?xml version="1.0" encoding="UTF-8"?>
<svg xmlns="http://www.w3.org/2000/svg" xmlns:xlink="http://www.w3.org/1999/xlink"
     width="800" height="800.0" viewBox="-1.05 -1.05 2.1 2.1">
<defs>
</defs>
<circle cx="0" cy="0" r="1" fill="none" stroke-width="0.006" stroke="black" />
<circle cx="0" cy="0" r="0.0175" fill="black" />
<circle cx="0.3332809985261642" cy="-0.0" r="0.015556166080374552" fill="black" />
<path d="M0.3332925708861455,-0.005555677155484773 A80.00416662326454,80.00416662326454,0,0,0,4.898842328681621e-15,-0.006249918621065831 L0.0,0.006249918621065831 A80.00416662326454,80.00416662326454,0,0,0,0.3332925708861455,0.005555677155484773 A1.3335950443505682,1.3335950443505682,0,0,1,0.33329257088566955,-0.005555677155486805 Z" fill="black" />
<circle cx="0.3332809985261642" cy="-0.0" r="0.015556166080374552" fill="black" />
<circle cx="0.3657640065038875" cy="0.2926572160639383" r="0.013659947795058767" fill="black" />
<path d="M0.37051739094171676,0.2915998391231219 A1.3563094203433947,1.3563094203433947,0,0,1,0.3388251514127696,4.6096209294883915e-07 A16006.268128919313,16006.268128919313,0,0,1,0.3277136974223771,-4.6482091420330107e-07 A1.311830534144077,1.311830534144077,0,0,0,0.36099810360967743,0.29374026912754575 A1.0670348659770317,1.0670348659770317,0,0,1,0.3705173909417164,0.2915998391231214 Z" fill="black" />
<circle cx="0.5999414926672879" cy="-0.0" r="0.011201228594082563" fill="black" />
<path d="M0.5999564922492903,-0.004000330453152401 A80.00416662326454,80.00416662326454,0,0,0,0.3332925708861455,-0.005555677155484773 A1.3335950443505682,1.3335950443505682,0,0,0,0.33329257088566955,0.005555677155486805 A80.00416662326454,80.00416662326454,0,0,0,0.5999564922492903,0.004000330453152401 A0.5334438551086456,0.5334438551086456,0,0,1,0.5999564922483765,-0.004000330453159087 Z" fill="black" />
<circle cx="0.3657640065038875" cy="-0.2926572160639383" r="0.013659947795058767" fill="black" />
<path d="M0.36099810360967766,-0.2937402691275469 A1.311830534144077,1.311830534144077,0,0,0,0.32771370072002837,4.6482063441568764e-07 A16006.268128791344,16006.268128791344,0,0,1,0.3388251384729235,-4.6096101868897676e-07 A1.3563094203433947,1.3563094203433947,0,0,1,0.37051739094171676,-0.2915998391231219 A1.0670348659770323,1.0670348659770323,0,0,1,0.3609981036096775,-0.2937402691275466 Z" fill="black" />
<circle cx="2.040757540308503e-17" cy="-0.3332809985261642" r="0.015556166080374552" fill="black" />
<path d="M-0.005555677155484773,-0.3332925708860745 A80.00416662326454,80.00416662326454,0,0,0,-0.006249918621065831,-4.8992250258233324e-15 L0.006249918621065831,3.826971417105449e-19 A80.00416662326454,80.00416662326454,0,0,0,0.005555677155484773,-0.33329257088611736 A1.3335950443505682,1.3335950443505682,0,0,1,-0.005555677155486753,-0.33329257088566955 Z" fill="black" />
<circle cx="2.040757540308503e-17" cy="-0.3332809985261642" r="0.015556166080374552" fill="black" />
<circle cx="0.29265721606393846" cy="-0.3657640065038864" r="0.01365994779505878" fill="black" />
<path d="M0.29159983912312165,-0.3705173909417152 A1.3563094203433956,1.3563094203433956,0,0,1,4.609621665568832e-07,-0.33882515141276937 A16006.268128108819,16006.268128108819,0,0,1,-4.6482091420330107e-07,-0.32771369748998835 A1.3118305341440777,1.3118305341440777,0,0,0,0.2937402691275464,-0.36099810360967655 A1.0670348659770363,1.0670348659770363,0,0,1,0.2915998391231216,-0.3705173909417154 Z" fill="black" />
<circle cx="3.673582143353385e-17" cy="-0.5999414926672879" r="0.011201228594082563" fill="black" />
<path d="M-0.004000330453152401,-0.5999564922493258 A80.00416662326454,80.00416662326454,0,0,0,-0.005555677155484773,-0.3332925708860745 A1.3335950443505682,1.3335950443505682,0,0,0,0.005555677155486825,-0.33329257088566955 A80.00416662326454,80.00416662326454,0,0,0,0.004000330453152401,-0.5999564922492957 A0.5334438551086456,0.5334438551086456,0,0,1,-0.004000330453159275,-0.5999564922483765 Z" fill="black" />
<circle cx="-0.2926572160639383" cy="-0.36576400650388724" r="0.013659947795058771" fill="black" />
<path d="M-0.29374026912754597,-0.3609981036096772 A1.3118305341440772,1.3118305341440772,0,0,0,4.648206336936361e-07,-0.32771370072002837 A16006.268128791342,16006.268128791342,0,0,1,-4.6096101868897676e-07,-0.3388251384699834 A1.3563094203433956,1.3563094203433956,0,0,1,-0.29159983912312165,-0.3705173909417159 A1.067034865977034,1.067034865977034,0,0,1,-0.29374026912754614,-0.3609981036096772 Z" fill="black" />
<circle cx="-0.3332809985261642" cy="-4.081515080617006e-17" r="0.015556166080374552" fill="black" />
<path d="M-0.33329257088612596,0.005555677155484773 A80.00416662326454,80.00416662326454,0,0,0,-2.083322554867686e-14,0.006249918621065831 L-9.796919263079821e-15,-0.006249918621065831 A80.00416662326454,80.00416662326454,0,0,0,-0.33329257088611,-0.005555677155484773 A1.3335950443505682,1.3335950443505682,0,0,1,-0.33329257088566955,0.005555677155486674 Z" fill="black" />
<circle cx="-0.3332809985261642" cy="-4.081515080617006e-17" r="0.015556166080374552" fill="black" />
<circle cx="-0.3657640065038874" cy="-0.29265721606393835" r="0.013659947795058767" fill="black" />
<path d="M-0.3705173909417163,-0.2915998391231218 A1.3563094203433954,1.3563094203433954,0,0,1,-0.33882515141276937,-4.6096217104965435e-07 A16006.268128748681,16006.268128748681,0,0,1,-0.32771369743824663,4.6482091420330107e-07 A1.3118305341440775,1.3118305341440775,0,0,0,-0.36099810360967743,-0.2937402691275467 A1.067034865977032,1.067034865977032,0,0,1,-0.3705173909417162,-0.2915998391231216 Z" fill="black" />
<circle cx="-0.5999414926672879" cy="-7.34716428670677e-17" r="0.011201228594082563" fill="black" />
<path d="M-0.5999564922492707,0.004000330453152401 A80.00416662326454,80.00416662326454,0,0,0,-0.33329257088612596,0.005555677155484773 A1.3335950443505682,1.3335950443505682,0,0,0,-0.33329257088566955,-0.005555677155486681 A80.00416662326454,80.00416662326454,0,0,0,-0.5999564922492725,-0.004000330453152401 A0.5334438551086456,0.5334438551086456,0,0,1,-0.5999564922483765,0.004000330453159239 Z" fill="black" />
<circle cx="-0.36576400650388663" cy="0.2926572160639384" r="0.013659947795058778" fill="black" />
<path d="M-0.36099810360967677,0.29374026912754647 A1.3118305341440775,1.3118305341440775,0,0,0,-0.32771370072002837,-4.6482064351520674e-07 A16006.268128194133,16006.268128194133,0,0,1,-0.33882515949329073,4.609628376783803e-07 A1.3563094203433952,1.3563094203433952,0,0,1,-0.37051739094171543,0.2915998391231213 A1.0670348659770363,1.0670348659770363,0,0,1,-0.3609981036096768,0.29374026912754636 Z" fill="black" />
<circle cx="-6.122272620925524e-17" cy="0.3332809985261642" r="0.015556166080374552" fill="black" />
<path d="M0.005555677155484773,0.3332925708861176 A80.00416662326452,80.00416662326452,0,0,0,0.006249918621065831,-8.88193560189577e-15 L-0.006249918621065831,-1.8680242625686623e-14 A80.00416662326454,80.00416662326454,0,0,0,-0.005555677155484773,0.3332925708860834 A1.3335950443505682,1.3335950443505682,0,0,1,0.005555677155486712,0.33329257088566955 Z" fill="black" />
<circle cx="-6.122272620925524e-17" cy="0.3332809985261642" r="0.015556166080374552" fill="black" />
<circle cx="-0.2926572160639384" cy="0.3657640065038872" r="0.013659947795058771" fill="black" />
<path d="M-0.291599839123122,0.3705173909417161 A1.3563094203433956,1.3563094203433956,0,0,1,-4.6096209041991047e-07,0.33882515141276937 A16006.268128535397,16006.268128535397,0,0,1,4.648190952138975e-07,0.32771371912804614 A1.3118305341440775,1.3118305341440775,0,0,0,-0.2937402691275463,0.3609981036096772 A1.0670348659770323,1.0670348659770323,0,0,1,-0.2915998391231214,0.370517390941716 Z" fill="black" />
<circle cx="-1.1020746430060199e-16" cy="0.5999414926672879" r="0.011201228594082563" fill="black" />
<path d="M0.004000330453152401,0.5999564922492957 A80.00416662326452,80.00416662326452,0,0,0,0.005555677155484773,0.3332925708861176 A1.3335950443505682,1.3335950443505682,0,0,0,-0.005555677155486273,0.33329257088566955 A80.00416662326454,80.00416662326454,0,0,0,-0.004000330453152401,0.5999564922493347 A0.5334438551086456,0.5334438551086456,0,0,1,0.00400033045315932,0.5999564922483765 Z" fill="black" />
<circle cx="0.29265721606393835" cy="0.3657640065038867" r="0.013659947795058778" fill="black" />
<path d="M0.29374026912754553,0.36099810360967655 A1.3118305341440777,1.3118305341440777,0,0,0,-4.648206432815883e-07,0.32771370072002837 A16006.268128194137,16006.268128194137,0,0,1,4.609628376783803e-07,0.3388251594951892 A1.3563094203433956,1.3563094203433956,0,0,1,0.2915998391231211,0.37051739094171543 A1.0670348659770372,1.0670348659770372,0,0,1,0.2937402691275459,0.36099810360967655 Z" fill="black" />
</svg>