<?xml version="1.0" encoding="UTF-8"?>
<svg xmlns="http://www.w3.org/2000/svg" xmlns:xlink="http://www.w3.org/1999/xlink"
     width="800" height="800.0" viewBox="-1.05 -1.05 2.1 2.1">
<defs>
</defs>
<circle cx="0" cy="0" r="1" fill="none" stroke-width="0.006" stroke="black" />
<circle cx="0" cy="0" r="0.0075" fill="black" />
<circle cx="0.3332809985261642" cy="-0.0" r="0.006666928320160522" fill="black" />
<path d="M0.333282040071543,-0.0016667294760281948 A266.66791666549483,266.66791666549483,0,0,0,1.632870052898457e-14,-0.0018749978027585712 L0.0,0.0018749978027585712 A266.66791666549483,266.66791666549483,0,0,0,0.333282040071543,0.0016667294760281948 A1.3335950443505682,1.3335950443505682,0,0,1,0.33328204006731377,-0.00166672947603359 Z" fill="black" />
<circle cx="0.3332809985261642" cy="-0.0" r="0.006666928320160522" fill="black" />
<circle cx="0.3657640065038875" cy="0.2926572160639383" r="0.005854263340739471" fill="black" />
<path d="M0.3671913580555759,0.29233731352647363 A1.3403072934301534,1.3403072934301534,0,0,1,0.3349466877561329,1.386928262449874e-07 A16006.268128919313,16006.268128919313,0,0,1,0.33161322636457746,-1.3904173101764172e-07 A1.3269682666125986,1.3269682666125986,0,0,0,0.36433552824491167,0.2929794295025971 A1.0670348659770317,1.0670348659770317,0,0,1,0.3671913580555762,0.2923373135264742 Z" fill="black" />
<circle cx="0.5999414926672879" cy="-0.0" r="0.004800526540321098" fill="black" />
<path d="M0.5999428426643931,-0.001200128710138415 A266.66791666549483,266.66791666549483,0,0,0,0.333282040071543,-0.0016667294760281948 A1.3335950443505682,1.3335950443505682,0,0,0,0.33328204006731377,0.00166672947603359 A266.66791666549483,266.66791666549483,0,0,0,0.5999428426643931,0.001200128710138415 A0.5334438551086456,0.5334438551086456,0,0,1,0.5999428426788491,-0.0012001287101059814 Z" fill="black" />
<circle cx="0.3657640065038875" cy="-0.2926572160639383" r="0.005854263340739471" fill="black" />
<path d="M0.36433552824491167,-0.2929794295025971 A1.3269682666125986,1.3269682666125986,0,0,0,0.33161322621229883,1.3904174509564101e-07 A16006.268128791344,16006.268128791344,0,0,1,0.33494670488098,-1.3869430404156446e-07 A1.3403072934301534,1.3403072934301534,0,0,1,0.3671913580555759,-0.29233731352647363 A1.0670348659770323,1.0670348659770323,0,0,1,0.36433552824491144,-0.2929794295025967 Z" fill="black" />
<circle cx="2.040757540308503e-17" cy="-0.3332809985261642" r="0.006666928320160522" fill="black" />
<path d="M-0.0016667294760281948,-0.3332820400716614 A266.66791666549483,266.66791666549483,0,0,0,-0.0018749978027585712,-1.6328815339487446e-14 L0.0018749978027585712,1.1481050287657882e-19 A266.66791666549483,266.66791666549483,0,0,0,0.0016667294760281948,-0.3332820400716289 A1.3335950443505682,1.3335950443505682,0,0,1,-0.001666729476033539,-0.33328204006731377 Z" fill="black" />
<circle cx="2.040757540308503e-17" cy="-0.3332809985261642" r="0.006666928320160522" fill="black" />
<circle cx="0.29265721606393846" cy="-0.3657640065038864" r="0.005854263340739476" fill="black" />
<path d="M0.2923373135264742,-0.367191358055575 A1.3403072934301536,1.3403072934301536,0,0,1,1.386928742850099e-07,-0.3349466877561331 A16006.268128108819,16006.268128108819,0,0,1,-1.3903991202823818e-07,-0.3316132478670304 A1.3269682666125988,1.3269682666125988,0,0,0,0.29297942950259653,-0.36433552824491033 A1.0670348659770363,1.0670348659770363,0,0,1,0.2923373135264742,-0.3671913580555749 Z" fill="black" />
<circle cx="3.673582143353385e-17" cy="-0.5999414926672879" r="0.004800526540321098" fill="black" />
<path d="M-0.001200128710138415,-0.599942842664334 A266.66791666549483,266.66791666549483,0,0,0,-0.0016667294760281948,-0.3332820400716614 A1.3335950443505682,1.3335950443505682,0,0,0,0.0016667294760333146,-0.33328204006731377 A266.66791666549483,266.66791666549483,0,0,0,0.001200128710138415,-0.5999428426643734 A0.5334438551086456,0.5334438551086456,0,0,1,-0.0012001287101059326,-0.5999428426788491 Z" fill="black" />
<circle cx="-0.2926572160639383" cy="-0.36576400650388724" r="0.005854263340739472" fill="black" />
<path d="M-0.29297942950259637,-0.3643355282449112 A1.3269682666125986,1.3269682666125986,0,0,0,1.3904174436613558e-07,-0.33161322621229883 A16006.268128791342,16006.268128791342,0,0,1,-1.3869248505216092e-07,-0.33494668365647606 A1.3403072934301536,1.3403072934301536,0,0,1,-0.2923373135264738,-0.3671913580555757 A1.067034865977034,1.067034865977034,0,0,1,-0.29297942950259626,-0.3643355282449113 Z" fill="black" />
<circle cx="-0.3332809985261642" cy="-4.081515080617006e-17" r="0.006666928320160522" fill="black" />
<path d="M-0.3332820400715961,0.0016667294760281948 A266.66791666549483,266.66791666549483,0,0,0,-6.943847243839399e-14,0.0018749978027585712 L-3.265717143696338e-14,-0.0018749978027585712 A266.66791666549483,266.66791666549483,0,0,0,-0.33328204007154294,-0.0016667294760281948 A1.3335950443505682,1.3335950443505682,0,0,1,-0.33328204006731377,0.0016667294760335468 Z" fill="black" />
<circle cx="-0.3332809985261642" cy="-4.081515080617006e-17" r="0.006666928320160522" fill="black" />
<circle cx="-0.3657640065038874" cy="-0.29265721606393835" r="0.005854263340739471" fill="black" />
<path d="M-0.3671913580555759,-0.2923373135264743 A1.3403072934301539,1.3403072934301539,0,0,1,-0.3349466877561329,-1.3869287860383437e-07 A16006.268128748681,16006.268128748681,0,0,1,-0.3316132478152156,1.3903991202823818e-07 A1.3269682666125988,1.3269682666125988,0,0,0,-0.36433552824491167,-0.2929794295025967 A1.067034865977032,1.067034865977032,0,0,1,-0.367191358055576,-0.2923373135264742 Z" fill="black" />
<circle cx="-0.5999414926672879" cy="-7.34716428670677e-17" r="0.004800526540321098" fill="black" />
<path d="M-0.5999428426643277,0.001200128710138415 A266.66791666549483,266.66791666549483,0,0,0,-0.3332820400715961,0.0016667294760281948 A1.3335950443505682,1.3335950443505682,0,0,0,-0.33328204006731377,-0.0016667294760335542 A266.66791666549483,266.66791666549483,0,0,0,-0.5999428426643338,-0.001200128710138415 A0.5334438551086456,0.5334438551086456,0,0,1,-0.5999428426788491,0.0012001287101058786 Z" fill="black" />
<circle cx="-0.36576400650388663" cy="0.2926572160639384" r="0.005854263340739475" fill="black" />
<path d="M-0.3643355282449108,0.29297942950259626 A1.3269682666125986,1.3269682666125986,0,0,0,-0.33161322621229905,-1.3904174860395661e-07 A16006.268128194133,16006.268128194133,0,0,1,-0.3349467049358237,1.3869430404156446e-07 A1.3403072934301536,1.3403072934301536,0,0,1,-0.36719135805557523,0.2923373135264742 A1.0670348659770363,1.0670348659770363,0,0,1,-0.3643355282449108,0.2929794295025965 Z" fill="black" />
<circle cx="-6.122272620925524e-17" cy="0.3332809985261642" r="0.006666928320160522" fill="black" />
<path d="M0.0016667294760281948,0.3332820400716292 A266.66791666549483,266.66791666549483,0,0,0,0.0018749978027585712,-2.960599274501519e-14 L-0.0018749978027585712,-6.226358051512493e-14 A266.66791666549483,266.66791666549483,0,0,0,-0.0016667294760281948,0.3332820400714541 A1.3335950443505682,1.3335950443505682,0,0,1,0.0016667294760334985,0.33328204006731377 Z" fill="black" />
<circle cx="-6.122272620925524e-17" cy="0.3332809985261642" r="0.006666928320160522" fill="black" />
<circle cx="-0.2926572160639384" cy="0.3657640065038872" r="0.005854263340739472" fill="black" />
<path d="M-0.2923373135264742,0.3671913580555757 A1.3403072934301539,1.3403072934301539,0,0,1,-1.3869282433803842e-07,0.3349466877561329 A16006.268128535397,16006.268128535397,0,0,1,1.3904173101764172e-07,0.33161322639366375 A1.3269682666125988,1.3269682666125988,0,0,0,-0.29297942950259676,0.3643355282449112 A1.0670348659770323,1.0670348659770323,0,0,1,-0.2923373135264742,0.3671913580555757 Z" fill="black" />
<circle cx="-1.1020746430060199e-16" cy="0.5999414926672879" r="0.004800526540321098" fill="black" />
<path d="M0.001200128710138415,0.5999428426643736 A266.66791666549483,266.66791666549483,0,0,0,0.0016667294760281948,0.3332820400716292 A1.3335950443505682,1.3335950443505682,0,0,0,-0.0016667294760336513,0.33328204006731377 A266.66791666549483,266.66791666549483,0,0,0,-0.001200128710138415,0.5999428426643636 A0.5334438551086456,0.5334438551086456,0,0,1,0.0012001287101059775,0.5999428426788491 Z" fill="black" />
<circle cx="0.29265721606393835" cy="0.3657640065038867" r="0.005854263340739475" fill="black" />
<path d="M0.2929794295025962,0.36433552824491056 A1.3269682666125988,1.3269682666125988,0,0,0,-1.3904177940393127e-07,0.33161322621229883 A16006.268128194137,16006.268128194137,0,0,1,1.3869248505216092e-07,0.33494668370905867 A1.3403072934301539,1.3403072934301539,0,0,1,0.29233731352647424,0.36719135805557523 A1.0670348659770372,1.0670348659770372,0,0,1,0.29297942950259603,0.36433552824491056 Z" fill="black" />
</svg>