<?xml version="1.0" encoding="UTF-8"?>
<svg xmlns="http://www.w3.org/2000/svg" xmlns:xlink="http://www.w3.org/1999/xlink"
     width="800" height="800.0" viewBox="-1.05 -1.05 2.1 2.1">
<defs>
</defs>
<circle cx="0" cy="0" r="1" fill="none" stroke-width="0.006" stroke="black" />
<circle cx="0" cy="0" r="0.0175" fill="black" />
<circle cx="0.3332809985261642" cy="-0.0" r="0.015556166080374552" fill="black" />
<path d="M0.3332925708861455,-0.005555677155484773 A80.00416662326454,80.00416662326454,0,0,0,4.898842328681621e-15,-0.006249918621065831 L0.0,0.006249918621065831 A80.00416662326454,80.00416662326454,0,0,0,0.3332925708861455,0.005555677155484773 A1.3335950443505682,1.3335950443505682,0,0,1,0.33329257088566955,-0.005555677155486805 Z" fill="black" />
<circle cx="0.3332809985261642" cy="-0.0" r="0.015556166080374552" fill="black" />
<circle cx="0.3657640065038875" cy="0.2926572160639383" r="0.013659947795058767" fill="black" />
<path d="M0.37051739094171676,0.2915998391231219 A1.3563094203433947,1.3563094203433947,0,0,1,0.3388251514127696,4.6096209294883915e-07 A16006.268128919313,16006.268128919313,0,0,1,0.3277136974223771,-4.6482091420330107e-07 A1.311830534144077,1.311830534144077,0,0,0,0.36099810360967743,0.29374026912754575 A1.0670348659770317,1.0670348659770317,0,0,1,0.3705173909417164,0.2915998391231214 Z" fill="black" />
<circle cx="0.5999414926672879" cy="-0.0" r="0.011201228594082563" fill="black" />
<path d="M0.5999564922492903,-0.004000330453152401 A80.00416662326454,80.00416662326454,0,0,0,0.3332925708861455,-0.005555677155484773 A1.3335950443505682,1.3335950443505682,0,0,0,0.33329257088566955,0.005555677155486805 A80.00416662326454,80.00416662326454,0,0,0,0.5999564922492903,0.004000330453152401 A0.5334438551086456,0.5334438551086456,0,0,1,0.5999564922483765,-0.004000330453159087 Z" fill="black" />
<circle cx="0.3657640065038875" cy="-0.2926572160639383" r="0.013659947795058767" fill="black" />
<path d="M0.36099810360967766,-0.2937402691275469 A1.311830534144077,1.311830534144077,0,0,0,0.32771370072002837,4.6482063441568764e-07 A16006.268128791344,16006.268128791344,0,0,1,0.3388251384729235,-4.6096101868897676e-07 A1.3563094203433947,1.3563094203433947,0,0,1,0.37051739094171676,-0.2915998391231219 A1.0670348659770323,1.0670348659770323,0,0,1,0.3609981036096775,-0.2937402691275466 Z" fill="black" />
<circle cx="0.3657640065038875" cy="0.2926572160639383" r="0.013659947795058767" fill="black" />
<circle cx="0.09796325132365669" cy="0.3920544976297485" r="0.014642188264871715" fill="black" />
<path d="M0.10041387327170992,0.39665953200405635 A1.0815601954667626,1.0815601954667626,0,0,1,0.3668403189027984,0.29740407730033014 A1.333564599347784,1.333564599347784,0,0,1,0.36470021397603336,0.28788467927502875 A1.0530872471943933,1.0530872471943933,0,0,0,0.09549492663831133,0.38742985832398125 A4.27149174157554,4.27149174157554,0,0,1,0.10041387327170881,0.3966595320040551 Z" fill="black" />
<circle cx="0.43577662047451476" cy="0.5128195703455373" r="0.009574509443072513" fill="black" />
<path d="M0.43893439867920137,0.5115192695833075 A1.356309429005278,1.356309429005278,0,0,1,0.3705173909364674,0.2915998390992688 A1.0670348616871972,1.0670348616871972,0,0,0,0.360998103615184,0.29374026915152496 A1.3118305422471588,1.3118305422471588,0,0,0,0.4326212810544774,0.5141485312494386 A0.4268046739283855,0.4268046739283855,0,0,1,0.43893439867920125,0.511519269583307 Z" fill="black" />
<circle cx="0.5999209712221608" cy="0.2666318199504035" r="0.009957540265361412" fill="black" />
<path d="M0.5999341645840823,0.2630697146651617 A1.0529352096326081,1.0529352096326081,0,0,0,0.364699338804816,0.28788487275044394 A1.3338694988621393,1.3338694988621393,0,0,0,0.3668411846817565,0.2974038792471051 A1.081399825926158,1.081399825926158,0,0,1,0.5999344442543768,0.2701820705819984 A0.4742419700252823,0.4742419700252823,0,0,1,0.599934164584083,0.26306971466516166 Z" fill="black" />
<circle cx="0.5999414926672879" cy="-0.0" r="0.011201228594082563" fill="black" />
<circle cx="0.6409281829922902" cy="0.20513681229993133" r="0.009574774168498425" fill="black" />
<path d="M0.6440784131813763,0.20383509489075075 A0.537066817674589,0.537066817674589,0,0,1,0.6039269355592616,5.955041039678146e-07 A3556.762339690758,3556.762339690758,0,0,1,0.5959260504465858,-6.045038389856927e-07 A0.5299517014048328,0.5299517014048328,0,0,0,0.6377648770399005,0.20646415045226324 A0.6278036196530329,0.6278036196530329,0,0,1,0.6440784131813764,0.2038350948907509 Z" fill="black" />
<circle cx="0.7777364095938333" cy="-0.0" r="0.006914706350861633" fill="black" />
<path d="M0.7777484130549835,-0.002469447481232123 A80.00416662326454,80.00416662326454,0,0,0,0.5999564922492903,-0.004000330453152401 A0.5334438551086456,0.5334438551086456,0,0,0,0.5999564922483765,0.004000330453159087 A80.00416662326454,80.00416662326454,0,0,0,0.7777484130549835,0.002469447481232123 A0.25402313194932247,0.25402313194932247,0,0,1,0.7777484130576493,-0.0024694474812063244 Z" fill="black" />
<circle cx="0.6409281829922902" cy="-0.20513681229993133" r="0.009574774168498425" fill="black" />
<path d="M0.6377648770399005,-0.20646415045226324 A0.5299517014048328,0.5299517014048328,0,0,0,0.5959260497709348,6.045039404871958e-07 A3556.762339706555,3556.762339706555,0,0,1,0.6039269374724175,-5.955043889116496e-07 A0.537066817674589,0.537066817674589,0,0,1,0.6440784131813763,-0.20383509489075075 A0.6278036196530332,0.6278036196530332,0,0,1,0.6377648770399005,-0.20646415045226318 Z" fill="black" />
<circle cx="0.3657640065038875" cy="-0.2926572160639383" r="0.013659947795058767" fill="black" />
<circle cx="0.5999209712221608" cy="-0.2666318199504035" r="0.009957540265361412" fill="black" />
<path d="M0.5999344442543768,-0.2701820705819984 A1.081399825926158,1.081399825926158,0,0,1,0.36684118468175697,-0.29740387924710543 A1.3338694988621393,1.3338694988621393,0,0,0,0.36469933880481564,-0.2878848727504435 A1.0529352096326081,1.0529352096326081,0,0,0,0.599934164584083,-0.2630697146651617 A0.4742419700252823,0.4742419700252823,0,0,1,0.599934444254377,-0.2701820705819987 Z" fill="black" />
<circle cx="0.43577662047451476" cy="-0.5128195703455373" r="0.009574509443072513" fill="black" />
<path d="M0.43262128105447695,-0.5141485312494382 A1.3118305422471588,1.3118305422471588,0,0,0,0.36099810361518414,-0.29374026915152496 A1.0670348616871972,1.0670348616871972,0,0,0,0.3705173909364674,-0.2915998390992689 A1.356309429005278,1.356309429005278,0,0,1,0.43893439867920114,-0.511519269583307 A0.42680467392838567,0.42680467392838567,0,0,1,0.432621281054477,-0.5141485312494385 Z" fill="black" />
<circle cx="0.09796325132365669" cy="-0.3920544976297485" r="0.014642188264871715" fill="black" />
<path d="M0.09549492663831133,-0.38742985832398125 A1.0530872471943933,1.0530872471943933,0,0,0,0.36470021397603286,-0.2878846792750287 A1.333564599347785,1.333564599347785,0,0,1,0.36684031890279845,-0.29740407730033075 A1.0815601954667626,1.0815601954667626,0,0,1,0.10041387327170992,-0.39665953200405635 A4.27149174157554,4.27149174157554,0,0,1,0.09549492663831138,-0.38742985832398125 Z" fill="black" />
<circle cx="0.09796325132365669" cy="0.3920544976297485" r="0.014642188264871715" fill="black" />
<circle cx="-0.06330725870888719" cy="0.11507626915351045" r="0.017198118757268312" fill="black" />
<path d="M-0.06849043164650492,0.11836351204390949 A4.511383063637138,4.511383063637138,0,0,1,0.09335748518196185,0.39452405598213236 A1.0670700666408885,1.0670700666408885,0,0,1,0.10258672276850789,0.38960454149087154 A4.054160142032019,4.054160142032019,0,0,0,-0.058114021271465255,0.11178840395380618 A7.760291042105225,7.760291042105225,0,0,0,-0.06849043164650581,0.11836351204390994 Z" fill="black" />
<circle cx="-0.12077818469660097" cy="0.5467430564323805" r="0.01201348155602652" fill="black" />
<path d="M-0.11789561553959704,0.5499092863355797 A1.081560197477652,1.081560197477652,0,0,1,0.10041387330545459,0.39665953198612536 A4.271491616008868,4.271491616008868,0,0,0,0.09549492660427905,0.38742985834217336 A1.0530872491007999,1.0530872491007999,0,0,0,-0.12369053146399778,0.5435807020036661 A0.7489426814921312,0.7489426814921312,0,0,1,-0.11789561553959704,0.5499092863355797 Z" fill="black" />
<circle cx="0.20761521666650098" cy="0.612873066671065" r="0.010172444204260209" fill="black" />
<path d="M0.21092186427812942,0.6113645687766402 A4.053405788162261,4.053405788162261,0,0,0,0.10258660322898994,0.3896043145704726 A1.0670831303247033,1.0670831303247033,0,0,0,0.09335760664191162,0.3945242811677818 A4.5104489846131095,4.5104489846131095,0,0,1,0.2043236115965108,0.6144068069083182 A0.45166190738638695,0.45166190738638695,0,0,1,0.21092186427812734,0.6113645687766354 Z" fill="black" />
<circle cx="0.43577662047451476" cy="0.5128195703455373" r="0.009574509443072513" fill="black" />
<circle cx="0.2804995589289633" cy="0.6236483392559498" r="0.009316698061719178" fill="black" />
<path d="M0.2829754204012744,0.6258518639017342 A0.4291425434546786,0.4291425434546786,0,0,1,0.4370896644099299,0.5159620595122805 A1.3331412682944646,1.3331412682944646,0,0,1,0.43446114451782725,0.5096484196309088 A0.4245875659909029,0.4245875659909029,0,0,0,0.2779965506218165,0.6214363310393357 A0.9490972482856935,0.9490972482856935,0,0,1,0.28297542040127444,0.6258518639017343 Z" fill="black" />
<circle cx="0.5011539359456825" cy="0.6478515832293972" r="0.005759828525382999" fill="black" />
<path d="M0.5029556654042449,0.6468623319725832 A1.3563094400259608,1.3563094400259608,0,0,1,0.43893439867591244,0.5115192695752282 A0.4268046735790949,0.4268046735790949,0,0,0,0.4326212810579123,0.5141485312575025 A1.3118305525568688,1.3118305525568688,0,0,0,0.49935954541796446,0.648860574345438 A0.20323993581378083,0.20323993581378083,0,0,1,0.5029556654042447,0.6468623319725832 Z" fill="black" />
<circle cx="0.5999014172562022" cy="0.47998430543200543" r="0.00717033373197672" fill="black" />
<path d="M0.5999108650135665,0.47741583487993433 A0.4245442602903906,0.4245442602903906,0,0,0,0.43446012370823783,0.5096488417426062 A1.3344770872249878,1.3344770872249878,0,0,0,0.4370906668496195,0.5159616389650657 A0.429098303650987,0.429098303650987,0,0,1,0.599911169822508,0.48253740924590255 A0.34152298437864925,0.34152298437864925,0,0,1,0.5999108650135665,0.4774158348799341 Z" fill="black" />
<circle cx="0.5999209712221608" cy="0.2666318199504035" r="0.009957540265361412" fill="black" />
<circle cx="0.6308380084807544" cy="0.4351309829446558" r="0.007222327607908931" fill="black" />
<path d="M0.6332462208057139,0.43422681822172127 A0.47706119279625225,0.47706119279625225,0,0,1,0.6034638934735645,0.2666382837371329 A1.067414644429711,1.067414644429711,0,0,0,0.5963513771364902,0.2666372001951851 A0.4714388560483183,0.4714388560483183,0,0,0,0.6284239048101867,0.4360591433257468 A0.3271191875243018,0.3271191875243018,0,0,1,0.6332462208057139,0.4342268182217214 Z" fill="black" />
<circle cx="0.7571149292565722" cy="0.27826743681427135" r="0.006113523806348546" fill="black" />
<path d="M0.7574475133603471,0.27610730734909406 A1.0529352178771125,1.0529352178771125,0,0,0,0.5999341645966672,0.26306971466525564 A0.474241969281794,0.474241969281794,0,0,0,0.599934444241877,0.2701820705820928 A1.0813998346224447,1.0813998346224447,0,0,1,0.7568043238994882,0.28042632197543527 A0.22114796820247357,0.22114796820247357,0,0,1,0.7574475133603477,0.27610730734909417 Z" fill="black" />
<circle cx="0.6434649122479467" cy="0.06805782256046547" r="0.010173118191146234" fill="black" />
<path d="M0.6401545904154171,0.06652691954514448 A0.4715013359998305,0.4715013359998305,0,0,0,0.5963513807158192,0.26663827492802994 A1.066694467898063,1.066694467898063,0,0,1,0.6034638970046154,0.2666372250028286 A0.477125171995634,0.477125171995634,0,0,1,0.6467539010581863,0.06956851564911593 A1.4006063792860413,1.4006063792860413,0,0,1,0.6401545904154176,0.06652691954514478 Z" fill="black" />
<circle cx="0.6409281829922902" cy="0.20513681229993133" r="0.009574774168498425" fill="black" />
<circle cx="0.45832599537253144" cy="0.3216555094343527" r="0.012013312766285344" fill="black" />
<path d="M0.46121575238062923,0.32480698190356033 A0.6328044027308602,0.6328044027308602,0,0,1,0.6422491916917987,0.20828077257783373 A0.5334525983550236,0.5334525983550236,0,0,1,0.6396202498882547,0.20196723137766506 A0.6229497818708147,0.6229497818708147,0,0,0,0.4554212175483751,0.31847803445743317 A2.840609415170886,2.840609415170886,0,0,0,0.46121575238062906,0.32480698190356017 Z" fill="black" />
<circle cx="0.7222684176058101" cy="0.33999943995109805" r="0.006347752490837431" fill="black" />
<path d="M0.7240183319381748,0.3385657990919958 A0.5370668211830553,0.5370668211830553,0,0,1,0.6440784131715321,0.20383509486674323 A0.6278036140104596,0.6278036140104596,0,0,0,0.6377648770501361,0.20646415047647093 A0.5299517048209541,0.5299517048209541,0,0,0,0.7205241207060874,0.34145499345164665 A0.25110189749196,0.25110189749196,0,0,1,0.7240183319381752,0.33856579909199636 Z" fill="black" />
<circle cx="0.7898377601155325" cy="0.16370845921177835" r="0.0061137274288682215" fill="black" />
<path d="M0.7895257011734695,0.16154360924778788 A0.6227913343068913,0.6227913343068913,0,0,0,0.6396195564654455,0.2019675150038911 A0.5335514021797392,0.5335514021797392,0,0,0,0.6422498739479517,0.20828048325548199 A0.6326409031186183,0.6326409031186183,0,0,1,0.7901691369462446,0.16586275170313658 A0.2307227885181782,0.2307227885181782,0,0,1,0.7895257011734694,0.1615436092477878 Z" fill="black" />
<circle cx="0.7777364095938333" cy="-0.0" r="0.006914706350861633" fill="black" />
<circle cx="0.8097019040131448" cy="0.12341129428956615" r="0.005760168383887088" fill="black" />
<path d="M0.8114960452539958,0.12242188778993239 A0.2548522331864905,0.2548522331864905,0,0,1,0.7801939696935827,4.7550748354775003e-07 A1306.514580198487,1306.514580198487,0,0,1,0.7752548419619882,-4.848432126891566e-07 A0.25323885502242643,0.25323885502242643,0,0,0,0.8078994574230213,0.12442005565056921 A0.3284304594852383,0.3284304594852383,0,0,1,0.8114960452539959,0.12242188778993252 Z" fill="black" />
<circle cx="0.8823294781706582" cy="-0.0" r="0.0038761571091441445" fill="black" />
<path d="M0.8823371117699177,-0.0013842817043325795 A80.00416662326454,80.00416662326454,0,0,0,0.7777484130549835,-0.002469447481232123 A0.25402313194932247,0.25402313194932247,0,0,0,0.7777484130576493,0.0024694474812063244 A80.00416662326454,80.00416662326454,0,0,0,0.8823371117699177,0.0013842817043325795 A0.12551699644577263,0.12551699644577263,0,0,1,0.8823371117747237,-0.0013842817042793965 Z" fill="black" />
<circle cx="0.8097019040131448" cy="-0.12341129428956615" r="0.005760168383887088" fill="black" />
<path d="M0.8078994574230213,-0.12442005565056921 A0.25323885502242643,0.25323885502242643,0,0,0,0.7752548414338036,4.848432359233314e-07 A1306.5145801999788,1306.5145801999788,0,0,1,0.7801939689152488,-4.7550724957545754e-07 A0.2548522331864905,0.2548522331864905,0,0,1,0.8114960452539959,-0.12242188778993258 A0.3284304594852381,0.3284304594852381,0,0,1,0.8078994574230213,-0.12442005565056918 Z" fill="black" />
<circle cx="0.6409281829922902" cy="-0.20513681229993133" r="0.009574774168498425" fill="black" />
<circle cx="0.7898377601155325" cy="-0.16370845921177835" r="0.0061137274288682215" fill="black" />
<path d="M0.7901691369462446,-0.16586275170313658 A0.6326409031186183,0.6326409031186183,0,0,1,0.6422498739479517,-0.20828048325548199 A0.5335514021797392,0.5335514021797392,0,0,0,0.6396195564654457,-0.2019675150038909 A0.6227913343068913,0.6227913343068913,0,0,0,0.7895257011734693,-0.16154360924778788 A0.2307227885181782,0.2307227885181782,0,0,1,0.7901691369462447,-0.1658627517031366 Z" fill="black" />
<circle cx="0.7222684176058101" cy="-0.33999943995109805" r="0.006347752490837431" fill="black" />
<path d="M0.7205241207060874,-0.34145499345164665 A0.5299517048209541,0.5299517048209541,0,0,0,0.6377648770501361,-0.206464150476471 A0.6278036140104596,0.6278036140104596,0,0,0,0.6440784131715321,-0.20383509486674323 A0.5370668211830553,0.5370668211830553,0,0,1,0.7240183319381748,-0.3385657990919958 A0.25110189749196,0.25110189749196,0,0,1,0.7205241207060872,-0.3414549934516463 Z" fill="black" />
<circle cx="0.45832599537253144" cy="-0.3216555094343527" r="0.012013312766285344" fill="black" />
<path d="M0.4554212175483747,-0.3184780344574335 A0.6229497818708147,0.6229497818708147,0,0,0,0.6396202498882548,-0.2019672313776647 A0.5334525983550232,0.5334525983550232,0,0,1,0.642249191691799,-0.20828077257783353 A0.6328044027308602,0.6328044027308602,0,0,1,0.461215752380629,-0.32480698190356044 A2.840609415170879,2.840609415170879,0,0,0,0.4554212175483734,-0.3184780344574316 Z" fill="black" />
<circle cx="0.5999209712221608" cy="-0.2666318199504035" r="0.009957540265361412" fill="black" />
<circle cx="0.6434649122479467" cy="-0.06805782256046547" r="0.010173118191146234" fill="black" />
<path d="M0.6467539010581863,-0.06956851564911593 A0.477125171995634,0.477125171995634,0,0,1,0.6034638970046153,-0.26663722500282866 A1.0666944678980625,1.0666944678980625,0,0,1,0.5963513807158183,-0.26663827492802983 A0.4715013359998305,0.4715013359998305,0,0,0,0.6401545904154171,-0.06652691954514448 A1.4006063792860413,1.4006063792860413,0,0,1,0.6467539010581861,-0.0695685156491157 Z" fill="black" />
<circle cx="0.7571149292565722" cy="-0.27826743681427135" r="0.006113523806348546" fill="black" />
<path d="M0.7568043238994882,-0.28042632197543527 A1.0813998346224447,1.0813998346224447,0,0,1,0.5999344442418771,-0.270182070582093 A0.474241969281794,0.474241969281794,0,0,0,0.5999341645966672,-0.26306971466525547 A1.0529352178771125,1.0529352178771125,0,0,0,0.7574475133603473,-0.2761073073490943 A0.22114796820247362,0.22114796820247362,0,0,1,0.7568043238994884,-0.2804263219754353 Z" fill="black" />
<circle cx="0.6308380084807544" cy="-0.4351309829446558" r="0.007222327607908931" fill="black" />
<path d="M0.6284239048101867,-0.4360591433257468 A0.4714388560483183,0.4714388560483183,0,0,0,0.5963513771364903,-0.26663720019518516 A1.067414644429712,1.067414644429712,0,0,0,0.6034638934735645,-0.26663828373713283 A0.47706119279625225,0.47706119279625225,0,0,1,0.633246220805714,-0.4342268182217215 A0.32711918752430186,0.32711918752430186,0,0,1,0.6284239048101867,-0.43605914332574686 Z" fill="black" />
<circle cx="0.43577662047451476" cy="-0.5128195703455373" r="0.009574509443072513" fill="black" />
<circle cx="0.5999014172562022" cy="-0.47998430543200543" r="0.00717033373197672" fill="black" />
<path d="M0.5999111698225078,-0.48253740924590255 A0.429098303650987,0.429098303650987,0,0,1,0.4370906668496197,-0.5159616389650657 A1.3344770872249878,1.3344770872249878,0,0,0,0.43446012370823817,-0.5096488417426062 A0.4245442602903906,0.4245442602903906,0,0,0,0.5999108650135665,-0.47741583487993433 A0.34152298437864936,0.34152298437864936,0,0,1,0.5999111698225079,-0.4825374092459026 Z" fill="black" />
<circle cx="0.5011539359456825" cy="-0.6478515832293972" r="0.005759828525382999" fill="black" />
<path d="M0.49935954541796446,-0.648860574345438 A1.3118305525568688,1.3118305525568688,0,0,0,0.4326212810579124,-0.5141485312575029 A0.4268046735790949,0.4268046735790949,0,0,0,0.43893439867591244,-0.5115192695752284 A1.3563094400259608,1.3563094400259608,0,0,1,0.5029556654042449,-0.6468623319725832 A0.20323993581378083,0.20323993581378083,0,0,1,0.4993595454179647,-0.6488605743454382 Z" fill="black" />
<circle cx="0.2804995589289633" cy="-0.6236483392559498" r="0.009316698061719178" fill="black" />
<path d="M0.2779965506218165,-0.6214363310393357 A0.4245875659909029,0.4245875659909029,0,0,0,0.4344611445178268,-0.5096484196309085 A1.333141268294464,1.333141268294464,0,0,1,0.4370896644099296,-0.5159620595122808 A0.4291425434546786,0.4291425434546786,0,0,1,0.2829754204012744,-0.6258518639017342 A0.9490972482856936,0.9490972482856936,0,0,1,0.2779965506218165,-0.6214363310393357 Z" fill="black" />
<circle cx="0.09796325132365669" cy="-0.3920544976297485" r="0.014642188264871715" fill="black" />
<circle cx="0.20761521666650098" cy="-0.612873066671065" r="0.010172444204260209" fill="black" />
<path d="M0.2043236115965108,-0.6144068069083182 A4.5104489846131095,4.5104489846131095,0,0,1,0.09335760664191106,-0.3945242811677807 A1.0670831303247033,1.0670831303247033,0,0,0,0.1025866032289891,-0.38960431457047084 A4.053405788162261,4.053405788162261,0,0,0,0.21092186427812631,-0.6113645687766331 A0.451661907386387,0.451661907386387,0,0,1,0.20432361159650908,-0.6144068069083144 Z" fill="black" />
<circle cx="-0.12077818469660097" cy="-0.5467430564323805" r="0.01201348155602652" fill="black" />
<path d="M-0.12369053146399811,-0.5435807020036665 A1.0530872491007999,1.0530872491007999,0,0,0,0.09549492660427783,-0.3874298583421729 A4.271491616008862,4.271491616008862,0,0,0,0.10041387330545559,-0.39665953198612813 A1.081560197477652,1.081560197477652,0,0,1,-0.11789561553959704,-0.5499092863355797 A0.7489426814921311,0.7489426814921311,0,0,1,-0.12369053146399778,-0.5435807020036663 Z" fill="black" />
<circle cx="-0.06330725870888719" cy="-0.11507626915351045" r="0.017198118757268312" fill="black" />
<path d="M-0.058114021271465255,-0.11178840395380618 A4.054160142032019,4.054160142032019,0,0,0,0.10258672276850822,-0.3896045414908722 A1.0670700666408885,1.0670700666408885,0,0,1,0.09335748518196141,-0.3945240559821317 A4.511383063637138,4.511383063637138,0,0,1,-0.06849043164650492,-0.11836351204390949 A7.760291042105208,7.760291042105208,0,0,0,-0.05811402127146703,-0.11178840395380707 Z" fill="black" />
<circle cx="2.040757540308503e-17" cy="-0.3332809985261642" r="0.015556166080374552" fill="black" />
<path d="M-0.005555677155484773,-0.3332925708860745 A80.00416662326454,80.00416662326454,0,0,0,-0.006249918621065831,-4.8992250258233324e-15 L0.006249918621065831,3.826971417105449e-19 A80.00416662326454,80.00416662326454,0,0,0,0.005555677155484773,-0.33329257088611736 A1.3335950443505682,1.3335950443505682,0,0,1,-0.005555677155486753,-0.33329257088566955 Z" fill="black" />
<circle cx="2.040757540308503e-17" cy="-0.3332809985261642" r="0.015556166080374552" fill="black" />
<circle cx="0.29265721606393846" cy="-0.3657640065038864" r="0.01365994779505878" fill="black" />
<path d="M0.29159983912312165,-0.3705173909417152 A1.3563094203433956,1.3563094203433956,0,0,1,4.609621665568832e-07,-0.33882515141276937 A16006.268128108819,16006.268128108819,0,0,1,-4.6482091420330107e-07,-0.32771369748998835 A1.3118305341440777,1.3118305341440777,0,0,0,0.2937402691275464,-0.36099810360967655 A1.0670348659770363,1.0670348659770363,0,0,1,0.2915998391231216,-0.3705173909417154 Z" fill="black" />
<circle cx="3.673582143353385e-17" cy="-0.5999414926672879" r="0.011201228594082563" fill="black" />
<path d="M-0.004000330453152401,-0.5999564922493258 A80.00416662326454,80.00416662326454,0,0,0,-0.005555677155484773,-0.3332925708860745 A1.3335950443505682,1.3335950443505682,0,0,0,0.005555677155486825,-0.33329257088566955 A80.00416662326454,80.00416662326454,0,0,0,0.004000330453152401,-0.5999564922492957 A0.5334438551086456,0.5334438551086456,0,0,1,-0.004000330453159275,-0.5999564922483765 Z" fill="black" />
<circle cx="-0.2926572160639383" cy="-0.36576400650388724" r="0.013659947795058771" fill="black" />
<path d="M-0.29374026912754597,-0.3609981036096772 A1.3118305341440772,1.3118305341440772,0,0,0,4.648206336936361e-07,-0.32771370072002837 A16006.268128791342,16006.268128791342,0,0,1,-4.6096101868897676e-07,-0.3388251384699834 A1.3563094203433956,1.3563094203433956,0,0,1,-0.29159983912312165,-0.3705173909417159 A1.067034865977034,1.067034865977034,0,0,1,-0.29374026912754614,-0.3609981036096772 Z" fill="black" />
<circle cx="0.29265721606393846" cy="-0.3657640065038864" r="0.01365994779505878" fill="black" />
<circle cx="0.3920544976297494" cy="-0.09796325132365574" r="0.014642188264871705" fill="black" />
<path d="M0.3966595320040579,-0.10041387327170848 A1.0815601954667622,1.0815601954667622,0,0,1,0.2974040773003306,-0.3668403189027982 A1.333564599347794,1.333564599347794,0,0,1,0.2878846792750287,-0.36470021397603225 A1.0530872471943922,1.0530872471943922,0,0,0,0.38742985832398236,-0.09549492663831022 A4.27149174157543,4.27149174157543,0,0,1,0.39665953200405557,-0.10041387327170792 Z" fill="black" />
<circle cx="0.5128195703455383" cy="-0.43577662047451243" r="0.009574509443072528" fill="black" />
<path d="M0.5115192695833075,-0.4389343986791985 A1.3563094290052726,1.3563094290052726,0,0,1,0.29159983909926895,-0.3705173909364663 A1.0670348616872067,1.0670348616872067,0,0,0,0.2937402691515245,-0.36099810361518353 A1.311830542247154,1.311830542247154,0,0,0,0.514148531249438,-0.4326212810544747 A0.4268046739283875,0.4268046739283875,0,0,1,0.5115192695833077,-0.4389343986791987 Z" fill="black" />
<circle cx="0.2666318199504041" cy="-0.5999209712221599" r="0.009957540265361428" fill="black" />
<path d="M0.2630697146651624,-0.5999341645840822 A1.052935209632611,1.052935209632611,0,0,0,0.28788487275044417,-0.36469933880481464 A1.3338694988621436,1.3338694988621436,0,0,0,0.2974038792471057,-0.3668411846817552 A1.0813998259261606,1.0813998259261606,0,0,1,0.2701820705819993,-0.5999344442543766 A0.47424197002528284,0.47424197002528284,0,0,1,0.26306971466516244,-0.5999341645840821 Z" fill="black" />
<circle cx="3.673582143353385e-17" cy="-0.5999414926672879" r="0.011201228594082563" fill="black" />
<circle cx="0.20513681229993133" cy="-0.64092818299229" r="0.009574774168498425" fill="black" />
<path d="M0.20383509489075102,-0.6440784131813762 A0.5370668176745889,0.5370668176745889,0,0,1,5.955041032020426e-07,-0.6039269355592615 A3556.762339664429,3556.762339664429,0,0,1,-6.045038389856927e-07,-0.5959260504506128 A0.529951701404833,0.529951701404833,0,0,0,0.2064641504522632,-0.6377648770399004 A0.6278036196530336,0.6278036196530336,0,0,1,0.2038350948907509,-0.6440784131813762 Z" fill="black" />
<circle cx="4.7622620229472144e-17" cy="-0.7777364095938333" r="0.006914706350861633" fill="black" />
<path d="M-0.002469447481232123,-0.7777484130549659 A80.00416662326454,80.00416662326454,0,0,0,-0.004000330453152401,-0.5999564922493258 A0.5334438551086456,0.5334438551086456,0,0,0,0.004000330453159242,-0.5999564922483765 A80.00416662326454,80.00416662326454,0,0,0,0.002469447481232123,-0.7777484130549974 A0.25402313194932247,0.25402313194932247,0,0,1,-0.002469447481206384,-0.7777484130576493 Z" fill="black" />
<circle cx="-0.2051368122999309" cy="-0.6409281829922909" r="0.009574774168498409" fill="black" />
<path d="M-0.20646415045226282,-0.6377648770399014 A0.5299517014048329,0.5299517014048329,0,0,0,6.045039391668679e-07,-0.5959260497709349 A3556.762339777643,3556.762339777643,0,0,1,-5.955043889116496e-07,-0.6039269374627615 A0.5370668176745891,0.5370668176745891,0,0,1,-0.2038350948907504,-0.644078413181377 A0.627803619653029,0.627803619653029,0,0,1,-0.20646415045226274,-0.6377648770399014 Z" fill="black" />
<circle cx="-0.2926572160639383" cy="-0.36576400650388724" r="0.013659947795058771" fill="black" />
<circle cx="-0.2666318199504031" cy="-0.5999209712221606" r="0.00995754026536142" fill="black" />
<path d="M-0.2701820705819977,-0.599934444254377 A1.081399825926157,1.081399825926157,0,0,1,-0.297403879247105,-0.3668411846817563 A1.3338694988621445,1.3338694988621445,0,0,0,-0.28788487275044355,-0.3646993388048152 A1.0529352096326072,1.0529352096326072,0,0,0,-0.26306971466516105,-0.5999341645840829 A0.47424197002528284,0.47424197002528284,0,0,1,-0.2701820705819977,-0.599934444254377 Z" fill="black" />
<circle cx="-0.5128195703455372" cy="-0.4357766204745148" r="0.009574509443072513" fill="black" />
<path d="M-0.5141485312494383,-0.4326212810544776 A1.3118305422471632,1.3118305422471632,0,0,0,-0.29374026915152507,-0.36099810361518414 A1.0670348616871963,1.0670348616871963,0,0,0,-0.2915998390992691,-0.370517390936467 A1.3563094290052826,1.3563094290052826,0,0,1,-0.5115192695833068,-0.43893439867920114 A0.4268046739283856,0.4268046739283856,0,0,1,-0.5141485312494379,-0.43262128105447734 Z" fill="black" />
<circle cx="-0.392054497629753" cy="-0.09796325132365892" r="0.014642188264871644" fill="black" />
<path d="M-0.3874298583239856,-0.0954949266383135 A1.0530872471943802,1.0530872471943802,0,0,0,-0.2878846792750285,-0.364700213976033 A1.333564599347814,1.333564599347814,0,0,1,-0.29740407730033047,-0.36684031890279845 A1.0815601954667489,1.0815601954667489,0,0,1,-0.3966595320040609,-0.10041387327171192 A4.271491741575202,4.271491741575202,0,0,1,-0.3874298583239857,-0.0954949266383136 Z" fill="black" />
<circle cx="0.3920544976297494" cy="-0.09796325132365574" r="0.014642188264871705" fill="black" />
<circle cx="0.11507626915351234" cy="0.06330725870888966" r="0.0171981187572683" fill="black" />
<path d="M0.11836351204391171,0.0684904316465067 A4.511383063636982,4.511383063636982,0,0,1,0.39452405598213414,-0.0933574851819623 A1.0670700666408899,1.0670700666408899,0,0,1,0.38960454149087187,-0.10258672276850728 A4.054160142031887,4.054160142031887,0,0,0,0.11178840395380796,0.058114021271467475 A7.760291042105409,7.760291042105409,0,0,0,0.11836351204390994,0.06849043164650492 Z" fill="black" />
<circle cx="0.5467430564323832" cy="0.12077818469659976" r="0.012013481556026474" fill="black" />
<path d="M0.5499092863355817,0.11789561553959538 A1.081560197477653,1.081560197477653,0,0,1,0.3966595319861258,-0.10041387330545382 A4.271491616008642,4.271491616008642,0,0,0,0.38742985834217336,-0.09549492660427772 A1.0530872491008008,1.0530872491008008,0,0,0,0.5435807020036686,0.12369053146399644 A0.7489426814921224,0.7489426814921224,0,0,1,0.5499092863355819,0.11789561553959593 Z" fill="black" />
<circle cx="0.6128730666710649" cy="-0.20761521666650118" r="0.010172444204260212" fill="black" />
<path d="M0.611364568776634,-0.21092186427812631 A4.053405788162141,4.053405788162141,0,0,0,0.3896043145704762,-0.10258660322898949 A1.067083130324699,1.067083130324699,0,0,0,0.39452428116778404,-0.09335760664191084 A4.5104489846129585,4.5104489846129585,0,0,1,0.614406806908318,-0.2043236115965108 A0.45166190738638695,0.45166190738638695,0,0,1,0.6113645687766356,-0.2109218642781271 Z" fill="black" />
<circle cx="0.5128195703455383" cy="-0.43577662047451243" r="0.009574509443072528" fill="black" />
<circle cx="0.6236483392559498" cy="-0.28049955892896" r="0.00931669806171921" fill="black" />
<path d="M0.6258518639017341,-0.282975420401271 A0.4291425434546802,0.4291425434546802,0,0,1,0.5159620595122815,-0.4370896644099278 A1.3331412682944492,1.3331412682944492,0,0,1,0.5096484196309096,-0.434461144517825 A0.4245875659909044,0.4245875659909044,0,0,0,0.6214363310393356,-0.27799655062181305 A0.9490972482857087,0.9490972482857087,0,0,1,0.6258518639017343,-0.28297542040127105 Z" fill="black" />
<circle cx="0.6478515832293988" cy="-0.5011539359456797" r="0.005759828525383009" fill="black" />
<path d="M0.6468623319725854,-0.5029556654042417 A1.3563094400259605,1.3563094400259605,0,0,1,0.5115192695752298,-0.43893439867591 A0.4268046735790957,0.4268046735790957,0,0,0,0.514148531257504,-0.43262128105790987 A1.3118305525568688,1.3118305525568688,0,0,0,0.6488605743454399,-0.49935954541796157 A0.20323993581378186,0.20323993581378186,0,0,1,0.6468623319725848,-0.5029556654042415 Z" fill="black" />
<circle cx="0.47998430543200754" cy="-0.5999014172562005" r="0.00717033373197672" fill="black" />
<path d="M0.4774158348799365,-0.5999108650135654 A0.42454426029039194,0.42454426029039194,0,0,0,0.5096488417426068,-0.43446012370823595 A1.3344770872249736,1.3344770872249736,0,0,0,0.515961638965067,-0.4370906668496173 A0.42909830365098856,0.42909830365098856,0,0,1,0.4825374092459048,-0.5999111698225064 A0.34152298437864803,0.34152298437864803,0,0,1,0.4774158348799365,-0.599910865013565 Z" fill="black" />
<circle cx="0.2666318199504041" cy="-0.5999209712221599" r="0.009957540265361428" fill="black" />
<circle cx="0.4351309829446569" cy="-0.6308380084807533" r="0.007222327607908937" fill="black" />
<path d="M0.43422681822172254,-0.6332462208057128 A0.47706119279625353,0.47706119279625353,0,0,1,0.26663828373713333,-0.6034638934735637 A1.0674146444297161,1.0674146444297161,0,0,0,0.26663720019518555,-0.59635137713649 A0.4714388560483193,0.4714388560483193,0,0,0,0.43605914332574813,-0.6284239048101854 A0.3271191875243017,0.3271191875243017,0,0,1,0.43422681822172265,-0.6332462208057129 Z" fill="black" />
<circle cx="0.27826743681427274" cy="-0.7571149292565714" r="0.006113523806348554" fill="black" />
<path d="M0.27610730734909605,-0.7574475133603475 A1.0529352178771267,1.0529352178771267,0,0,0,0.2630697146652565,-0.5999341645966664 A0.4742419692817939,0.4742419692817939,0,0,0,0.27018207058209387,-0.5999344442418764 A1.0813998346224596,1.0813998346224596,0,0,1,0.28042632197543704,-0.7568043238994873 A0.22114796820247365,0.22114796820247365,0,0,1,0.276107307349096,-0.7574475133603468 Z" fill="black" />
<circle cx="0.0680578225604661" cy="-0.6434649122479468" r="0.01017311819114623" fill="black" />
<path d="M0.06652691954514492,-0.6401545904154178 A0.47150133599983074,0.47150133599983074,0,0,0,0.2666382749280304,-0.5963513807158184 A1.0666944678980748,1.0666944678980748,0,0,1,0.26663722500282927,-0.6034638970046141 A0.47712517199563426,0.47712517199563426,0,0,1,0.06956851564911601,-0.6467539010581869 A1.400606379286017,1.400606379286017,0,0,1,0.06652691954514478,-0.6401545904154173 Z" fill="black" />
<circle cx="0.20513681229993133" cy="-0.64092818299229" r="0.009574774168498425" fill="black" />
<circle cx="0.3216555094343532" cy="-0.4583259953725313" r="0.012013312766285339" fill="black" />
<path d="M0.32480698190356055,-0.4612157523806294 A0.6328044027308587,0.6328044027308587,0,0,1,0.20828077257783373,-0.6422491916917988 A0.5334525983550246,0.5334525983550246,0,0,1,0.20196723137766479,-0.6396202498882545 A0.6229497818708135,0.6229497818708135,0,0,0,0.3184780344574335,-0.45542121754837506 A2.8406094151709165,2.8406094151709165,0,0,0,0.3248069819035597,-0.46121575238062906 Z" fill="black" />
<circle cx="0.339999439951098" cy="-0.7222684176058101" r="0.006347752490837431" fill="black" />
<path d="M0.3385657990919964,-0.7240183319381754 A0.5370668211830558,0.5370668211830558,0,0,1,0.20383509486674284,-0.644078413171532 A0.6278036140104601,0.6278036140104601,0,0,0,0.2064641504764706,-0.6377648770501361 A0.5299517048209546,0.5299517048209546,0,0,0,0.34145499345164665,-0.7205241207060874 A0.2511018974919594,0.2511018974919594,0,0,1,0.33856579909199647,-0.7240183319381756 Z" fill="black" />
<circle cx="0.1637084592117781" cy="-0.7898377601155324" r="0.0061137274288682215" fill="black" />
<path d="M0.16154360924778755,-0.7895257011734692 A0.6227913343068888,0.6227913343068888,0,0,0,0.20196751500389098,-0.6396195564654455 A0.5335514021797413,0.5335514021797413,0,0,0,0.20828048325548218,-0.6422498739479516 A0.6326409031186159,0.6326409031186159,0,0,1,0.16586275170313636,-0.7901691369462445 A0.2307227885181784,0.2307227885181784,0,0,1,0.16154360924778755,-0.7895257011734693 Z" fill="black" />
<circle cx="4.7622620229472144e-17" cy="-0.7777364095938333" r="0.006914706350861633" fill="black" />
<circle cx="0.12341129428956628" cy="-0.8097019040131448" r="0.005760168383887088" fill="black" />
<path d="M0.12242188778993282,-0.8114960452539959 A0.2548522331864905,0.2548522331864905,0,0,1,4.755073991791282e-07,-0.7801939696935827 A1306.5145801925187,1306.5145801925187,0,0,1,-4.848432126891566e-07,-0.7752548419631529 A0.2532388550224264,0.2532388550224264,0,0,0,0.12442005565056952,-0.8078994574230212 A0.3284304594852377,0.3284304594852377,0,0,1,0.12242188778993268,-0.811496045253996 Z" fill="black" />
<circle cx="5.402709856175249e-17" cy="-0.8823294781706582" r="0.0038761571091441445" fill="black" />
<path d="M-0.0013842817043325795,-0.8823371117698999 A80.00416662326454,80.00416662326454,0,0,0,-0.002469447481232123,-0.7777484130549659 A0.25402313194932247,0.25402313194932247,0,0,0,0.002469447481206372,-0.7777484130576493 A80.00416662326454,80.00416662326454,0,0,0,0.0013842817043325795,-0.8823371117699021 A0.12551699644577263,0.12551699644577263,0,0,1,-0.0013842817042793675,-0.8823371117747237 Z" fill="black" />
<circle cx="-0.12341129428956622" cy="-0.8097019040131448" r="0.005760168383887088" fill="black" />
<path d="M-0.1244200556505693,-0.8078994574230212 A0.25323885502242627,0.25323885502242627,0,0,0,4.848432501767681e-07,-0.7752548414338036 A1306.5145801887884,1306.5145801887884,0,0,1,-4.75507476949133e-07,-0.7801939696607011 A0.2548522331864903,0.2548522331864903,0,0,1,-0.12242188778993256,-0.8114960452539957 A0.32843045948523886,0.32843045948523886,0,0,1,-0.1244200556505693,-0.8078994574230212 Z" fill="black" />
<circle cx="-0.2051368122999309" cy="-0.6409281829922909" r="0.009574774168498409" fill="black" />
<circle cx="-0.16370845921177743" cy="-0.789837760115533" r="0.006113727428868212" fill="black" />
<path d="M-0.16586275170313558,-0.7901691369462451 A0.6326409031186137,0.6326409031186137,0,0,1,-0.20828048325548154,-0.6422498739479523 A0.5335514021797401,0.5335514021797401,0,0,0,-0.20196751500389043,-0.6396195564654461 A0.6227913343068865,0.6227913343068865,0,0,0,-0.16154360924778666,-0.7895257011734695 A0.2307227885181779,0.2307227885181779,0,0,1,-0.16586275170313552,-0.7901691369462451 Z" fill="black" />
<circle cx="-0.3399994399510969" cy="-0.722268417605811" r="0.0063477524908374236" fill="black" />
<path d="M-0.3414549934516458,-0.7205241207060883 A0.5299517048209536,0.5299517048209536,0,0,0,-0.20646415047647046,-0.6377648770501366 A0.6278036140104576,0.6278036140104576,0,0,0,-0.20383509486674245,-0.6440784131715329 A0.5370668211830548,0.5370668211830548,0,0,1,-0.3385657990919953,-0.7240183319381763 A0.2511018974919588,0.2511018974919588,0,0,1,-0.34145499345164565,-0.7205241207060882 Z" fill="black" />
<circle cx="-0.3216555094343534" cy="-0.45832599537253316" r="0.012013312766285308" fill="black" />
<path d="M-0.31847803445743383,-0.45542121754837667 A0.6229497818708096,0.6229497818708096,0,0,0,-0.20196723137766426,-0.6396202498882554 A0.5334525983550239,0.5334525983550239,0,0,1,-0.20828077257783342,-0.6422491916917998 A0.6328044027308551,0.6328044027308551,0,0,1,-0.3248069819035611,-0.46121575238063095 A2.8406094151709524,2.8406094151709524,0,0,0,-0.31847803445743117,-0.4554212175483743 Z" fill="black" />
<circle cx="-0.2666318199504031" cy="-0.5999209712221606" r="0.00995754026536142" fill="black" />
<circle cx="-0.06805782256046451" cy="-0.6434649122479456" r="0.01017311819114626" fill="black" />
<path d="M-0.06956851564911476,-0.6467539010581851 A0.4771251719956357,0.4771251719956357,0,0,1,-0.2666372250028281,-0.6034638970046149 A1.066694467898055,1.066694467898055,0,0,1,-0.2666382749280294,-0.5963513807158187 A0.4715013359998322,0.4715013359998322,0,0,0,-0.06652691954514328,-0.6401545904154159 A1.4006063792860592,1.4006063792860592,0,0,1,-0.06956851564911481,-0.6467539010581852 Z" fill="black" />
<circle cx="-0.2782674368142709" cy="-0.7571149292565721" r="0.006113523806348554" fill="black" />
<path d="M-0.2804263219754348,-0.7568043238994888 A1.0813998346224478,1.0813998346224478,0,0,1,-0.27018207058209254,-0.5999344442418767 A0.4742419692817946,0.4742419692817946,0,0,0,-0.2630697146652552,-0.5999341645966667 A1.0529352178771159,1.0529352178771159,0,0,0,-0.2761073073490936,-0.7574475133603467 A0.22114796820247382,0.22114796820247382,0,0,1,-0.2804263219754348,-0.7568043238994884 Z" fill="black" />
<circle cx="-0.43513098294465535" cy="-0.6308380084807547" r="0.007222327607908935" fill="black" />
<path d="M-0.4360591433257465,-0.6284239048101872 A0.47143885604832,0.47143885604832,0,0,0,-0.2666372001951848,-0.5963513771364906 A1.0674146444297086,1.0674146444297086,0,0,0,-0.2666382837371324,-0.6034638934735648 A0.47706119279625403,0.47706119279625403,0,0,1,-0.4342268182217211,-0.6332462208057144 A0.3271191875243014,0.3271191875243014,0,0,1,-0.43605914332574647,-0.6284239048101872 Z" fill="black" />
<circle cx="-0.5128195703455372" cy="-0.4357766204745148" r="0.009574509443072513" fill="black" />
<circle cx="-0.4799843054320052" cy="-0.5999014172562022" r="0.007170333731976725" fill="black" />
<path d="M-0.48253740924590227,-0.5999111698225078 A0.42909830365098706,0.42909830365098706,0,0,1,-0.5159616389650657,-0.43709066684961967 A1.3344770872249896,1.3344770872249896,0,0,0,-0.5096488417426058,-0.43446012370823817 A0.42454426029039055,0.42454426029039055,0,0,0,-0.47741583487993383,-0.5999108650135666 A0.3415229843786497,0.3415229843786497,0,0,1,-0.48253740924590227,-0.5999111698225079 Z" fill="black" />
<circle cx="-0.6478515832293971" cy="-0.5011539359456829" r="0.005759828525382993" fill="black" />
<path d="M-0.6488605743454382,-0.4993595454179647 A1.3118305525568796,1.3118305525568796,0,0,0,-0.5141485312575027,-0.43262128105791176 A0.4268046735790937,0.4268046735790937,0,0,0,-0.511519269575229,-0.4389343986759126 A1.3563094400259725,1.3563094400259725,0,0,1,-0.646862331972583,-0.5029556654042449 A0.2032399358137804,0.2032399358137804,0,0,1,-0.6488605743454383,-0.4993595454179648 Z" fill="black" />
<circle cx="-0.6236483392559501" cy="-0.28049955892896383" r="0.009316698061719163" fill="black" />
<path d="M-0.621436331039336,-0.27799655062181694 A0.42458756599090236,0.42458756599090236,0,0,0,-0.5096484196309083,-0.4344611445178268 A1.3331412682944737,1.3331412682944737,0,0,1,-0.5159620595122805,-0.4370896644099298 A0.42914254345467817,0.42914254345467817,0,0,1,-0.6258518639017345,-0.28297542040127477 A0.9490972482856874,0.9490972482856874,0,0,1,-0.6214363310393362,-0.2779965506218171 Z" fill="black" />
<circle cx="-0.392054497629753" cy="-0.09796325132365892" r="0.014642188264871644" fill="black" />
<circle cx="-0.6128730666710657" cy="-0.20761521666650787" r="0.010172444204260146" fill="black" />
<path d="M-0.6144068069083144,-0.2043236115965139 A4.510448984612617,4.510448984612617,0,0,1,-0.3945242811677878,-0.09335760664191284 A1.067083130324692,1.067083130324692,0,0,0,-0.38960431457047595,-0.10258660322898966 A4.053405788161868,4.053405788161868,0,0,0,-0.6113645687766294,-0.21092186427812987 A0.45166190738638323,0.45166190738638323,0,0,1,-0.6144068069083153,-0.20432361159651433 Z" fill="black" />
<circle cx="-0.5467430564323899" cy="0.12077818469659274" r="0.012013481556026375" fill="black" />
<path d="M-0.5435807020036754,0.1236905314639899 A1.053087249100788,1.053087249100788,0,0,0,-0.3874298583421777,-0.09549492660427938 A4.271491616008392,4.271491616008392,0,0,0,-0.39665953198613213,-0.10041387330545737 A1.0815601974776405,1.0815601974776405,0,0,1,-0.5499092863355886,0.11789561553958894 A0.7489426814921075,0.7489426814921075,0,0,1,-0.5435807020036754,0.12369053146398967 Z" fill="black" />
<circle cx="-0.11507626915352091" cy="0.06330725870889223" r="0.01719811875726826" fill="black" />
<path d="M-0.11178840395381728,0.058114021271470584 A4.054160142031587,4.054160142031587,0,0,0,-0.3896045414908762,-0.10258672276851 A1.0670700666408766,1.0670700666408766,0,0,1,-0.3945240559821356,-0.09335748518196518 A4.511383063636614,4.511383063636614,0,0,1,-0.11836351204391882,0.06849043164650892 A7.760291042104891,7.760291042104891,0,0,0,-0.11178840395381595,0.05811402127146792 Z" fill="black" />
<circle cx="-0.3332809985261642" cy="-4.081515080617006e-17" r="0.015556166080374552" fill="black" />
<path d="M-0.33329257088612596,0.005555677155484773 A80.00416662326454,80.00416662326454,0,0,0,-2.083322554867686e-14,0.006249918621065831 L-9.796919263079821e-15,-0.006249918621065831 A80.00416662326454,80.00416662326454,0,0,0,-0.33329257088611,-0.005555677155484773 A1.3335950443505682,1.3335950443505682,0,0,1,-0.33329257088566955,0.005555677155486674 Z" fill="black" />
<circle cx="-0.3332809985261642" cy="-4.081515080617006e-17" r="0.015556166080374552" fill="black" />
<circle cx="-0.3657640065038874" cy="-0.29265721606393835" r="0.013659947795058767" fill="black" />
<path d="M-0.3705173909417163,-0.2915998391231218 A1.3563094203433954,1.3563094203433954,0,0,1,-0.33882515141276937,-4.6096217104965435e-07 A16006.268128748681,16006.268128748681,0,0,1,-0.32771369743824663,4.6482091420330107e-07 A1.3118305341440775,1.3118305341440775,0,0,0,-0.36099810360967743,-0.2937402691275467 A1.067034865977032,1.067034865977032,0,0,1,-0.3705173909417162,-0.2915998391231216 Z" fill="black" />
<circle cx="-0.5999414926672879" cy="-7.34716428670677e-17" r="0.011201228594082563" fill="black" />
<path d="M-0.5999564922492707,0.004000330453152401 A80.00416662326454,80.00416662326454,0,0,0,-0.33329257088612596,0.005555677155484773 A1.3335950443505682,1.3335950443505682,0,0,0,-0.33329257088566955,-0.005555677155486681 A80.00416662326454,80.00416662326454,0,0,0,-0.5999564922492725,-0.004000330453152401 A0.5334438551086456,0.5334438551086456,0,0,1,-0.5999564922483765,0.004000330453159239 Z" fill="black" />
<circle cx="-0.36576400650388663" cy="0.2926572160639384" r="0.013659947795058778" fill="black" />
<path d="M-0.36099810360967677,0.29374026912754647 A1.3118305341440775,1.3118305341440775,0,0,0,-0.32771370072002837,-4.6482064351520674e-07 A16006.268128194133,16006.268128194133,0,0,1,-0.33882515949329073,4.609628376783803e-07 A1.3563094203433952,1.3563094203433952,0,0,1,-0.37051739094171543,0.2915998391231213 A1.0670348659770363,1.0670348659770363,0,0,1,-0.3609981036096768,0.29374026912754636 Z" fill="black" />
<circle cx="-0.3657640065038874" cy="-0.29265721606393835" r="0.013659947795058767" fill="black" />
<circle cx="-0.09796325132365744" cy="-0.39205449762975025" r="0.014642188264871688" fill="black" />
<path d="M-0.10041387327171003,-0.3966595320040588 A1.081560195466758,1.081560195466758,0,0,1,-0.3668403189027981,-0.2974040773003306 A1.3335645993477963,1.3335645993477963,0,0,1,-0.36470021397603314,-0.2878846792750289 A1.0530872471943888,1.0530872471943888,0,0,0,-0.09549492663831205,-0.387429858323983 A4.2714917415754075,4.2714917415754075,0,0,1,-0.1004138732717097,-0.39665953200405824 Z" fill="black" />
<circle cx="-0.4357766204745146" cy="-0.5128195703455374" r="0.009574509443072513" fill="black" />
<path d="M-0.4389343986792009,-0.5115192695833067 A1.356309429005278,1.356309429005278,0,0,1,-0.3705173909364674,-0.29159983909926906 A1.0670348616871979,1.0670348616871979,0,0,0,-0.3609981036151844,-0.29374026915152474 A1.3118305422471588,1.3118305422471588,0,0,0,-0.43262128105447717,-0.5141485312494384 A0.4268046739283859,0.4268046739283859,0,0,1,-0.4389343986792009,-0.5115192695833068 Z" fill="black" />
<circle cx="-0.5999209712221606" cy="-0.2666318199504028" r="0.009957540265361423" fill="black" />
<path d="M-0.5999341645840832,-0.26306971466516105 A1.0529352096326052,1.0529352096326052,0,0,0,-0.3646993388048155,-0.28788487275044394 A1.3338694988621451,1.3338694988621451,0,0,0,-0.3668411846817565,-0.2974038792471057 A1.0813998259261548,1.0813998259261548,0,0,1,-0.599934444254377,-0.27018207058199817 A0.4742419700252832,0.4742419700252832,0,0,1,-0.599934164584083,-0.26306971466516105 Z" fill="black" />
<circle cx="-0.5999414926672879" cy="-7.34716428670677e-17" r="0.011201228594082563" fill="black" />
<circle cx="-0.64092818299229" cy="-0.20513681229993141" r="0.009574774168498425" fill="black" />
<path d="M-0.6440784131813762,-0.20383509489075108 A0.5370668176745891,0.5370668176745891,0,0,1,-0.6039269355592615,-5.9550410307534e-07 A3556.762339661796,3556.762339661796,0,0,1,-0.5959260504513163,6.045038389856927e-07 A0.5299517014048332,0.5299517014048332,0,0,0,-0.6377648770399003,-0.20646415045226335 A0.6278036196530331,0.6278036196530331,0,0,1,-0.644078413181376,-0.20383509489075113 Z" fill="black" />
<circle cx="-0.7777364095938333" cy="-9.524524045894429e-17" r="0.006914706350861633" fill="black" />
<path d="M-0.7777484130549996,0.002469447481232123 A80.00416662326454,80.00416662326454,0,0,0,-0.5999564922492707,0.004000330453152401 A0.5334438551086456,0.5334438551086456,0,0,0,-0.5999564922483765,-0.004000330453159252 A80.00416662326454,80.00416662326454,0,0,0,-0.7777484130549837,-0.002469447481232123 A0.25402313194932247,0.25402313194932247,0,0,1,-0.7777484130576493,0.002469447481206364 Z" fill="black" />
<circle cx="-0.64092818299229" cy="0.20513681229993128" r="0.009574774168498426" fill="black" />
<path d="M-0.6377648770399003,0.20646415045226335 A0.5299517014048332,0.5299517014048332,0,0,0,-0.5959260497709347,-6.045039416181e-07 A3556.7623396644294,3556.7623396644294,0,0,1,-0.6039269374782527,5.955043889116496e-07 A0.5370668176745891,0.5370668176745891,0,0,1,-0.6440784131813762,0.20383509489075108 A0.6278036196530336,0.6278036196530336,0,0,1,-0.6377648770399,0.2064641504522634 Z" fill="black" />
<circle cx="-0.36576400650388663" cy="0.2926572160639384" r="0.013659947795058778" fill="black" />
<circle cx="-0.59992097122216" cy="0.26663181995040425" r="0.00995754026536142" fill="black" />
<path d="M-0.5999344442543768,0.2701820705819993 A1.0813998259261624,1.0813998259261624,0,0,1,-0.36684118468175597,0.29740387924710565 A1.3338694988621402,1.3338694988621402,0,0,0,-0.36469933880481475,0.2878848727504437 A1.0529352096326121,1.0529352096326121,0,0,0,-0.599934164584083,0.2630697146651626 A0.47424197002528207,0.47424197002528207,0,0,1,-0.5999344442543766,0.2701820705819993 Z" fill="black" />
<circle cx="-0.4357766204745114" cy="0.5128195703455387" r="0.00957450944307254" fill="black" />
<path d="M-0.43262128105447384,0.5141485312494394 A1.3118305422471424,1.3118305422471424,0,0,0,-0.3609981036151835,0.29374026915152446 A1.0670348616872103,1.0670348616872103,0,0,0,-0.3705173909364664,0.2915998390992691 A1.3563094290052602,1.3563094290052602,0,0,1,-0.4389343986791976,0.5115192695833081 A0.42680467392838806,0.42680467392838806,0,0,1,-0.43262128105447384,0.5141485312494396 Z" fill="black" />
<circle cx="-0.09796325132365659" cy="0.39205449762975025" r="0.014642188264871691" fill="black" />
<path d="M-0.09549492663831155,0.38742985832398236 A1.0530872471943897,1.0530872471943897,0,0,0,-0.36470021397603203,0.28788467927502825 A1.3335645993478018,1.3335645993478018,0,0,1,-0.3668403189027971,0.2974040773003301 A1.0815601954667593,1.0815601954667593,0,0,1,-0.10041387327170959,0.39665953200405824 A4.27149174157538,4.27149174157538,0,0,1,-0.09549492663831138,0.38742985832398213 Z" fill="black" />
<circle cx="-0.09796325132365744" cy="-0.39205449762975025" r="0.014642188264871688" fill="black" />
<circle cx="0.06330725870888926" cy="-0.11507626915351424" r="0.01719811875726829" fill="black" />
<path d="M0.06849043164650936,-0.11836351204391171 A4.5113830636369325,4.5113830636369325,0,0,1,-0.09335748518196274,-0.394524055982135 A1.0670700666408806,1.0670700666408806,0,0,1,-0.10258672276850872,-0.3896045414908742 A4.054160142031852,4.054160142031852,0,0,0,0.05811402127146703,-0.11178840395381151 A7.760291042105208,7.760291042105208,0,0,0,0.06849043164650759,-0.11836351204391349 Z" fill="black" />
<circle cx="0.12077818469659737" cy="-0.5467430564323845" r="0.01201348155602646" fill="black" />
<path d="M0.11789561553959349,-0.5499092863355837 A1.081560197477649,1.081560197477649,0,0,1,-0.10041387330545593,-0.39665953198612647 A4.271491616008629,4.271491616008629,0,0,0,-0.09549492660427905,-0.3874298583421738 A1.0530872491007965,1.0530872491007965,0,0,0,0.12369053146399389,-0.5435807020036698 A0.7489426814921201,0.7489426814921201,0,0,1,0.11789561553959327,-0.5499092863355837 Z" fill="black" />
<circle cx="-0.20761521666650332" cy="-0.6128730666710649" r="0.010172444204260197" fill="black" />
<path d="M-0.2109218642781312,-0.6113645687766402 A4.053405788162106,4.053405788162106,0,0,0,-0.10258660322898772,-0.38960431457046973 A1.0670831303247004,1.0670831303247004,0,0,0,-0.09335760664191128,-0.3945242811677836 A4.510448984612914,4.510448984612914,0,0,1,-0.2043236115965117,-0.6144068069083173 A0.4516619073863852,0.4516619073863852,0,0,1,-0.21092186427812917,-0.6113645687766358 Z" fill="black" />
<circle cx="-0.4357766204745146" cy="-0.5128195703455374" r="0.009574509443072513" fill="black" />
<circle cx="-0.2804995589289631" cy="-0.6236483392559495" r="0.009316698061719182" fill="black" />
<path d="M-0.28297542040127394,-0.6258518639017339 A0.42914254345467845,0.42914254345467845,0,0,1,-0.4370896644099295,-0.5159620595122807 A1.333141268294458,1.333141268294458,0,0,1,-0.4344611445178268,-0.5096484196309086 A0.4245875659909028,0.4245875659909028,0,0,0,-0.27799655062181616,-0.6214363310393354 A0.9490972482857,0.9490972482857,0,0,1,-0.2829754204012737,-0.6258518639017336 Z" fill="black" />
<circle cx="-0.5011539359456825" cy="-0.6478515832293973" r="0.005759828525382997" fill="black" />
<path d="M-0.5029556654042444,-0.6468623319725831 A1.3563094400259657,1.3563094400259657,0,0,1,-0.43893439867591244,-0.5115192695752294 A0.4268046735790937,0.4268046735790937,0,0,0,-0.4326212810579121,-0.5141485312575034 A1.3118305525568728,1.3118305525568728,0,0,0,-0.49935954541796446,-0.6488605743454386 A0.2032399358137806,0.2032399358137806,0,0,1,-0.5029556654042445,-0.6468623319725834 Z" fill="black" />
<circle cx="-0.599901417256202" cy="-0.4799843054320054" r="0.007170333731976725" fill="black" />
<path d="M-0.5999108650135664,-0.4774158348799341 A0.4245442602903897,0.4245442602903897,0,0,0,-0.43446012370823783,-0.5096488417426058 A1.334477087224994,1.334477087224994,0,0,0,-0.4370906668496195,-0.5159616389650659 A0.429098303650986,0.429098303650986,0,0,1,-0.5999111698225077,-0.48253740924590255 A0.34152298437864925,0.34152298437864925,0,0,1,-0.5999108650135665,-0.4774158348799341 Z" fill="black" />
<circle cx="-0.5999209712221606" cy="-0.2666318199504028" r="0.009957540265361423" fill="black" />
<circle cx="-0.6308380084807543" cy="-0.43513098294465546" r="0.007222327607908937" fill="black" />
<path d="M-0.6332462208057139,-0.43422681822172104 A0.47706119279625353,0.47706119279625353,0,0,1,-0.6034638934735643,-0.26663828373713194 A1.0674146444297177,1.0674146444297177,0,0,0,-0.5963513771364903,-0.2666372001951842 A0.47143885604831953,0.47143885604831953,0,0,0,-0.6284239048101865,-0.4360591433257466 A0.327119187524302,0.327119187524302,0,0,1,-0.633246220805714,-0.4342268182217211 Z" fill="black" />
<circle cx="-0.7571149292565721" cy="-0.2782674368142706" r="0.006113523806348556" fill="black" />
<path d="M-0.7574475133603479,-0.2761073073490936 A1.0529352178771167,1.0529352178771167,0,0,0,-0.5999341645966668,-0.263069714665255 A0.47424196928179513,0.47424196928179513,0,0,0,-0.5999344442418766,-0.2701820705820923 A1.0813998346224487,1.0813998346224487,0,0,1,-0.756804323899488,-0.2804263219754346 A0.22114796820247426,0.22114796820247426,0,0,1,-0.7574475133603473,-0.27610730734909356 Z" fill="black" />
<circle cx="-0.6434649122479444" cy="-0.06805782256046362" r="0.010173118191146288" fill="black" />
<path d="M-0.6401545904154151,-0.0665269195451425 A0.4715013359998339,0.4715013359998339,0,0,0,-0.5963513807158191,-0.26663827492802916 A1.0666944678980428,1.0666944678980428,0,0,1,-0.603463897004615,-0.26663722500282794 A0.4771251719956377,0.4771251719956377,0,0,1,-0.6467539010581842,-0.06956851564911384 A1.4006063792860886,1.4006063792860886,0,0,1,-0.6401545904154143,-0.06652691954514212 Z" fill="black" />
<circle cx="-0.64092818299229" cy="-0.20513681229993141" r="0.009574774168498425" fill="black" />
<circle cx="-0.4583259953725315" cy="-0.3216555094343534" r="0.012013312766285335" fill="black" />
<path d="M-0.4612157523806296,-0.3248069819035611 A0.632804402730858,0.632804402730858,0,0,1,-0.642249191691799,-0.20828077257783417 A0.5334525983550251,0.5334525983550251,0,0,1,-0.6396202498882546,-0.20196723137766492 A0.6229497818708127,0.6229497818708127,0,0,0,-0.455421217548375,-0.3184780344574341 A2.8406094151709365,2.8406094151709365,0,0,0,-0.4612157523806304,-0.32480698190356216 Z" fill="black" />
<circle cx="-0.7222684176058101" cy="-0.33999943995109805" r="0.006347752490837431" fill="black" />
<path d="M-0.7240183319381757,-0.33856579909199674 A0.5370668211830559,0.5370668211830559,0,0,1,-0.6440784131715319,-0.2038350948667432 A0.627803614010459,0.627803614010459,0,0,0,-0.637764877050136,-0.20646415047647082 A0.5299517048209546,0.5299517048209546,0,0,0,-0.7205241207060877,-0.3414549934516468 A0.251101897491959,0.251101897491959,0,0,1,-0.7240183319381756,-0.3385657990919967 Z" fill="black" />
<circle cx="-0.7898377601155324" cy="-0.163708459211778" r="0.006113727428868226" fill="black" />
<path d="M-0.7895257011734691,-0.16154360924778688 A0.622791334306888,0.622791334306888,0,0,0,-0.6396195564654451,-0.20196751500389065 A0.5335514021797425,0.5335514021797425,0,0,0,-0.6422498739479513,-0.20828048325548207 A0.6326409031186151,0.6326409031186151,0,0,1,-0.7901691369462446,-0.1658627517031359 A0.2307227885181784,0.2307227885181784,0,0,1,-0.7895257011734692,-0.16154360924778685 Z" fill="black" />
<circle cx="-0.7777364095938333" cy="-9.524524045894429e-17" r="0.006914706350861633" fill="black" />
<circle cx="-0.8097019040131449" cy="-0.12341129428956624" r="0.005760168383887082" fill="black" />
<path d="M-0.8114960452539959,-0.12242188778993272 A0.2548522331864907,0.2548522331864907,0,0,1,-0.7801939696935827,-4.7550739936155876e-07 A1306.5145801969948,1306.5145801969948,0,0,1,-0.7752548419621212,4.848432126891566e-07 A0.2532388550224267,0.2532388550224267,0,0,0,-0.8078994574230213,-0.12442005565056947 A0.32843045948523764,0.32843045948523764,0,0,1,-0.8114960452539959,-0.12242188778993274 Z" fill="black" />
<circle cx="-0.8823294781706582" cy="-1.0805419712350497e-16" r="0.0038761571091441445" fill="black" />
<path d="M-0.8823371117699336,0.0013842817043325795 A80.00416662326454,80.00416662326454,0,0,0,-0.7777484130549996,0.002469447481232123 A0.25402313194932247,0.25402313194932247,0,0,0,-0.7777484130576493,-0.002469447481206381 A80.00416662326454,80.00416662326454,0,0,0,-0.8823371117698998,-0.0013842817043325795 A0.12551699644577263,0.12551699644577263,0,0,1,-0.8823371117747237,0.0013842817042795516 Z" fill="black" />
<circle cx="-0.8097019040131449" cy="0.12341129428956615" r="0.005760168383887082" fill="black" />
<path d="M-0.8078994574230212,0.12442005565056936 A0.2532388550224267,0.2532388550224267,0,0,0,-0.7752548414338036,-4.848433165849101e-07 A1306.5145801925187,1306.5145801925187,0,0,1,-0.7801939689168151,4.7550724957545754e-07 A0.2548522331864907,0.2548522331864907,0,0,1,-0.8114960452539959,0.12242188778993264 A0.3284304594852381,0.3284304594852381,0,0,1,-0.8078994574230212,0.1244200556505694 Z" fill="black" />
<circle cx="-0.64092818299229" cy="0.20513681229993128" r="0.009574774168498426" fill="black" />
<circle cx="-0.7898377601155326" cy="0.16370845921177812" r="0.00611372742886822" fill="black" />
<path d="M-0.7901691369462449,0.16586275170313625 A0.6326409031186179,0.6326409031186179,0,0,1,-0.6422498739479515,0.20828048325548199 A0.5335514021797402,0.5335514021797402,0,0,0,-0.6396195564654453,0.2019675150038907 A0.622791334306891,0.622791334306891,0,0,0,-0.7895257011734694,0.1615436092477872 A0.2307227885181779,0.2307227885181779,0,0,1,-0.7901691369462449,0.16586275170313625 Z" fill="black" />
<circle cx="-0.7222684176058088" cy="0.3399994399510989" r="0.006347752490837455" fill="black" />
<path d="M-0.7205241207060862,0.3414549934516472 A0.5299517048209497,0.5299517048209497,0,0,0,-0.6377648770501358,0.2064641504764707 A0.6278036140104679,0.6278036140104679,0,0,0,-0.6440784131715319,0.20383509486674312 A0.5370668211830507,0.5370668211830507,0,0,1,-0.7240183319381743,0.33856579909199713 A0.25110189749196077,0.25110189749196077,0,0,1,-0.7205241207060862,0.34145499345164726 Z" fill="black" />
<circle cx="-0.4583259953725316" cy="0.3216555094343532" r="0.012013312766285335" fill="black" />
<path d="M-0.4554212175483754,0.31847803445743367 A0.6229497818708134,0.6229497818708134,0,0,0,-0.6396202498882544,0.2019672313776647 A0.5334525983550247,0.5334525983550247,0,0,1,-0.6422491916917987,0.20828077257783367 A0.6328044027308588,0.6328044027308588,0,0,1,-0.46121575238062945,0.32480698190356094 A2.8406094151709254,2.8406094151709254,0,0,0,-0.4554212175483756,0.3184780344574343 Z" fill="black" />
<circle cx="-0.59992097122216" cy="0.26663181995040425" r="0.00995754026536142" fill="black" />
<circle cx="-0.6434649122479473" cy="0.06805782256046651" r="0.010173118191146215" fill="black" />
<path d="M-0.6467539010581872,0.06956851564911648 A0.4771251719956335,0.4771251719956335,0,0,1,-0.6034638970046144,0.2666372250028295 A1.0666944678980774,1.0666944678980774,0,0,1,-0.5963513807158186,0.2666382749280305 A0.4715013359998298,0.4715013359998298,0,0,0,-0.6401545904154179,0.06652691954514511 A1.400606379286008,1.400606379286008,0,0,1,-0.646753901058187,0.06956851564911637 Z" fill="black" />
<circle cx="-0.7571149292565714" cy="0.278267436814273" r="0.00611352380634855" fill="black" />
<path d="M-0.7568043238994883,0.28042632197543726 A1.081399834622459,1.081399834622459,0,0,1,-0.5999344442418765,0.27018207058209387 A0.47424196928179346,0.47424196928179346,0,0,0,-0.5999341645966663,0.2630697146652563 A1.0529352178771267,1.0529352178771267,0,0,0,-0.7574475133603474,0.27610730734909605 A0.2211479682024732,0.2211479682024732,0,0,1,-0.7568043238994878,0.28042632197543726 Z" fill="black" />
<circle cx="-0.6308380084807531" cy="0.4351309829446571" r="0.0072223276079089425" fill="black" />
<path d="M-0.628423904810185,0.43605914332574813 A0.47143885604831787,0.47143885604831787,0,0,0,-0.5963513771364892,0.2666372001951858 A1.067414644429721,1.067414644429721,0,0,0,-0.6034638934735641,0.2666382837371337 A0.4770611927962519,0.4770611927962519,0,0,1,-0.6332462208057127,0.4342268182217228 A0.3271191875243027,0.3271191875243027,0,0,1,-0.628423904810185,0.43605914332574824 Z" fill="black" />
<circle cx="-0.4357766204745114" cy="0.5128195703455387" r="0.00957450944307254" fill="black" />
<circle cx="-0.5999014172561997" cy="0.4799843054320073" r="0.007170333731976739" fill="black" />
<path d="M-0.5999111698225056,0.48253740924590444 A0.42909830365098844,0.42909830365098844,0,0,1,-0.43709066684961617,0.5159616389650672 A1.3344770872250027,1.3344770872250027,0,0,0,-0.43446012370823484,0.5096488417426074 A0.42454426029039194,0.42454426029039194,0,0,0,-0.5999108650135644,0.4774158348799364 A0.3415229843786506,0.3415229843786506,0,0,1,-0.5999111698225055,0.48253740924590444 Z" fill="black" />
<circle cx="-0.5011539359456787" cy="0.6478515832293994" r="0.005759828525383016" fill="black" />
<path d="M-0.49935954541796,0.6488605743454395 A1.3118305525568768,1.3118305525568768,0,0,0,-0.43262128105790865,0.5141485312575045 A0.4268046735790955,0.4268046735790955,0,0,0,-0.4389343986759092,0.5115192695752304 A1.3563094400259692,1.3563094400259692,0,0,1,-0.5029556654042413,0.6468623319725866 A0.20323993581378158,0.20323993581378158,0,0,1,-0.4993595454179606,0.6488605743454405 Z" fill="black" />
<circle cx="-0.28049955892895945" cy="0.6236483392559509" r="0.00931669806171919" fill="black" />
<path d="M-0.2779965506218125,0.6214363310393365 A0.4245875659909048,0.4245875659909048,0,0,0,-0.4344611445178232,0.50964841963091 A1.3331412682944763,1.3331412682944763,0,0,1,-0.43708966440992625,0.5159620595122822 A0.4291425434546805,0.4291425434546805,0,0,1,-0.28297542040127055,0.6258518639017351 A0.9490972482856959,0.9490972482856959,0,0,1,-0.27799655062181255,0.6214363310393365 Z" fill="black" />
<circle cx="-0.09796325132365659" cy="0.39205449762975025" r="0.014642188264871691" fill="black" />
<circle cx="-0.2076152166665046" cy="0.6128730666710643" r="0.010172444204260197" fill="black" />
<path d="M-0.20432361159651302,0.6144068069083166 A4.5104489846126645,4.5104489846126645,0,0,1,-0.09335760664191017,0.3945242811677834 A1.0670831303247028,1.0670831303247028,0,0,0,-0.10258660322898866,0.38960431457047273 A4.053405788161903,4.053405788161903,0,0,0,-0.21092186427812942,0.6113645687766325 A0.451661907386386,0.451661907386386,0,0,1,-0.20432361159651183,0.6144068069083142 Z" fill="black" />
<circle cx="0.12077818469659825" cy="0.5467430564323845" r="0.012013481556026455" fill="black" />
<path d="M0.12369053146399545,0.5435807020036701 A1.0530872491007979,1.0530872491007979,0,0,0,-0.09549492660427789,0.38742985834217447 A4.271491616008596,4.271491616008596,0,0,0,-0.1004138733054516,0.39665953198612236 A1.0815601974776499,1.0815601974776499,0,0,1,0.11789561553959449,0.5499092863355837 A0.7489426814921192,0.7489426814921192,0,0,1,0.12369053146399545,0.54358070200367 Z" fill="black" />
<circle cx="0.06330725870889141" cy="0.11507626915351517" r="0.017198118757268285" fill="black" />
<path d="M0.058114021271467475,0.1117884039538124 A4.0541601420317415,4.0541601420317415,0,0,0,-0.10258672276850644,0.3896045414908691 A1.0670700666408823,1.0670700666408823,0,0,1,-0.09335748518196307,0.3945240559821339 A4.511383063636797,4.511383063636797,0,0,1,0.0684904316465067,0.11836351204391571 A7.76029104210503,7.76029104210503,0,0,0,0.05811402127146881,0.1117884039538124 Z" fill="black" />
<circle cx="-6.122272620925524e-17" cy="0.3332809985261642" r="0.015556166080374552" fill="black" />
<path d="M0.005555677155484773,0.3332925708861176 A80.00416662326452,80.00416662326452,0,0,0,0.006249918621065831,-8.88193560189577e-15 L-0.006249918621065831,-1.8680242625686623e-14 A80.00416662326454,80.00416662326454,0,0,0,-0.005555677155484773,0.3332925708860834 A1.3335950443505682,1.3335950443505682,0,0,1,0.005555677155486712,0.33329257088566955 Z" fill="black" />
<circle cx="-6.122272620925524e-17" cy="0.3332809985261642" r="0.015556166080374552" fill="black" />
<circle cx="-0.2926572160639384" cy="0.3657640065038872" r="0.013659947795058771" fill="black" />
<path d="M-0.291599839123122,0.3705173909417161 A1.3563094203433956,1.3563094203433956,0,0,1,-4.6096209041991047e-07,0.33882515141276937 A16006.268128535397,16006.268128535397,0,0,1,4.648190952138975e-07,0.32771371912804614 A1.3118305341440775,1.3118305341440775,0,0,0,-0.2937402691275463,0.3609981036096772 A1.0670348659770323,1.0670348659770323,0,0,1,-0.2915998391231214,0.370517390941716 Z" fill="black" />
<circle cx="-1.1020746430060199e-16" cy="0.5999414926672879" r="0.011201228594082563" fill="black" />
<path d="M0.004000330453152401,0.5999564922492957 A80.00416662326452,80.00416662326452,0,0,0,0.005555677155484773,0.3332925708861176 A1.3335950443505682,1.3335950443505682,0,0,0,-0.005555677155486273,0.33329257088566955 A80.00416662326454,80.00416662326454,0,0,0,-0.004000330453152401,0.5999564922493347 A0.5334438551086456,0.5334438551086456,0,0,1,0.00400033045315932,0.5999564922483765 Z" fill="black" />
<circle cx="0.29265721606393835" cy="0.3657640065038867" r="0.013659947795058778" fill="black" />
<path d="M0.29374026912754553,0.36099810360967655 A1.3118305341440777,1.3118305341440777,0,0,0,-4.648206432815883e-07,0.32771370072002837 A16006.268128194137,16006.268128194137,0,0,1,4.609628376783803e-07,0.3388251594951892 A1.3563094203433956,1.3563094203433956,0,0,1,0.2915998391231211,0.37051739094171543 A1.0670348659770372,1.0670348659770372,0,0,1,0.2937402691275459,0.36099810360967655 Z" fill="black" />
<circle cx="-0.2926572160639384" cy="0.3657640065038872" r="0.013659947795058771" fill="black" />
<circle cx="-0.39205449762975053" cy="0.09796325132365741" r="0.014642188264871684" fill="black" />
<path d="M-0.3966595320040587,0.10041387327171003 A1.0815601954667575,1.0815601954667575,0,0,1,-0.29740407730033036,0.36684031890279767 A1.3335645993477983,1.3335645993477983,0,0,1,-0.2878846792750282,0.3647002139760325 A1.0530872471943886,1.0530872471943886,0,0,0,-0.38742985832398347,0.0954949266383115 A4.271491741575385,4.271491741575385,0,0,1,-0.3966595320040591,0.10041387327171014 Z" fill="black" />
<circle cx="-0.5128195703455373" cy="0.43577662047451465" r="0.009574509443072513" fill="black" />
<path d="M-0.5115192695833066,0.43893439867920114 A1.356309429005282,1.356309429005282,0,0,1,-0.291599839099269,0.3705173909364672 A1.0670348616871967,1.0670348616871967,0,0,0,-0.29374026915152496,0.36099810361518414 A1.311830542247163,1.311830542247163,0,0,0,-0.5141485312494377,0.43262128105447717 A0.4268046739283849,0.4268046739283849,0,0,1,-0.5115192695833071,0.43893439867920125 Z" fill="black" />
<circle cx="-0.2666318199504041" cy="0.5999209712221606" r="0.009957540265361412" fill="black" />
<path d="M-0.2630697146651624,0.5999341645840827 A1.0529352096326101,1.0529352096326101,0,0,0,-0.28788487275044417,0.3646993388048153 A1.333869498862137,1.333869498862137,0,0,0,-0.2974038792471055,0.3668411846817563 A1.0813998259261597,1.0813998259261597,0,0,1,-0.27018207058199906,0.5999344442543767 A0.4742419700252815,0.4742419700252815,0,0,1,-0.2630697146651623,0.5999341645840828 Z" fill="black" />
<circle cx="-1.1020746430060199e-16" cy="0.5999414926672879" r="0.011201228594082563" fill="black" />
<circle cx="-0.20513681229993108" cy="0.6409281829922908" r="0.009574774168498409" fill="black" />
<path d="M-0.2038350948907507,0.6440784131813769 A0.537066817674589,0.537066817674589,0,0,1,-5.955041057249268e-07,0.6039269355592616 A3556.7623397829093,3556.7623397829093,0,0,1,6.045042937330436e-07,0.5959260451319289 A0.529951701404833,0.529951701404833,0,0,0,-0.20646415045226285,0.6377648770399009 A0.6278036196530299,0.6278036196530299,0,0,1,-0.2038350948907507,0.644078413181377 Z" fill="black" />
<circle cx="-1.42867860688416e-16" cy="0.7777364095938333" r="0.006914706350861633" fill="black" />
<path d="M0.002469447481232123,0.7777484130549979 A80.00416662326452,80.00416662326452,0,0,0,0.004000330453152401,0.5999564922492957 A0.5334438551086456,0.5334438551086456,0,0,0,-0.0040003304531593155,0.5999564922483765 A80.00416662326454,80.00416662326454,0,0,0,-0.002469447481232123,0.7777484130549748 A0.25402313194932247,0.25402313194932247,0,0,1,0.0024694474812063452,0.7777484130576493 Z" fill="black" />
<circle cx="0.20513681229993122" cy="0.6409281829922902" r="0.009574774168498425" fill="black" />
<path d="M0.20646415045226305,0.6377648770399005 A0.529951701404833,0.529951701404833,0,0,0,-6.045039414791594e-07,0.5959260497709348 A3556.762339674961,3556.762339674961,0,0,1,5.955043889116496e-07,0.603926937477036 A0.537066817674589,0.537066817674589,0,0,1,0.20383509489075066,0.6440784131813764 A0.6278036196530334,0.6278036196530334,0,0,1,0.20646415045226318,0.6377648770399003 Z" fill="black" />
<circle cx="0.29265721606393835" cy="0.3657640065038867" r="0.013659947795058778" fill="black" />
<circle cx="0.26663181995040636" cy="0.5999209712221603" r="0.009957540265361397" fill="black" />
<path d="M0.2701820705820015,0.5999344442543771 A1.0813998259261706,1.0813998259261706,0,0,1,0.29740387924710565,0.3668411846817554 A1.3338694988621191,1.3338694988621191,0,0,0,0.287884872750443,0.364699338804815 A1.0529352096326203,1.0529352096326203,0,0,0,0.2630697146651644,0.5999341645840818 A0.47424197002527974,0.47424197002527974,0,0,1,0.2701820705820015,0.5999344442543766 Z" fill="black" />
<circle cx="0.5128195703455386" cy="0.4357766204745116" r="0.009574509443072535" fill="black" />
<path d="M0.5141485312494393,0.4326212810544745 A1.311830542247143,1.311830542247143,0,0,0,0.2937402691515242,0.3609981036151837 A1.06703486168721,1.06703486168721,0,0,0,0.2915998390992689,0.3705173909364671 A1.3563094290052604,1.3563094290052604,0,0,1,0.5115192695833081,0.4389343986791985 A0.426804673928388,0.426804673928388,0,0,1,0.5141485312494392,0.43262128105447417 Z" fill="black" />
<circle cx="0.39205449762975025" cy="0.0979632513236567" r="0.014642188264871691" fill="black" />
<path d="M0.387429858323983,0.0954949266383116 A1.0530872471943904,1.0530872471943904,0,0,0,0.2878846792750287,0.3647002139760327 A1.3335645993477991,1.3335645993477991,0,0,1,0.29740407730033014,0.3668403189027978 A1.0815601954667595,1.0815601954667595,0,0,1,0.3966595320040588,0.10041387327170914 A4.271491741575383,4.271491741575383,0,0,1,0.3874298583239826,0.09549492663831138 Z" fill="black" />
<circle cx="-0.39205449762975053" cy="0.09796325132365741" r="0.014642188264871684" fill="black" />
<circle cx="-0.11507626915351443" cy="-0.0633072587088892" r="0.01719811875726829" fill="black" />
<path d="M-0.11836351204391216,-0.06849043164650626 A4.511383063636929,4.511383063636929,0,0,1,-0.3945240559821328,0.09335748518196363 A1.067070066640883,1.067070066640883,0,0,1,-0.3896045414908734,0.10258672276850866 A4.05416014203185,4.05416014203185,0,0,0,-0.11178840395380973,-0.058114021271467475 A7.760291042105162,7.760291042105162,0,0,0,-0.11836351204391171,-0.0684904316465067 Z" fill="black" />
<circle cx="-0.5467430564323841" cy="-0.12077818469659786" r="0.012013481556026466" fill="black" />
<path d="M-0.549909286335583,-0.11789561553959405 A1.0815601974776468,1.0815601974776468,0,0,1,-0.39665953198612725,0.10041387330545537 A4.271491616008687,4.271491616008687,0,0,0,-0.3874298583421738,0.09549492660427861 A1.0530872491007945,1.0530872491007945,0,0,0,-0.5435807020036696,-0.12369053146399478 A0.7489426814921217,0.7489426814921217,0,0,1,-0.549909286335583,-0.11789561553959416 Z" fill="black" />
<circle cx="-0.6128730666710652" cy="0.20761521666650334" r="0.010172444204260184" fill="black" />
<path d="M-0.6113645687766391,0.2109218642781303 A4.053405788162103,4.053405788162103,0,0,0,-0.3896043145704762,0.10258660322899038 A1.0670831303246944,1.0670831303246944,0,0,0,-0.39452428116778493,0.09335760664191217 A4.510448984612912,4.510448984612912,0,0,1,-0.6144068069083155,0.2043236115965117 A0.4516619073863847,0.4516619073863847,0,0,1,-0.6113645687766363,0.21092186427812912 Z" fill="black" />
<circle cx="-0.5128195703455373" cy="0.43577662047451465" r="0.009574509443072513" fill="black" />
<circle cx="-0.6236483392559498" cy="0.28049955892896317" r="0.009316698061719178" fill="black" />
<path d="M-0.6258518639017341,0.2829754204012744 A0.4291425434546789,0.4291425434546789,0,0,1,-0.5159620595122807,0.4370896644099298 A1.3331412682944594,1.3331412682944594,0,0,1,-0.5096484196309082,0.4344611445178266 A0.42458756599090297,0.42458756599090297,0,0,0,-0.6214363310393354,0.2779965506218164 A0.949097248285697,0.949097248285697,0,0,1,-0.6258518639017341,0.2829754204012744 Z" fill="black" />
<circle cx="-0.6478515832293972" cy="0.5011539359456826" r="0.005759828525382997" fill="black" />
<path d="M-0.6468623319725826,0.5029556654042442 A1.356309440025967,1.356309440025967,0,0,1,-0.5115192695752282,0.4389343986759122 A0.4268046735790941,0.4268046735790941,0,0,0,-0.514148531257503,0.4326212810579123 A1.3118305525568743,1.3118305525568743,0,0,0,-0.6488605743454376,0.4993595454179647 A0.20323993581378125,0.20323993581378125,0,0,1,-0.6468623319725832,0.5029556654042445 Z" fill="black" />
<circle cx="-0.47998430543200593" cy="0.599901417256202" r="0.007170333731976714" fill="black" />
<path d="M-0.4774158348799345,0.5999108650135664 A0.4245442602903909,0.4245442602903909,0,0,0,-0.5096488417426057,0.4344601237082377 A1.3344770872249754,1.3344770872249754,0,0,0,-0.5159616389650655,0.43709066684961906 A0.42909830365098744,0.42909830365098744,0,0,1,-0.48253740924590277,0.5999111698225078 A0.3415229843786485,0.3415229843786485,0,0,1,-0.4774158348799346,0.5999108650135665 Z" fill="black" />
<circle cx="-0.2666318199504041" cy="0.5999209712221606" r="0.009957540265361412" fill="black" />
<circle cx="-0.43513098294465596" cy="0.630838008480755" r="0.007222327607908917" fill="black" />
<path d="M-0.43422681822172154,0.6332462208057146 A0.47706119279625436,0.47706119279625436,0,0,1,-0.2666382837371332,0.6034638934735645 A1.0674146444296988,1.0674146444296988,0,0,0,-0.2666372001951858,0.5963513771364907 A0.4714388560483201,0.4714388560483201,0,0,0,-0.4360591433257469,0.6284239048101872 A0.3271191875242997,0.3271191875242997,0,0,1,-0.4342268182217217,0.6332462208057146 Z" fill="black" />
<circle cx="-0.2782674368142729" cy="0.7571149292565718" r="0.0061135238063485435" fill="black" />
<path d="M-0.27610730734909605,0.7574475133603477 A1.0529352178771287,1.0529352178771287,0,0,0,-0.2630697146652563,0.5999341645966666 A0.4742419692817926,0.4742419692817926,0,0,0,-0.2701820705820937,0.5999344442418768 A1.0813998346224618,1.0813998346224618,0,0,1,-0.2804263219754368,0.756804323899487 A0.22114796820247315,0.22114796820247315,0,0,1,-0.276107307349096,0.7574475133603472 Z" fill="black" />
<circle cx="-0.06805782256046485" cy="0.643464912247944" r="0.010173118191146295" fill="black" />
<path d="M-0.06652691954514342,0.6401545904154149 A0.47150133599983407,0.47150133599983407,0,0,0,-0.2666382749280305,0.5963513807158192 A1.0666944678980301,1.0666944678980301,0,0,1,-0.26663722500282927,0.6034638970046154 A0.47712517199563764,0.47712517199563764,0,0,1,-0.06956851564911459,0.6467539010581842 A1.400606379286105,1.400606379286105,0,0,1,-0.06652691954514345,0.6401545904154149 Z" fill="black" />
<circle cx="-0.20513681229993108" cy="0.6409281829922908" r="0.009574774168498409" fill="black" />
<circle cx="-0.32165550943435267" cy="0.45832599537253216" r="0.012013312766285334" fill="black" />
<path d="M-0.32480698190356017,0.4612157523806296 A0.6328044027308585,0.6328044027308585,0,0,1,-0.20828077257783328,0.6422491916917996 A0.5334525983550222,0.5334525983550222,0,0,1,-0.20196723137766454,0.6396202498882555 A0.6229497818708135,0.6229497818708135,0,0,0,-0.31847803445743317,0.4554212175483756 A2.840609415170881,2.840609415170881,0,0,0,-0.32480698190355906,0.4612157523806286 Z" fill="black" />
<circle cx="-0.3399994399510972" cy="0.7222684176058108" r="0.0063477524908374236" fill="black" />
<path d="M-0.3385657990919958,0.7240183319381763 A0.5370668211830552,0.5370668211830552,0,0,1,-0.2038350948667429,0.6440784131715327 A0.6278036140104557,0.6278036140104557,0,0,0,-0.2064641504764706,0.6377648770501367 A0.5299517048209539,0.5299517048209539,0,0,0,-0.3414549934516456,0.7205241207060882 A0.2511018974919588,0.2511018974919588,0,0,1,-0.3385657990919957,0.7240183319381762 Z" fill="black" />
<circle cx="-0.16370845921177696" cy="0.7898377601155326" r="0.006113727428868226" fill="black" />
<path d="M-0.1615436092477861,0.7895257011734694 A0.6227913343068837,0.6227913343068837,0,0,0,-0.20196751500389076,0.6396195564654461 A0.5335514021797428,0.5335514021797428,0,0,0,-0.20828048325548162,0.6422498739479523 A0.6326409031186102,0.6326409031186102,0,0,1,-0.16586275170313491,0.7901691369462449 A0.2307227885181788,0.2307227885181788,0,0,1,-0.16154360924778607,0.7895257011734694 Z" fill="black" />
<circle cx="-1.42867860688416e-16" cy="0.7777364095938333" r="0.006914706350861633" fill="black" />
<circle cx="-0.1234112942895664" cy="0.8097019040131448" r="0.005760168383887088" fill="black" />
<path d="M-0.12242188778993285,0.8114960452539959 A0.2548522331864903,0.2548522331864903,0,0,1,-4.755073992045324e-07,0.7801939696935827 A1306.5145801925187,1306.5145801925187,0,0,1,4.848432126891566e-07,0.7752548419635001 A0.25323885502242627,0.25323885502242627,0,0,0,-0.12442005565056959,0.8078994574230213 A0.3284304594852375,0.3284304594852375,0,0,1,-0.12242188778993279,0.8114960452539959 Z" fill="black" />
<circle cx="-1.6208129568525692e-16" cy="0.8823294781706582" r="0.0038761571091441445" fill="black" />
<path d="M0.0013842817043325795,0.8823371117699023 A80.00416662326452,80.00416662326452,0,0,0,0.002469447481232123,0.7777484130549979 A0.25402313194932247,0.25402313194932247,0,0,0,-0.002469447481206411,0.7777484130576493 A80.00416662326454,80.00416662326454,0,0,0,-0.0013842817043325795,0.8823371117699088 A0.12551699644577263,0.12551699644577263,0,0,1,0.0013842817042793987,0.8823371117747237 Z" fill="black" />
<circle cx="0.12341129428956611" cy="0.8097019040131449" r="0.005760168383887082" fill="black" />
<path d="M0.12442005565056938,0.807899457423021 A0.2532388550224264,0.2532388550224264,0,0,0,-4.848433167787113e-07,0.7752548414338036 A1306.5145801880424,1306.5145801880424,0,0,1,4.75507476949133e-07,0.7801939696611493 A0.2548522331864905,0.2548522331864905,0,0,1,0.12242188778993263,0.8114960452539958 A0.328430459485239,0.328430459485239,0,0,1,0.12442005565056946,0.8078994574230209 Z" fill="black" />
<circle cx="0.20513681229993122" cy="0.6409281829922902" r="0.009574774168498425" fill="black" />
<circle cx="0.16370845921177737" cy="0.7898377601155325" r="0.006113727428868226" fill="black" />
<path d="M0.1658627517031357,0.7901691369462451 A0.632640903118614,0.632640903118614,0,0,1,0.2082804832554822,0.6422498739479517 A0.5335514021797423,0.5335514021797423,0,0,0,0.2019675150038908,0.6396195564654457 A0.6227913343068869,0.6227913343068869,0,0,0,0.16154360924778655,0.7895257011734695 A0.23072278851817846,0.23072278851817846,0,0,1,0.1658627517031357,0.7901691369462447 Z" fill="black" />
<circle cx="0.33999943995109877" cy="0.7222684176058088" r="0.006347752490837455" fill="black" />
<path d="M0.34145499345164726,0.7205241207060862 A0.5299517048209487,0.5299517048209487,0,0,0,0.2064641504764706,0.637764877050136 A0.6278036140104685,0.6278036140104685,0,0,0,0.20383509486674278,0.6440784131715324 A0.5370668211830499,0.5370668211830499,0,0,1,0.33856579909199724,0.7240183319381743 A0.25110189749196116,0.25110189749196116,0,0,1,0.34145499345164726,0.7205241207060862 Z" fill="black" />
<circle cx="0.32165550943435317" cy="0.4583259953725317" r="0.012013312766285334" fill="black" />
<path d="M0.31847803445743417,0.45542121754837556 A0.6229497818708124,0.6229497818708124,0,0,0,0.20196723137766492,0.6396202498882545 A0.5334525983550247,0.5334525983550247,0,0,1,0.20828077257783353,0.6422491916917988 A0.6328044027308576,0.6328044027308576,0,0,1,0.32480698190356083,0.4612157523806296 A2.840609415170939,2.840609415170939,0,0,0,0.3184780344574343,0.4554212175483756 Z" fill="black" />
<circle cx="0.26663181995040636" cy="0.5999209712221603" r="0.009957540265361397" fill="black" />
<circle cx="0.06805782256046855" cy="0.643464912247947" r="0.010173118191146219" fill="black" />
<path d="M0.06956851564911859,0.6467539010581869 A0.4771251719956333,0.4771251719956333,0,0,1,0.2666372250028319,0.6034638970046149 A1.0666944678980608,1.0666944678980608,0,0,1,0.2666382749280327,0.5963513807158195 A0.47150133599982974,0.47150133599982974,0,0,0,0.0665269195451472,0.6401545904154178 A1.4006063792860297,1.4006063792860297,0,0,1,0.06956851564911859,0.6467539010581872 Z" fill="black" />
<circle cx="0.27826743681427607" cy="0.757114929256571" r="0.0061135238063485305" fill="black" />
<path d="M0.28042632197544015,0.7568043238994877 A1.0813998346224658,1.0813998346224658,0,0,1,0.27018207058209587,0.599934444241877 A0.4742419692817896,0.4742419692817896,0,0,0,0.2630697146652586,0.5999341645966672 A1.052935217877132,1.052935217877132,0,0,0,0.27610730734909916,0.7574475133603465 A0.2211479682024725,0.2211479682024725,0,0,1,0.2804263219754401,0.7568043238994873 Z" fill="black" />
<circle cx="0.4351309829446584" cy="0.6308380084807536" r="0.007222327607908911" fill="black" />
<path d="M0.4360591433257496,0.6284239048101858 A0.471438856048318,0.471438856048318,0,0,0,0.26663720019518783,0.5963513771364899 A1.0674146444297035,1.0674146444297035,0,0,0,0.2666382837371355,0.6034638934735645 A0.47706119279625203,0.47706119279625203,0,0,1,0.4342268182217241,0.6332462208057132 A0.3271191875243002,0.3271191875243002,0,0,1,0.43605914332574947,0.6284239048101858 Z" fill="black" />
<circle cx="0.5128195703455386" cy="0.4357766204745116" r="0.009574509443072535" fill="black" />
<circle cx="0.47998430543200776" cy="0.5999014172561998" r="0.007170333731976731" fill="black" />
<path d="M0.4825374092459045,0.5999111698225057 A0.42909830365098933,0.42909830365098933,0,0,1,0.5159616389650669,0.4370906668496162 A1.3344770872249807,1.3344770872249807,0,0,0,0.5096488417426074,0.4344601237082346 A0.42454426029039294,0.42454426029039294,0,0,0,0.4774158348799364,0.5999108650135648 A0.3415229843786487,0.3415229843786487,0,0,1,0.4825374092459046,0.5999111698225057 Z" fill="black" />
<circle cx="0.6478515832293992" cy="0.5011539359456789" r="0.005759828525383016" fill="black" />
<path d="M0.64886057434544,0.49935954541796046 A1.3118305525568768,1.3118305525568768,0,0,0,0.5141485312575048,0.4326212810579091 A0.4268046735790959,0.4268046735790959,0,0,0,0.5115192695752304,0.4389343986759092 A1.3563094400259699,1.3563094400259699,0,0,1,0.6468623319725854,0.5029556654042409 A0.2032399358137817,0.2032399358137817,0,0,1,0.6488605743454403,0.49935954541796057 Z" fill="black" />
<circle cx="0.6236483392559508" cy="0.28049955892895967" r="0.009316698061719189" fill="black" />
<path d="M0.6214363310393365,0.2779965506218125 A0.42458756599090436,0.42458756599090436,0,0,0,0.5096484196309097,0.4344611445178236 A1.3331412682944717,1.3331412682944717,0,0,1,0.515962059512282,0.4370896644099267 A0.4291425434546803,0.4291425434546803,0,0,1,0.6258518639017352,0.2829754204012706 A0.9490972482856956,0.9490972482856956,0,0,1,0.6214363310393365,0.27799655062181267 Z" fill="black" />
<circle cx="0.39205449762975025" cy="0.0979632513236567" r="0.014642188264871691" fill="black" />
<circle cx="0.6128730666710643" cy="0.20761521666650476" r="0.010172444204260197" fill="black" />
<path d="M0.6144068069083095,0.2043236115965099 A4.510448984612691,4.510448984612691,0,0,1,0.39452428116778426,0.09335760664191106 A1.0670831303247044,1.0670831303247044,0,0,0,0.3896043145704725,0.10258660322898827 A4.05340578816193,4.05340578816193,0,0,0,0.6113645687766316,0.21092186427812898 A0.45166190738638695,0.45166190738638695,0,0,1,0.6144068069083136,0.2043236115965119 Z" fill="black" />
<circle cx="0.5467430564323846" cy="-0.12077818469659798" r="0.012013481556026455" fill="black" />
<path d="M0.5435807020036701,-0.12369053146399522 A1.0530872491007972,1.0530872491007972,0,0,0,0.38742985834217436,0.09549492660427783 A4.2714916160086105,4.2714916160086105,0,0,0,0.39665953198612813,0.10041387330545559 A1.0815601974776492,1.0815601974776492,0,0,1,0.5499092863355839,-0.11789561553959471 A0.7489426814921188,0.7489426814921188,0,0,1,0.5435807020036701,-0.12369053146399533 Z" fill="black" />
<circle cx="0.11507626915351758" cy="-0.063307258708895" r="0.017198118757268264" fill="black" />
<path d="M0.11178840395381284,-0.05811402127147325 A4.0541601420315665,4.0541601420315665,0,0,0,0.38960454149086954,0.10258672276850644 A1.0670700666408894,1.0670700666408894,0,0,1,0.3945240559821327,0.0933574851819633 A4.511383063636586,4.511383063636586,0,0,1,0.11836351204391615,-0.06849043164651158 A7.760291042105349,7.760291042105349,0,0,0,0.1117884039538124,-0.05811402127147147 Z" fill="black" />
</svg>