<?xml version="1.0" encoding="UTF-8"?>
<svg xmlns="http://www.w3.org/2000/svg" xmlns:xlink="http://www.w3.org/1999/xlink"
     width="800" height="800.0" viewBox="-1.05 -1.05 2.1 2.1">
<defs>
</defs>
<circle cx="0" cy="0" r="1" fill="none" stroke-width="0.006" stroke="black" />
<circle cx="0" cy="0" r="0.0125" fill="black" />
<circle cx="0.3332809985261642" cy="-0.0" r="0.011111547200267538" fill="black" />
<path d="M0.3332851646590508,-0.003333443327733221 A133.33583332395838,133.33583332395838,0,0,0,8.164465074591531e-15,-0.0037499824219651146 L0.0,0.0037499824219651146 A133.33583332395838,133.33583332395838,0,0,0,0.3332851646590508,0.003333443327733221 A1.3335950443505682,1.3335950443505682,0,0,1,0.3332851646565884,-0.0033334433277396654 Z" fill="black" />
<circle cx="0.3332809985261642" cy="-0.0" r="0.011111547200267538" fill="black" />
<circle cx="0.4944232405019355" cy="0.22840420260174651" r="0.00879221474356782" fill="black" />
<path d="M0.4964330216857977,0.22669948498515302 A1.5578738048632115,1.5578738048632115,0,0,1,0.33616588631438704,-0.0016629134751841024 A2.667523485916432,2.667523485916432,0,0,0,0.3303919435661793,0.0016701288459803898 A1.5223011749930093,1.5223011749930093,0,0,0,0.49241635983129495,0.23011929646829143 A0.7113034365289109,0.7113034365289109,0,0,1,0.49643302168579745,0.2266994849851527 Z" fill="black" />
<circle cx="0.4944232405019355" cy="-0.22840420260174651" r="0.00879221474356782" fill="black" />
<path d="M0.49241635983129495,-0.23011929646829143 A1.5223011749930093,1.5223011749930093,0,0,0,0.33039194356617974,-0.0016701288459798347 A2.667523485916432,2.667523485916432,0,0,0,0.3361658863143864,0.0016629134751839914 A1.5578738048632115,1.5578738048632115,0,0,1,0.4964330216857977,-0.22669948498515302 A0.7113034365289109,0.7113034365289109,0,0,1,0.492416359831295,-0.23011929646829143 Z" fill="black" />
<circle cx="0.4944232405019355" cy="0.22840420260174651" r="0.00879221474356782" fill="black" />
<circle cx="0.4569105889693305" cy="0.4523529084104488" r="0.007332619499253845" fill="black" />
<path d="M0.45910655998139593,0.45233461738088304 A0.6515948230717303,0.6515948230717303,0,0,1,0.4969029551298061,0.22928738347833777 A7.122466899686388,7.122466899686388,0,0,0,0.4919330898771086,0.22751834383650138 A0.6452879470399846,0.6452879470399846,0,0,0,0.4547072311442849,0.4523788123572497 A0.6419209668374003,0.6419209668374003,0,0,1,0.459106559981396,0.4523346173808831 Z" fill="black" />
<circle cx="0.6969044469977448" cy="0.2099401607699558" r="0.00587811650813316" fill="black" />
<path d="M0.6969090076342466,0.20817535647825625 A1.1105484965034236,1.1105484965034236,0,0,0,0.4939500170732355,0.22580619099126764 A0.790372104667589,0.790372104667589,0,0,0,0.4949039977459533,0.23099451216898162 A1.1293613011903492,1.1293613011903492,0,0,1,0.6969091031482176,0.21170218794914408 A0.33738753023744755,0.33738753023744755,0,0,1,0.6969090076342472,0.20817535647825622 Z" fill="black" />
<circle cx="0.4944232405019355" cy="-0.22840420260174651" r="0.00879221474356782" fill="black" />
<circle cx="0.6969044469977448" cy="-0.2099401607699558" r="0.00587811650813316" fill="black" />
<path d="M0.6969091031482176,-0.21170218794914408 A1.1293613011903492,1.1293613011903492,0,0,1,0.49490399774595345,-0.23099451216898137 A0.7903721046675894,0.7903721046675894,0,0,0,0.4939500170732354,-0.22580619099126792 A1.1105484965034236,1.1105484965034236,0,0,0,0.6969090076342466,-0.20817535647825625 A0.33738753023744755,0.33738753023744755,0,0,1,0.696909103148218,-0.21170218794914406 Z" fill="black" />
<circle cx="0.4569105889693305" cy="-0.4523529084104488" r="0.007332619499253845" fill="black" />
<path d="M0.4547072311442849,-0.4523788123572497 A0.6452879470399846,0.6452879470399846,0,0,0,0.49193308987710216,-0.22751834383649897 A7.122466899686368,7.122466899686368,0,0,0,0.4969029551298141,-0.22928738347834088 A0.6515948230717303,0.6515948230717303,0,0,1,0.45910655998139593,-0.45233461738088304 A0.6419209668374005,0.6419209668374005,0,0,1,0.45470723114428513,-0.4523788123572495 Z" fill="black" />
<circle cx="0.4569105889693305" cy="0.4523529084104488" r="0.007332619499253845" fill="black" />
<circle cx="0.30905112622469844" cy="0.5899232216973602" r="0.006955974923518158" fill="black" />
<path d="M0.3107615648620931,0.5911105939127224 A0.47333875187123986,0.47333875187123986,0,0,1,0.4580280179106899,0.4542417897679466 A1.795989444611894,1.795989444611894,0,0,1,0.4557902613930347,0.45045382310357196 A0.47000176371631186,0.47000176371631186,0,0,0,0.3073303433819782,0.5887345697286639 A0.900313437404237,0.900313437404237,0,0,1,0.31076156486209294,0.5911105939127222 Z" fill="black" />
<circle cx="0.5940257400940011" cy="0.5383599225945327" r="0.004466275173122288" fill="black" />
<path d="M0.5947936344646522,0.5372612949917412 A1.707043779503804,1.707043779503804,0,0,0,0.4579961412701673,0.4504380391263507 A0.47293833099620886,0.47293833099620886,0,0,0,0.4558353237863255,0.4542703652819473 A1.751901527496423,1.751901527496423,0,0,1,0.5932649995517179,0.5394622546693948 A0.2247185453271948,0.2247185453271948,0,0,1,0.5947936344646504,0.53726129499174 Z" fill="black" />
<circle cx="0.6969044469977448" cy="0.2099401607699558" r="0.00587811650813316" fill="black" />
<circle cx="0.7781631488820808" cy="0.3138296443281656" r="0.00369966335078477" fill="black" />
<path d="M0.7789345727216632,0.31303348819321875 A0.47321463738057135,0.47321463738057135,0,0,1,0.6984306374430268,0.20906334429100598 A0.4434699756032517,0.4434699756032517,0,0,0,0.6953760499846426,0.21082634707498327 A0.46987939281889146,0.46987939281889146,0,0,0,0.777394577694345,0.31463217579957814 A0.1901756611539131,0.1901756611539131,0,0,1,0.7789345727216632,0.31303348819321875 Z" fill="black" />
<circle cx="0.7949943809338609" cy="0.103277279562536" r="0.004466471722621864" fill="black" />
<path d="M0.7942308454744728,0.10217287806875403 A0.3310325913546512,0.3310325913546512,0,0,0,0.6953736224550904,0.20905537860139914 A1.4119201392000313,1.4119201392000313,0,0,0,0.6984282563579876,0.21081835119226078 A0.3326845015713313,0.3326845015713313,0,0,1,0.7957597322947371,0.10437383197872757 A0.30077400060788534,0.30077400060788534,0,0,1,0.7942308454744726,0.10217287806875414 Z" fill="black" />
<circle cx="0.6969044469977448" cy="-0.2099401607699558" r="0.00587811650813316" fill="black" />
<circle cx="0.7949943809338609" cy="-0.103277279562536" r="0.004466471722621864" fill="black" />
<path d="M0.7957597322947371,-0.10437383197872757 A0.3326845015713313,0.3326845015713313,0,0,1,0.6984282563579872,-0.21081835119226064 A1.4119201392000316,1.4119201392000316,0,0,0,0.6953736224550902,-0.2090553786013989 A0.3310325913546512,0.3310325913546512,0,0,0,0.7942308454744726,-0.10217287806875414 A0.3007740006078852,0.3007740006078852,0,0,1,0.7957597322947372,-0.10437383197872746 Z" fill="black" />
<circle cx="0.7781631488820808" cy="-0.3138296443281656" r="0.00369966335078477" fill="black" />
<path d="M0.777394577694345,-0.31463217579957814 A0.46987939281889146,0.46987939281889146,0,0,0,0.6953760499846429,-0.21082634707498335 A0.44346997560325163,0.44346997560325163,0,0,0,0.6984306374430268,-0.20906334429100598 A0.47321463738057135,0.47321463738057135,0,0,1,0.7789345727216632,-0.31303348819321875 A0.19017566115391304,0.19017566115391304,0,0,1,0.777394577694345,-0.31463217579957814 Z" fill="black" />
<circle cx="0.4569105889693305" cy="-0.4523529084104488" r="0.007332619499253845" fill="black" />
<circle cx="0.594025740094001" cy="-0.5383599225945327" r="0.004466275173122289" fill="black" />
<path d="M0.5932649995517185,-0.5394622546693957 A1.7519015274964267,1.7519015274964267,0,0,1,0.45583532378632574,-0.454270365281948 A0.4729383309962092,0.4729383309962092,0,0,0,0.45799614127016847,-0.45043803912635183 A1.7070437795038076,1.7070437795038076,0,0,0,0.5947936344646502,-0.5372612949917401 A0.2247185453271947,0.2247185453271947,0,0,1,0.5932649995517183,-0.5394622546693953 Z" fill="black" />
<circle cx="0.30905112622469844" cy="-0.5899232216973602" r="0.006955974923518158" fill="black" />
<path d="M0.30733034338197796,-0.5887345697286643 A0.47000176371631186,0.47000176371631186,0,0,0,0.4557902613930349,-0.4504538231035723 A1.7959894446118954,1.7959894446118954,0,0,1,0.4580280179106895,-0.45424178976794627 A0.47333875187123986,0.47333875187123986,0,0,1,0.3107615648620931,-0.5911105939127224 A0.900313437404237,0.900313437404237,0,0,1,0.30733034338197796,-0.5887345697286642 Z" fill="black" />
<circle cx="0.30905112622469844" cy="0.5899232216973602" r="0.006955974923518158" fill="black" />
<circle cx="0.10488823366409084" cy="0.6161125763451166" r="0.007617546896352624" fill="black" />
<path d="M0.10564174635770907,0.618264448146439 A0.4964077055584833,0.4964077055584833,0,0,1,0.30888321511436,0.5919988284745906 A0.7807736512856783,0.7807736512856783,0,0,1,0.30922531770680006,0.587839296441271 A0.4927387844093715,0.4927387844093715,0,0,0,0.10412953099068917,0.6139513340901256 A2.9056208696314925,2.9056208696314925,0,0,1,0.1056417463577084,0.6182644481464369 Z" fill="black" />
<circle cx="0.3749614875485536" cy="0.7266803352821236" r="0.0041417446646204534" fill="black" />
<path d="M0.3760783551068112,0.7261360425461953 A11.06792405584581,11.06792405584581,0,0,1,0.31093967367930553,0.589036015778956 A0.4181418655372315,0.4181418655372315,0,0,0,0.3071666451902293,0.5908200246183205 A9.492087970781407,9.492087970781407,0,0,0,0.37384784296849105,0.7272315329648809 A0.20264032178499009,0.20264032178499009,0,0,1,0.3760783551068098,0.7261360425461926 Z" fill="black" />
<circle cx="0.5940257400940011" cy="0.5383599225945327" r="0.004466275173122288" fill="black" />
<circle cx="0.6037913812875308" cy="0.6386850743842019" r="0.0028439667955217755" fill="black" />
<path d="M0.6046113097172641,0.6384539283834836 A0.2810911714719764,0.2810911714719764,0,0,1,0.595357544338686,0.5384740049964181 A0.3669469635173767,0.3669469635173767,0,0,0,0.5926871491337019,0.5382501809652471 A0.2799109859959489,0.2799109859959489,0,0,0,0.6029703249864808,0.638921730120186 A0.14589278710007286,0.14589278710007286,0,0,1,0.6046113097172641,0.6384539283834836 Z" fill="black" />
<circle cx="0.6968819638982467" cy="0.5153389924565166" r="0.0031097656405903134" fill="black" />
<path d="M0.6968843527195449,0.5144042668601753 A0.24092654940752875,0.24092654940752875,0,0,0,0.5934544730388771,0.5371438107759734 A0.5802139453688302,0.5802139453688302,0,0,0,0.5945966358666614,0.5395679867746718 A0.24180037497317677,0.24180037497317677,0,0,1,0.6968844506652068,0.5162701117238107 A0.1785042380488927,0.1785042380488927,0,0,1,0.6968843527195449,0.5144042668601752 Z" fill="black" />
<circle cx="0.7781631488820808" cy="0.3138296443281656" r="0.00369966335078477" fill="black" />
<circle cx="0.7797425247791506" cy="0.4055532742296838" r="0.0028441017101577316" fill="black" />
<path d="M0.7805616316202012,0.40532179861040124 A0.17835976490506103,0.17835976490506103,0,0,1,0.7792369082381833,0.31409659843856064 A1.2629677790828882,1.2629677790828882,0,0,0,0.7770824420696696,0.31356197118204454 A0.17788386396581002,0.17788386396581002,0,0,0,0.7789205464280695,0.4057895858285737 A0.1884258809441587,0.1884258809441587,0,0,1,0.7805616316202012,0.40532179861040113 Z" fill="black" />
<circle cx="0.8574298405899475" cy="0.3026294221340179" r="0.002165368766559095" fill="black" />
<path d="M0.8574319082326859,0.30197908307428906 A0.2855702945646432,0.2855702945646432,0,0,0,0.7778577364806125,0.31276035883928527 A0.22396119773710735,0.22396119773710735,0,0,0,0.7784726539224657,0.31489327001954026 A0.28679878975350526,0.28679878975350526,0,0,1,0.8574319502306869,0.30327828648567956 A0.10101813348865779,0.10101813348865779,0,0,1,0.857431908232686,0.30197908307428906 Z" fill="black" />
<circle cx="0.7949943809338609" cy="0.103277279562536" r="0.004466471722621864" fill="black" />
<circle cx="0.8831539154869718" cy="0.13799426773071202" r="0.002512459295418691" fill="black" />
<path d="M0.8833861274858873,0.13727760948940504 A0.7321161338388897,0.7321161338388897,0,0,1,0.7955683604940538,0.10206787489971947 A0.23409223971311946,0.23409223971311946,0,0,0,0.7944262888092174,0.10449218356908681 A0.7241637039780474,0.7241637039780474,0,0,0,0.8829262197879246,0.13871319215538902 A0.11379554808585611,0.11379554808585611,0,0,1,0.8833861274858874,0.1372776094894051 Z" fill="black" />
<circle cx="0.8175375992852245" cy="-0.016249178453001733" r="0.0041421029744319274" fill="black" />
<path d="M0.8164199056274384,-0.01679992796653107 A0.2276162797784369,0.2276162797784369,0,0,0,0.7936552617320907,0.10339034484580839 A1.0552944872017802,1.0552944872017802,0,0,1,0.7963257949323629,0.10316656726531881 A0.2283960650973192,0.2283960650973192,0,0,1,0.8186507537295512,-0.01570455027109506 A0.4419313972774606,0.4419313972774606,0,0,1,0.8164199056274384,-0.016799927966531014 Z" fill="black" />
<circle cx="0.7949943809338609" cy="-0.103277279562536" r="0.004466471722621864" fill="black" />
<circle cx="0.8175375992852245" cy="0.016249178453001733" r="0.0041421029744319274" fill="black" />
<path d="M0.8186507537295512,0.015704550271095144 A0.2283960650973192,0.2283960650973192,0,0,1,0.7963257949323634,-0.10316656726531888 A1.0552944872017807,1.0552944872017807,0,0,1,0.7936552617320908,-0.10339034484580867 A0.2276162797784369,0.2276162797784369,0,0,0,0.8164199056274384,0.01679992796653107 A0.4419313972774605,0.4419313972774605,0,0,1,0.8186507537295512,0.01570455027109513 Z" fill="black" />
<circle cx="0.8831539154869718" cy="-0.13799426773071202" r="0.002512459295418691" fill="black" />
<path d="M0.8829262197879246,-0.13871319215538902 A0.7241637039780474,0.7241637039780474,0,0,0,0.7944262888092173,-0.10449218356908674 A0.23409223971311946,0.23409223971311946,0,0,0,0.7955683604940537,-0.10206787489971943 A0.7321161338388897,0.7321161338388897,0,0,1,0.8833861274858873,-0.13727760948940504 A0.11379554808585611,0.11379554808585611,0,0,1,0.8829262197879234,-0.1387131921553885 Z" fill="black" />
<circle cx="0.7781631488820808" cy="-0.3138296443281656" r="0.00369966335078477" fill="black" />
<circle cx="0.8574298405899475" cy="-0.3026294221340179" r="0.002165368766559095" fill="black" />
<path d="M0.8574319502306869,-0.30327828648567956 A0.28679878975350526,0.28679878975350526,0,0,1,0.7784726539224657,-0.31489327001954037 A0.22396119773710718,0.22396119773710718,0,0,0,0.7778577364806125,-0.31276035883928544 A0.2855702945646432,0.2855702945646432,0,0,0,0.857431908232686,-0.30197908307428906 A0.1010181334886579,0.1010181334886579,0,0,1,0.8574319502306869,-0.30327828648567956 Z" fill="black" />
<circle cx="0.7797425247791506" cy="-0.4055532742296838" r="0.0028441017101577316" fill="black" />
<path d="M0.7789205464280695,-0.4057895858285737 A0.17788386396581002,0.17788386396581002,0,0,0,0.7770824420696703,-0.3135619711820446 A1.2629677790828941,1.2629677790828941,0,0,0,0.7792369082381826,-0.31409659843856064 A0.17835976490506103,0.17835976490506103,0,0,1,0.7805616316202012,-0.4053217986104011 A0.18842588094415866,0.18842588094415866,0,0,1,0.7789205464280695,-0.40578958582857366 Z" fill="black" />
<circle cx="0.594025740094001" cy="-0.5383599225945327" r="0.004466275173122289" fill="black" />
<circle cx="0.6968819638982467" cy="-0.5153389924565166" r="0.0031097656405903134" fill="black" />
<path d="M0.6968844506652067,-0.5162701117238108 A0.24180037497317672,0.24180037497317672,0,0,1,0.5945966358666614,-0.5395679867746718 A0.5802139453688291,0.5802139453688291,0,0,0,0.5934544730388768,-0.537143810775973 A0.2409265494075286,0.2409265494075286,0,0,0,0.6968843527195447,-0.514404266860175 A0.1785042380488927,0.1785042380488927,0,0,1,0.6968844506652067,-0.5162701117238108 Z" fill="black" />
<circle cx="0.6037913812875307" cy="-0.6386850743842019" r="0.0028439667955217785" fill="black" />
<path d="M0.6029703249864811,-0.6389217301201862 A0.27991098599594827,0.27991098599594827,0,0,0,0.5926871491337017,-0.5382501809652471 A0.36694696351737555,0.36694696351737555,0,0,0,0.5953575443386863,-0.5384740049964183 A0.28109117147197576,0.28109117147197576,0,0,1,0.6046113097172646,-0.6384539283834836 A0.1458927871000729,0.1458927871000729,0,0,1,0.602970324986481,-0.638921730120186 Z" fill="black" />
<circle cx="0.30905112622469844" cy="-0.5899232216973602" r="0.006955974923518158" fill="black" />
<circle cx="0.3749614875485535" cy="-0.7266803352821236" r="0.0041417446646204534" fill="black" />
<path d="M0.3738478429684484,-0.7272315329647925 A9.492087970781233,9.492087970781233,0,0,0,0.3071666451902324,-0.5908200246183282 A0.41814186553723254,0.41814186553723254,0,0,0,0.3109396736792953,-0.589036015778934 A11.06792405584563,11.06792405584563,0,0,1,0.37607835510681653,-0.7261360425462025 A0.2026403217849929,0.2026403217849929,0,0,1,0.37384784296845525,-0.7272315329648062 Z" fill="black" />
<circle cx="0.10488823366409084" cy="-0.6161125763451166" r="0.007617546896352624" fill="black" />
<path d="M0.10412953099068997,-0.6139513340901253 A0.4927387844093715,0.4927387844093715,0,0,0,0.30922531770680006,-0.5878392964412706 A0.7807736512856783,0.7807736512856783,0,0,1,0.30888321511436,-0.5919988284745904 A0.4964077055584833,0.4964077055584833,0,0,1,0.10564174635770998,-0.6182644481464387 A2.905620869631486,2.905620869631486,0,0,1,0.10412953099068867,-0.6139513340901215 Z" fill="black" />
<circle cx="-0.16664049926308203" cy="-0.28862981132230275" r="0.011111547200267535" fill="black" />
<path d="M-0.1695294289333873,-0.28696669763532157 A133.33583332395634,133.33583332395634,0,0,0,-0.0032475800411333466,0.0018749912110536116 L0.003247580041175979,-0.001874991211010979 A133.33583332396032,133.33583332396032,0,0,0,-0.16375573572338453,-0.29030014095923207 A1.333595044350566,1.333595044350566,0,0,1,-0.16952942893217848,-0.2869666976332237 Z" fill="black" />
<circle cx="-0.16664049926308203" cy="-0.28862981132230275" r="0.011111547200267535" fill="black" />
<circle cx="-0.049407778466726476" cy="-0.5423851877969723" r="0.008792214743567825" fill="black" />
<path d="M-0.05188899782090628,-0.5432733505499485 A1.5578738048632064,1.5578738048632064,0,0,1,-0.1695230684709983,-0.29029674069637923 A2.6675234859164436,2.6675234859164436,0,0,0,-0.1637495977748764,-0.28696288075701615 A1.5223011749930044,1.5223011749930044,0,0,0,-0.04691902327310338,-0.5415047250871066 A0.7113034365289119,0.7113034365289119,0,0,1,-0.05188899782090639,-0.5432733505499479 Z" fill="black" />
<circle cx="-0.4450154620352081" cy="-0.3139809851952258" r="0.008792214743567823" fill="black" />
<path d="M-0.4454973365581907,-0.3113854286188149 A1.5223011749930033,1.5223011749930033,0,0,0,-0.16664234579130216,-0.28529275191103687 A2.6675234859164507,2.6675234859164507,0,0,0,-0.16664281784338852,-0.29195965417156317 A1.557873804863206,1.557873804863206,0,0,1,-0.4445440238648895,-0.3165738655647954 A0.711303436528912,0.711303436528912,0,0,1,-0.44549733655819057,-0.3113854286188149 Z" fill="black" />
<circle cx="-0.049407778466726476" cy="-0.5423851877969723" r="0.008792214743567825" fill="black" />
<circle cx="0.16329381567455964" cy="-0.6218726315107751" r="0.007332619499253835" fill="black" />
<path d="M0.16217998967226155,-0.6237652526784152 A0.6515948230717316,0.6515948230717316,0,0,1,-0.04988277870539644,-0.54497427409714 A7.122466899686057,7.122466899686057,0,0,0,-0.048929879349177696,-0.5397857247139859 A0.645287947039986,0.645287947039986,0,0,0,0.16441792806307043,-0.6199774196340587 A0.6419209668373953,0.6419209668373953,0,0,1,0.16217998967226155,-0.6237652526784154 Z" fill="black" />
<circle cx="-0.1666387109974996" cy="-0.7085070354953701" r="0.005878116508133177" fill="black" />
<path d="M-0.1681693566650706,-0.7076285829765884 A1.1105484965034251,1.1105484965034251,0,0,0,-0.05142111080637857,-0.5406763584808127 A0.7903721046675887,0.7903721046675887,0,0,0,-0.047404883199844816,-0.5440966905669627 A1.1293613011903516,1.1293613011903516,0,0,1,-0.16511507877340081,-0.7093920814295575 A0.33738753023744916,0.33738753023744916,0,0,1,-0.16816935666507069,-0.7076285829765885 Z" fill="black" />
<circle cx="-0.4450154620352081" cy="-0.3139809851952258" r="0.008792214743567823" fill="black" />
<circle cx="-0.5302657360002435" cy="-0.4985668747254146" r="0.005878116508133161" fill="black" />
<path d="M-0.5317940243748152,-0.4976898934804138 A1.1293613011903507,1.1293613011903507,0,0,1,-0.44749911454610825,-0.3131021783979812 A0.7903721046675893,0.7903721046675893,0,0,0,-0.44252890626685626,-0.3148701674895449 A1.1105484965034245,1.1105484965034245,0,0,0,-0.5287396509691749,-0.4994532264983332 A0.3373875302374477,0.3373875302374477,0,0,1,-0.5317940243748154,-0.49768989348041426 Z" fill="black" />
<circle cx="-0.6202044046438887" cy="-0.1695197231003253" r="0.007332619499253859" fill="black" />
<path d="M-0.6191251592073532,-0.1675986072768081 A0.6452879470399846,0.6452879470399846,0,0,0,-0.4430032105279216,-0.3122673808774943 A7.122466899686694,7.122466899686694,0,0,0,-0.4470201764244095,-0.3156868906188022 A0.65159482307173,0.65159482307173,0,0,1,-0.6212865496536559,-0.17143063529753122 A0.641920966837405,0.641920966837405,0,0,1,-0.6191251592073532,-0.1675986072768081 Z" fill="black" />
<circle cx="0.16329381567455964" cy="-0.6218726315107751" r="0.007332619499253835" fill="black" />
<circle cx="0.3563629331599246" cy="-0.5626077372274599" r="0.006955974923518158" fill="black" />
<path d="M0.3565360083434785,-0.5646827066467387 A0.4733387518712395,0.4733387518712395,0,0,1,0.16437092044420767,-0.6237847940396651 A1.7959894446118516,1.7959894446118516,0,0,1,0.1622093233429982,-0.6199528567157052 A0.4700017637163115,0.4700017637163115,0,0,0,0.3561939217801354,-0.560523169586919 A0.9003134374042463,0.9003134374042463,0,0,1,0.3565360083434784,-0.5646827066467394 Z" fill="black" />
<circle cx="0.16922049929928873" cy="-0.7836213427205257" r="0.004466275173122244" fill="black" />
<path d="M0.16788511270064688,-0.7837370449515364 A1.707043779503748,1.707043779503748,0,0,0,0.1610927140791858,-0.6218553127383895 A0.4729383309962071,0.4729383309962071,0,0,0,0.1654920146274413,-0.6219001529822379 A1.7519015274963636,1.7519015274963636,0,0,1,0.17055551715066763,-0.7835136881226509 A0.2247185453271918,0.2247185453271918,0,0,1,0.1678851127006468,-0.7837370449515346 Z" fill="black" />
<circle cx="-0.1666387109974996" cy="-0.7085070354953701" r="0.005878116508133177" fill="black" />
<circle cx="-0.11729712999221102" cy="-0.830823877384856" r="0.003699663350784803" fill="black" />
<path d="M-0.11837233335024533,-0.831093871959546 A0.4732146373805693,0.4732146373805693,0,0,1,-0.1681611515653682,-0.7093903469525227 A0.4434699756032576,0.4434699756032576,0,0,0,-0.16510705263830885,-0.7076264980074691 A0.46987939281888924,0.46987939281888924,0,0,0,-0.1162178317567632,-0.8305595409473664 A0.19017566115391532,0.19017566115391532,0,0,1,-0.11837233335024527,-0.831093871959546 Z" fill="black" />
<circle cx="-0.30805644273202565" cy="-0.7401239695358769" r="0.004466471722621833" fill="black" />
<path d="M-0.30863111475192423,-0.7389105276844656 A0.331032591354654,0.331032591354654,0,0,0,-0.16663954256095792,-0.7067389114684163 A1.4119201391999427,1.4119201391999427,0,0,0,-0.1666400804625443,-0.7102657883230169 A0.33268450157133383,0.33268450157133383,0,0,1,-0.30748947616346095,-0.7413350594653125 A0.30077400060787823,0.30077400060787823,0,0,1,-0.30863111475192423,-0.7389105276844656 Z" fill="black" />
<circle cx="-0.5302657360002435" cy="-0.4985668747254146" r="0.005878116508133161" fill="black" />
<circle cx="-0.48693793820183523" cy="-0.636846689973339" r="0.004466471722621844" fill="black" />
<path d="M-0.4882702561312765,-0.6369612274865832 A0.332684501571332,0.332684501571332,0,0,1,-0.531788175895441,-0.49944743713075634 A1.411920139199987,1.411920139199987,0,0,0,-0.5287340798941297,-0.49768353286701705 A0.3310325913546521,0.3310325913546521,0,0,0,-0.48559973072254864,-0.6367376496157096 A0.3007740006078816,0.3007740006078816,0,0,1,-0.48827025613127656,-0.6369612274865832 Z" fill="black" />
<circle cx="-0.6608660188898667" cy="-0.5169942330566922" r="0.0036996633507847612" fill="black" />
<path d="M-0.6611767459375788,-0.5159273651477898 A0.4698793928188961,0.4698793928188961,0,0,0,-0.5302689973463323,-0.4968001509324861 A0.443469975603248,0.443469975603248,0,0,0,-0.530269485877657,-0.5003270026615168 A0.47321463738057606,0.47321463738057606,0,0,1,-0.6605622393714152,-0.518060383766329 A0.19017566115391182,0.19017566115391182,0,0,1,-0.6611767459375786,-0.5159273651477898 Z" fill="black" />
<circle cx="-0.6202044046438887" cy="-0.1695197231003253" r="0.007332619499253859" fill="black" />
<circle cx="-0.7632462393932905" cy="-0.2452614201259919" r="0.00446627517312227" fill="black" />
<path d="M-0.7638205167023885,-0.24405143345325575 A1.7519015274963938,1.7519015274963938,0,0,1,-0.621327338413765,-0.16762978770028858 A0.47293833099621063,0.47293833099621063,0,0,0,-0.6190888553493532,-0.1714172736120365 A1.7070437795037767,1.7070437795037767,0,0,0,-0.7626787471652964,-0.24647574995979293 A0.22471854532719368,0.22471854532719368,0,0,1,-0.7638205167023868,-0.24405143345325495 Z" fill="black" />
<circle cx="-0.6654140593846228" cy="0.02731548446989933" r="0.0069559749235181545" fill="black" />
<path d="M-0.663524265162113,0.028211400141743698 A0.4700017637163125,0.4700017637163125,0,0,0,-0.6179995847360318,-0.16949903361213114 A1.7959894446119489,1.7959894446119489,0,0,1,-0.6223989383548961,-0.16954300427171765 A0.4733387518712408,0.4733387518712408,0,0,1,-0.6672975732055713,0.02642788726598197 A0.9003134374042309,0.9003134374042309,0,0,1,-0.6635242651621132,0.028211400141743614 Z" fill="black" />
<circle cx="0.3563629331599246" cy="-0.5626077372274599" r="0.006955974923518158" fill="black" />
<circle cx="0.48112502587390416" cy="-0.3988921630837394" r="0.007617546896352631" fill="black" />
<path d="M0.4826118451727271,-0.4006206601191478 A0.49640770555848485,0.49640770555848485,0,0,1,0.35824441691244235,-0.5635001253289442 A0.7807736512856737,0.7807736512856737,0,0,1,0.3544711052075121,-0.5617166288480382 A0.49273878440937346,0.49273878440937346,0,0,0,0.4796326865140498,-0.3971544861671591 A2.90562086963164,2.90562086963164,0,0,1,0.48261184517272726,-0.400620660119148 Z" fill="black" />
<circle cx="0.44184288701063595" cy="-0.6880663412989102" r="0.004141744664620477" fill="black" />
<path d="M0.44081308189511326,-0.6887614306090795 A11.067924055844589,11.067924055844589,0,0,1,0.35465031656888435,-0.5637996643401806 A0.4181418655372311,0.4181418655372311,0,0,0,0.35808182778889697,-0.5614241302391414 A9.492087970780466,9.492087970780466,0,0,0,0.44287706049639475,-0.6873774956431022 A0.20264032178499142,0.20264032178499142,0,0,1,0.4408130818950964,-0.6887614306090573 Z" fill="black" />
<circle cx="0.16922049929928873" cy="-0.7836213427205257" r="0.004466275173122244" fill="black" />
<circle cx="0.251221808790907" cy="-0.8422412119732023" r="0.0028439667955217035" fill="black" />
<path d="M0.2506116662674348,-0.8428357178222775 A0.28109117147197443,0.28109117147197443,0,0,1,0.16865339543510377,-0.7848317602302338 A0.3669469635173667,0.3669469635173667,0,0,0,0.16979475574062436,-0.7824072181289876 A0.27991098599594705,0.27991098599594705,0,0,0,0.25183728682074563,-0.8416484842265479 A0.1458927871000675,0.1458927871000675,0,0,1,0.2506116662674348,-0.8428357178222775 Z" fill="black" />
<circle cx="0.09785567707889754" cy="-0.8611869804033322" r="0.003109765640590266" fill="black" />
<path d="M0.09704498655624913,-0.8607216863850907 A0.24092654940752603,0.24092654940752603,0,0,0,0.16845294909813568,-0.7825185550291632 A0.580213945368818,0.580213945368818,0,0,0,0.16998126568236122,-0.7847197850526326 A0.24180037497317422,0.24180037497317422,0,0,1,0.09866080663484772,-0.86165469364034 A0.1785042380488887,0.1785042380488887,0,0,1,0.09704498655624916,-0.8607216863850907 Z" fill="black" />
<circle cx="-0.11729712999221102" cy="-0.830823877384856" r="0.003699663350784803" fill="black" />
<circle cx="-0.038651824318710185" cy="-0.8780534719846063" r="0.0028441017101576735" fill="black" />
<path d="M-0.03926184150589107,-0.8786471015077283 A0.1783597649050642,0.1783597649050642,0,0,1,-0.11760282062901564,-0.8318872573199891 A1.26296777908247,1.26296777908247,0,0,0,-0.116988588330458,-0.8297541212582065 A0.17788386396581318,0.17788386396581318,0,0,0,-0.03803618329532232,-0.8774597736506543 A0.18842588094414564,0.18842588094414564,0,0,1,-0.03926184150589107,-0.8786471015077283 Z" fill="black" />
<circle cx="-0.16663015279430682" cy="-0.8938707349807463" r="0.0021653687665590796" fill="black" />
<path d="M-0.16719439676247447,-0.8935473560820197 A0.2855702945646519,0.2855702945646519,0,0,0,-0.1180704521887452,-0.8300247397421133 A0.2239611977371072,0.2239611977371072,0,0,0,-0.11653075564355511,-0.831623729458116 A0.28679878975351386,0.28679878975351386,0,0,1,-0.16606927460252718,-0.8941969941590504 A0.10101813348865658,0.10101813348865658,0,0,1,-0.16719439676247438,-0.8935473560820194 Z" fill="black" />
<circle cx="-0.30805644273202565" cy="-0.7401239695358769" r="0.004466471722621833" fill="black" />
<circle cx="-0.3220704163120579" cy="-0.8338308601287715" r="0.0025124592954186343" fill="black" />
<path d="M-0.3228071665543185,-0.8336736324982423 A0.7321161338389175,0.7321161338389175,0,0,1,-0.3093908076735762,-0.7400163480848486 A0.23409223971311657,0.23409223971311657,0,0,0,-0.30672025893687116,-0.7402394393275212 A0.7241637039780747,0.7241637039780747,0,0,0,-0.3213339616473623,-0.8339931320814008 A0.11379554808585324,0.11379554808585324,0,0,1,-0.32280716655431857,-0.8336736324982426 Z" fill="black" />
<circle cx="-0.4228410009735356" cy="-0.6998837403034521" r="0.0041421029744318555" fill="black" />
<path d="M-0.4227591172144809,-0.6986404144453962 A0.22761627977843263,0.22761627977843263,0,0,0,-0.30728896572354036,-0.7390207909300848 A1.0552944872018934,1.0552944872018934,0,0,1,-0.3088180293931785,-0.7412216517329261 A0.22839606509731492,0.22839606509731492,0,0,1,-0.4229259163545508,-0.7011200744215278 A0.441931397277437,0.441931397277437,0,0,1,-0.42275911721448095,-0.6986404144453959 Z" fill="black" />
<circle cx="-0.48693793820183523" cy="-0.636846689973339" r="0.004466471722621844" fill="black" />
<circle cx="-0.3946965983116886" cy="-0.7161329187564478" r="0.0041421029744319075" fill="black" />
<path d="M-0.3957248373749999,-0.7168246246926169 A0.22839606509731708,0.22839606509731708,0,0,1,-0.4875077655391851,-0.6380550844676052 A1.0552944872017949,1.0552944872017949,0,0,1,-0.48636629600855064,-0.635630446084275 A0.22761627977843465,0.22761627977843465,0,0,0,-0.39366078841295715,-0.7154403424119211 A0.44193139727745784,0.44193139727745784,0,0,1,-0.39572483737499986,-0.7168246246926169 Z" fill="black" />
<circle cx="-0.5610834991749152" cy="-0.6958365923980593" r="0.0025124592954186248" fill="black" />
<path d="M-0.5615922581405619,-0.6952799399260124 A0.7241637039780895,0.7241637039780895,0,0,0,-0.48770602987234585,-0.6357472557584323 A0.23409223971311677,0.23409223971311677,0,0,0,-0.48617755282047725,-0.637948473185127 A0.7321161338389325,0.7321161338389325,0,0,1,-0.5605789609315703,-0.6963960230088375 A0.11379554808585281,0.11379554808585281,0,0,1,-0.5615922581405621,-0.6952799399260126 Z" fill="black" />
<circle cx="-0.6608660188898667" cy="-0.5169942330566922" r="0.0036996633507847612" fill="black" />
<circle cx="-0.6907996877956373" cy="-0.5912413128467281" r="0.0021653687665590922" fill="black" />
<path d="M-0.6913626756281562,-0.5909187076733702 A0.28679878975350104,0.28679878975350104,0,0,1,-0.6619418982789077,-0.5167304594385775 A0.2239611977371083,0.2239611977371083,0,0,0,-0.6597872842918646,-0.5172643809028298 A0.2855702945646391,0.2855702945646391,0,0,0,-0.6902375114702084,-0.5915682730077297 A0.101018133488658,0.101018133488658,0,0,1,-0.6913626756281562,-0.5909187076733702 Z" fill="black" />
<circle cx="-0.7410907004604399" cy="-0.4725001977549233" r="0.002844101710157661" fill="black" />
<path d="M-0.7408843631327469,-0.47167018782208125 A0.17788386396581068,0.17788386396581068,0,0,0,-0.6600938537392097,-0.5161921500761624 A1.262967779082569,1.262967779082569,0,0,0,-0.6616340876091644,-0.5177906588814305 A0.17835976490506164,0.17835976490506164,0,0,1,-0.7412997901143096,-0.4733253028973278 A0.1884258809441469,0.1884258809441469,0,0,1,-0.7408843631327469,-0.4716701878220812 Z" fill="black" />
<circle cx="-0.7632462393932905" cy="-0.2452614201259919" r="0.00446627517312227" fill="black" />
<circle cx="-0.7947376409771435" cy="-0.34584798794681454" r="0.003109765640590312" fill="black" />
<path d="M-0.7955452573000533,-0.3453845819165281 A0.24180037497317478,0.24180037497317478,0,0,1,-0.764577901549023,-0.2451517982779594 A0.5802139453688433,0.5802139453688433,0,0,0,-0.7619074221370135,-0.24537474425318906 A0.2409265494075267,0.2409265494075267,0,0,0,-0.7939293392757931,-0.34631741952491457 A0.17850423804889348,0.17850423804889348,0,0,1,-0.7955452573000533,-0.34538458191652804 Z" fill="black" />
<circle cx="-0.8550131900784399" cy="-0.20355613758899851" r="0.00284396679552173" fill="black" />
<path d="M-0.8548076118072285,-0.20272675410636026 A0.2799109859959485,0.2799109859959485,0,0,0,-0.762481904874327,-0.24415703716373932 A0.36694696351736966,0.36694696351736966,0,0,0,-0.7640109397737906,-0.2463577552338143 A0.28109117147197593,0.28109117147197593,0,0,1,-0.8552229759847014,-0.20438178943879226 A0.14589278710006945,0.14589278710006945,0,0,1,-0.8548076118072286,-0.20272675410636026 Z" fill="black" />
<circle cx="-0.6654140593846228" cy="0.02731548446989933" r="0.0069559749235181545" fill="black" />
<circle cx="-0.8168043745591856" cy="0.038613993983210665" r="0.004141744664620527" fill="black" />
<path d="M-0.8167249034649366,0.039854037321708446 A9.492087970781034,9.492087970781034,0,0,0,-0.6652484729791468,0.029395894379179666 A0.41814186553723354,0.41814186553723354,0,0,0,-0.6655899902481753,0.025236351438751012 A11.067924055845358,11.067924055845358,0,0,1,-0.8168914370019182,0.037374611937131874 A0.20264032178499294,0.20264032178499294,0,0,1,-0.8167249034648503,0.03985403732170305 Z" fill="black" />
<circle cx="-0.5860132595379987" cy="0.21722041326137637" r="0.007617546896352589" fill="black" />
<path d="M-0.583762217504743,0.21679684792296566 A0.4927387844093691,0.4927387844093691,0,0,0,-0.6636964229143121,0.02612266759323162 A0.780773651285688,0.780773651285688,0,0,1,-0.6671276320268019,0.028498703145645066 A0.4964077055584803,0.4964077055584803,0,0,1,-0.5882535915304401,0.2176437880272895 A2.905620869631338,2.905620869631338,0,0,1,-0.5837622175047477,0.2167968479229665 Z" fill="black" />
<circle cx="-0.16664049926308225" cy="0.2886298113223025" r="0.011111547200267536" fill="black" />
<path d="M-0.16375573572564406,0.2903001409630832 A133.33583332395798,133.33583332395798,0,0,0,0.0032475800411617683,0.0018749912109825573 L-0.00324758004119019,-0.001874991211010979 A133.335833323958,133.335833323958,0,0,0,-0.16952942893345835,0.2869666976353784 A1.3335950443505662,1.3335950443505662,0,0,1,-0.16375573572440527,0.2903001409609498 Z" fill="black" />
<circle cx="-0.16664049926308225" cy="0.2886298113223025" r="0.011111547200267536" fill="black" />
<circle cx="-0.4450154620352083" cy="0.31398098519522544" r="0.008792214743567823" fill="black" />
<path d="M-0.4445440238648901,0.31657386556479494 A1.5578738048632066,1.5578738048632066,0,0,1,-0.16664281784338872,0.291959654171563 A2.667523485916446,2.667523485916446,0,0,0,-0.16664234579130266,0.28529275191103726 A1.5223011749930049,1.5223011749930049,0,0,0,-0.44549733655819157,0.3113854286188147 A0.7113034365289121,0.7113034365289121,0,0,1,-0.4445440238648901,0.31657386556479494 Z" fill="black" />
<circle cx="-0.04940777846672705" cy="0.542385187796972" r="0.008792214743567828" fill="black" />
<path d="M-0.046919023273104266,0.5415047250871059 A1.5223011749930053,1.5223011749930053,0,0,0,-0.1637495977748782,0.2869628807570166 A2.6675234859164467,2.6675234859164467,0,0,0,-0.16952306847099918,0.290296740696379 A1.5578738048632073,1.5578738048632073,0,0,1,-0.05188899782090717,0.5432733505499471 A0.7113034365289129,0.7113034365289129,0,0,1,-0.04691902327310438,0.5415047250871061 Z" fill="black" />
<circle cx="-0.4450154620352083" cy="0.31398098519522544" r="0.008792214743567823" fill="black" />
<circle cx="-0.6202044046438888" cy="0.16951972310032476" r="0.007332619499253859" fill="black" />
<path d="M-0.621286549653656,0.17143063529753055 A0.65159482307173,0.65159482307173,0,0,1,-0.4470201764244083,0.31568689061880156 A7.122466899686638,7.122466899686638,0,0,0,-0.44300321052792846,0.3122673808774996 A0.6452879470399842,0.6452879470399842,0,0,0,-0.6191251592073534,0.16759860727680753 A0.6419209668374045,0.6419209668374045,0,0,1,-0.621286549653656,0.17143063529753055 Z" fill="black" />
<circle cx="-0.5302657360002435" cy="0.49856687472541394" r="0.005878116508133169" fill="black" />
<path d="M-0.528739650969175,0.4994532264983327 A1.1105484965034222,1.1105484965034222,0,0,0,-0.44252890626685626,0.31487016748954433 A0.7903721046675908,0.7903721046675908,0,0,0,-0.44749911454610847,0.3131021783979808 A1.129361301190348,1.129361301190348,0,0,1,-0.5317940243748156,0.4976898934804135 A0.33738753023744833,0.33738753023744833,0,0,1,-0.5287396509691749,0.49945322649833246 Z" fill="black" />
<circle cx="-0.04940777846672705" cy="0.542385187796972" r="0.008792214743567828" fill="black" />
<circle cx="-0.16663871099750022" cy="0.7085070354953701" r="0.0058781165081331745" fill="black" />
<path d="M-0.16511507877340115,0.7093920814295578 A1.1293613011903558,1.1293613011903558,0,0,1,-0.047404883199844594,0.5440966905669622 A0.7903721046675893,0.7903721046675893,0,0,0,-0.05142111080637857,0.5406763584808124 A1.1105484965034291,1.1105484965034291,0,0,0,-0.16816935666507082,0.7076285829765888 A0.3373875302374491,0.3373875302374491,0,0,1,-0.16511507877340126,0.7093920814295576 Z" fill="black" />
<circle cx="0.163293815674559" cy="0.6218726315107751" r="0.007332619499253835" fill="black" />
<path d="M0.1644179280630698,0.6199774196340584 A0.6452879470399855,0.6452879470399855,0,0,0,-0.04892987934918096,0.5397857247139922 A7.122466899685996,7.122466899685996,0,0,0,-0.04988277870540081,0.5449742740971537 A0.651594823071731,0.651594823071731,0,0,1,0.16217998967226113,0.6237652526784148 A0.6419209668373955,0.6419209668373955,0,0,1,0.16441792806306976,0.6199774196340584 Z" fill="black" />
<circle cx="-0.6202044046438888" cy="0.16951972310032476" r="0.007332619499253859" fill="black" />
<circle cx="-0.6654140593846225" cy="-0.027315484469900033" r="0.006955974923518161" fill="black" />
<path d="M-0.6672975732055713,-0.026427887265982775 A0.47333875187124064,0.47333875187124064,0,0,1,-0.6223989383548965,0.16954300427171698 A1.7959894446119444,1.7959894446119444,0,0,1,-0.6179995847360323,0.16949903361213048 A0.4700017637163126,0.4700017637163126,0,0,0,-0.6635242651621132,-0.02821140014174442 A0.900313437404234,0.900313437404234,0,0,1,-0.6672975732055713,-0.026427887265982775 Z" fill="black" />
<circle cx="-0.7632462393932907" cy="0.24526142012599136" r="0.004466275173122267" fill="black" />
<path d="M-0.7626787471652967,0.2464757499597925 A1.7070437795037714,1.7070437795037714,0,0,0,-0.6190888553493525,0.17141727361203563 A0.47293833099621074,0.47293833099621074,0,0,0,-0.6213273384137654,0.1676297877002883 A1.7519015274963885,1.7519015274963885,0,0,1,-0.7638205167023865,0.24405143345325442 A0.22471854532719351,0.22471854532719351,0,0,1,-0.7626787471652982,0.24647574995979316 Z" fill="black" />
<circle cx="-0.5302657360002435" cy="0.49856687472541394" r="0.005878116508133169" fill="black" />
<circle cx="-0.6608660188898668" cy="0.5169942330566919" r="0.003699663350784763" fill="black" />
<path d="M-0.660562239371415,0.5180603837663287 A0.47321463738057956,0.47321463738057956,0,0,1,-0.530269485877657,0.5003270026615163 A0.44346997560324747,0.44346997560324747,0,0,0,-0.530268997346332,0.49680015093248553 A0.46987939281889957,0.46987939281889957,0,0,0,-0.6611767459375786,0.5159273651477894 A0.19017566115391193,0.19017566115391193,0,0,1,-0.6605622393714152,0.5180603837663287 Z" fill="black" />
<circle cx="-0.48693793820183495" cy="0.6368466899733383" r="0.0044664717226218596" fill="black" />
<path d="M-0.4855997307225477,0.6367376496157088 A0.33103259135465196,0.33103259135465196,0,0,0,-0.5287340798941302,0.4976835328670166 A1.4119201392000076,1.4119201392000076,0,0,0,-0.5317881758954407,0.49944743713075557 A0.3326845015713321,0.3326845015713321,0,0,1,-0.48827025613127606,0.6369612274865825 A0.3007740006078841,0.3007740006078841,0,0,1,-0.4855997307225477,0.6367376496157088 Z" fill="black" />
<circle cx="-0.16663871099750022" cy="0.7085070354953701" r="0.0058781165081331745" fill="black" />
<circle cx="-0.3080564427320264" cy="0.7401239695358761" r="0.004466471722621839" fill="black" />
<path d="M-0.3074894761634617,0.7413350594653116 A0.33268450157133367,0.33268450157133367,0,0,1,-0.16664008046254494,0.7102657883230169 A1.4119201391999756,1.4119201391999756,0,0,0,-0.1666395425609586,0.7067389114684172 A0.3310325913546537,0.3310325913546537,0,0,0,-0.30863111475192495,0.7389105276844645 A0.30077400060788034,0.30077400060788034,0,0,1,-0.30748947616346156,0.7413350594653116 Z" fill="black" />
<circle cx="-0.1172971299922127" cy="0.830823877384856" r="0.0036996633507847976" fill="black" />
<path d="M-0.11621783175676476,0.8305595409473662 A0.46987939281889307,0.46987939281889307,0,0,0,-0.16510705263830944,0.7076264980074689 A0.4434699756032539,0.4434699756032539,0,0,0,-0.16816115156536854,0.7093903469525222 A0.47321463738057296,0.47321463738057296,0,0,1,-0.1183723333502465,0.831093871959546 A0.19017566115391477,0.19017566115391477,0,0,1,-0.1162178317567647,0.8305595409473663 Z" fill="black" />
<circle cx="0.163293815674559" cy="0.6218726315107751" r="0.007332619499253835" fill="black" />
<circle cx="0.16922049929928673" cy="0.7836213427205259" r="0.004466275173122254" fill="black" />
<path d="M0.17055551715066608,0.7835136881226521 A1.7519015274963077,1.7519015274963077,0,0,1,0.1654920146274408,0.6219001529822381 A0.47293833099620974,0.47293833099620974,0,0,0,0.16109271407918532,0.621855312738389 A1.7070437795036946,1.7070437795036946,0,0,0,0.1678851127006451,0.783737044951536 A0.2247185453271922,0.2247185453271922,0,0,1,0.1705555171506661,0.7835136881226519 Z" fill="black" />
<circle cx="0.35636293315992407" cy="0.5626077372274613" r="0.006955974923518144" fill="black" />
<path d="M0.356193921780135,0.5605231695869208 A0.470001763716311,0.470001763716311,0,0,0,0.16220932334299767,0.6199528567157049 A1.795989444611902,1.795989444611902,0,0,1,0.16437092044420698,0.6237847940396656 A0.4733387518712391,0.4733387518712391,0,0,1,0.3565360083434779,0.5646827066467406 A0.9003134374042331,0.9003134374042331,0,0,1,0.356193921780135,0.5605231695869204 Z" fill="black" />
<circle cx="-0.6654140593846225" cy="-0.027315484469900033" r="0.006955974923518161" fill="black" />
<circle cx="-0.586013259537995" cy="-0.21722041326137684" r="0.00761754689635264" fill="black" />
<path d="M-0.5882535915304364,-0.21764378802729017 A0.4964077055584855,0.4964077055584855,0,0,1,-0.6671276320268018,-0.028498703145645954 A0.780773651285672,0.780773651285672,0,0,1,-0.6636964229143119,-0.02612266759323245 A0.49273878440937413,0.49273878440937413,0,0,0,-0.5837622175047397,-0.21679684792296583 A2.905620869631604,2.905620869631604,0,0,1,-0.5882535915304368,-0.21764378802729034 Z" fill="black" />
<circle cx="-0.8168043745591854" cy="-0.038613993983211595" r="0.004141744664620528" fill="black" />
<path d="M-0.8168914370019142,-0.0373746119371372 A11.067924055845626,11.067924055845626,0,0,1,-0.6655899902481704,-0.025236351438758575 A0.41814186553723054,0.41814186553723054,0,0,0,-0.6652484729791281,-0.02939589437918253 A9.492087970781245,9.492087970781245,0,0,0,-0.8167249034649324,-0.039854037321712 A0.20264032178499272,0.20264032178499272,0,0,1,-0.8168914370019035,-0.03737461193713641 Z" fill="black" />
<circle cx="-0.7632462393932907" cy="0.24526142012599136" r="0.004466275173122267" fill="black" />
<circle cx="-0.8550131900784401" cy="0.20355613758899796" r="0.002843966795521727" fill="black" />
<path d="M-0.8552229759847015,0.20438178943879148 A0.2810911714719756,0.2810911714719756,0,0,1,-0.7640109397737909,0.24635775523381384 A0.36694696351737044,0.36694696351737044,0,0,0,-0.762481904874327,0.24415703716373874 A0.2799109859959482,0.2799109859959482,0,0,0,-0.8548076118072286,0.20272675410635937 A0.1458927871000694,0.1458927871000694,0,0,1,-0.8552229759847015,0.20438178943879148 Z" fill="black" />
<circle cx="-0.794737640977144" cy="0.34584798794681376" r="0.003109765640590309" fill="black" />
<path d="M-0.7939293392757938,0.34631741952491385 A0.2409265494075266,0.2409265494075266,0,0,0,-0.7619074221370136,0.2453747442531885 A0.5802139453688356,0.5802139453688356,0,0,0,-0.7645779015490232,0.24515179827795897 A0.24180037497317472,0.24180037497317472,0,0,1,-0.7955452573000539,0.3453845819165272 A0.17850423804889268,0.17850423804889268,0,0,1,-0.7939293392757938,0.34631741952491385 Z" fill="black" />
<circle cx="-0.6608660188898668" cy="0.5169942330566919" r="0.003699663350784763" fill="black" />
<circle cx="-0.74109070046044" cy="0.4725001977549233" r="0.0028441017101576596" fill="black" />
<path d="M-0.7412997901143097,0.4733253028973279 A0.1783597649050617,0.1783597649050617,0,0,1,-0.6616340876091644,0.51779065888143 A1.2629677790825207,1.2629677790825207,0,0,0,-0.66009385373921,0.5161921500761624 A0.17788386396581074,0.17788386396581074,0,0,0,-0.740884363132747,0.47167018782208125 A0.18842588094414656,0.18842588094414656,0,0,1,-0.7412997901143097,0.47332530289732794 Z" fill="black" />
<circle cx="-0.6907996877956377" cy="0.5912413128467278" r="0.002165368766559089" fill="black" />
<path d="M-0.6902375114702084,0.5915682730077295 A0.2855702945646418,0.2855702945646418,0,0,0,-0.6597872842918644,0.5172643809028296 A0.22396119773710785,0.22396119773710785,0,0,0,-0.6619418982789078,0.5167304594385771 A0.28679878975350365,0.28679878975350365,0,0,1,-0.6913626756281566,0.59091870767337 A0.10101813348865787,0.10101813348865787,0,0,1,-0.6902375114702084,0.5915682730077296 Z" fill="black" />
<circle cx="-0.48693793820183495" cy="0.6368466899733383" r="0.0044664717226218596" fill="black" />
<circle cx="-0.5610834991749152" cy="0.6958365923980588" r="0.0025124592954186343" fill="black" />
<path d="M-0.5605789609315701,0.6963960230088366 A0.7321161338389407,0.7321161338389407,0,0,1,-0.48617755282047714,0.6379484731851263 A0.23409223971311738,0.23409223971311738,0,0,0,-0.48770602987234624,0.6357472557584315 A0.7241637039780975,0.7241637039780975,0,0,0,-0.5615922581405621,0.6952799399260117 A0.11379554808585288,0.11379554808585288,0,0,1,-0.5605789609315703,0.6963960230088366 Z" fill="black" />
<circle cx="-0.3946965983116882" cy="0.7161329187564475" r="0.004142102974431916" fill="black" />
<path d="M-0.39366078841295715,0.7154403424119209 A0.22761627977843568,0.22761627977843568,0,0,0,-0.4863662960085502,0.6356304460842735 A1.0552944872018184,1.0552944872018184,0,0,1,-0.48750776553918507,0.6380550844676045 A0.22839606509731805,0.22839606509731805,0,0,1,-0.3957248373749997,0.7168246246926167 A0.4419313972774556,0.4419313972774556,0,0,1,-0.39366078841295715,0.7154403424119209 Z" fill="black" />
<circle cx="-0.3080564427320264" cy="0.7401239695358761" r="0.004466471722621839" fill="black" />
<circle cx="-0.42284100097353644" cy="0.6998837403034509" r="0.004142102974431869" fill="black" />
<path d="M-0.4229259163545517,0.7011200744215267 A0.22839606509731677,0.22839606509731677,0,0,1,-0.30881802939317915,0.7412216517329248 A1.0552944872018843,1.0552944872018843,0,0,1,-0.30728896572354103,0.7390207909300833 A0.22761627977843435,0.22761627977843435,0,0,0,-0.4227591172144817,0.6986404144453948 A0.4419313972774407,0.4419313972774407,0,0,1,-0.4229259163545517,0.7011200744215267 Z" fill="black" />
<circle cx="-0.32207041631206007" cy="0.8338308601287705" r="0.0025124592954186373" fill="black" />
<path d="M-0.3213339616473647,0.8339931320814005 A0.724163703978114,0.724163703978114,0,0,0,-0.30672025893687194,0.7402394393275207 A0.2340922397131156,0.2340922397131156,0,0,0,-0.3093908076735771,0.7400163480848478 A0.7321161338389577,0.7321161338389577,0,0,1,-0.32280716655432085,0.8336736324982414 A0.11379554808585317,0.11379554808585317,0,0,1,-0.3213339616473647,0.8339931320814005 Z" fill="black" />
<circle cx="-0.1172971299922127" cy="0.830823877384856" r="0.0036996633507847976" fill="black" />
<circle cx="-0.16663015279430868" cy="0.8938707349807459" r="0.002165368766559081" fill="black" />
<path d="M-0.16606927460252893,0.8941969941590499 A0.28679878975351164,0.28679878975351164,0,0,1,-0.11653075564355678,0.8316237294581161 A0.22396119773710774,0.22396119773710774,0,0,0,-0.11807045218874693,0.8300247397421134 A0.28557029456464955,0.28557029456464955,0,0,0,-0.1671943967624761,0.8935473560820189 A0.10101813348865687,0.10101813348865687,0,0,1,-0.16606927460252896,0.89419699415905 Z" fill="black" />
<circle cx="-0.03865182431871211" cy="0.8780534719846061" r="0.0028441017101576735" fill="black" />
<path d="M-0.038036183295323905,0.8774597736506539 A0.17788386396581254,0.17788386396581254,0,0,0,-0.11698858833045941,0.8297541212582048 A1.262967779082511,1.262967779082511,0,0,0,-0.11760282062901739,0.8318872573199888 A0.17835976490506358,0.17835976490506358,0,0,1,-0.03926184150589279,0.878647101507728 A0.18842588094414628,0.18842588094414628,0,0,1,-0.038036183295323905,0.8774597736506539 Z" fill="black" />
<circle cx="0.16922049929928673" cy="0.7836213427205259" r="0.004466275173122254" fill="black" />
<circle cx="0.09785567707889499" cy="0.8611869804033322" r="0.003109765640590273" fill="black" />
<path d="M0.0986608066348445,0.8616546936403396 A0.2418003749731752,0.2418003749731752,0,0,1,0.1699812656823589,0.7847197850526323 A0.5802139453688258,0.5802139453688258,0,0,0,0.16845294909813358,0.7825185550291631 A0.2409265494075271,0.2409265494075271,0,0,0,0.09704498655624608,0.8607216863850905 A0.17850423804888974,0.17850423804888974,0,0,1,0.09866080663484453,0.8616546936403395 Z" fill="black" />
<circle cx="0.2512218087909046" cy="0.8422412119732031" r="0.0028439667955217005" fill="black" />
<path d="M0.25183728682074336,0.8416484842265486 A0.2799109859959486,0.2799109859959486,0,0,0,0.1697947557406224,0.7824072181289876 A0.36694696351736583,0.36694696351736583,0,0,0,0.16865339543510172,0.7848317602302339 A0.281091171471976,0.281091171471976,0,0,1,0.2506116662674327,0.8428357178222781 A0.14589278710006726,0.14589278710006726,0,0,1,0.25183728682074336,0.8416484842265486 Z" fill="black" />
<circle cx="0.35636293315992407" cy="0.5626077372274613" r="0.006955974923518144" fill="black" />
<circle cx="0.44184288701063534" cy="0.6880663412989111" r="0.004141744664620467" fill="black" />
<path d="M0.4428770604964338,0.6873774956431582 A9.492087970779574,9.492087970779574,0,0,0,0.35808182778889197,0.5614241302391321 A0.4181418655372328,0.4181418655372328,0,0,0,0.35465031656888146,0.5637996643401795 A11.067924055843385,11.067924055843385,0,0,1,0.44081308189508484,0.688761430609043 A0.20264032178498964,0.20264032178498964,0,0,1,0.4428770604963972,0.6873774956431028 Z" fill="black" />
<circle cx="0.4811250258739054" cy="0.3988921630837436" r="0.007617546896352575" fill="black" />
<path d="M0.4796326865140514,0.39715448616716337 A0.4927387844093674,0.4927387844093674,0,0,0,0.3544711052075117,0.5617166288480395 A0.7807736512856873,0.7807736512856873,0,0,1,0.358244416912442,0.5635001253289458 A0.4964077055584788,0.4964077055584788,0,0,1,0.4826118451727283,0.4006206601191523 A2.905620869631353,2.905620869631353,0,0,1,0.4796326865140528,0.397154486167165 Z" fill="black" />
</svg>