<?xml version="1.0" encoding="UTF-8"?>
<svg xmlns="http://www.w3.org/2000/svg" xmlns:xlink="http://www.w3.org/1999/xlink"
     width="800" height="800.0" viewBox="-1.05 -1.05 2.1 2.1">
<defs>
</defs>
<circle cx="0" cy="0" r="1" fill="none" stroke-width="0.006" stroke="black" />
<circle cx="0" cy="0" r="0.0075" fill="black" />
<circle cx="0.3332809985261642" cy="-0.0" r="0.006666928320160522" fill="black" />
<path d="M0.333282040071543,-0.0016667294760281948 A266.66791666549483,266.66791666549483,0,0,0,1.632870052898457e-14,-0.0018749978027585712 L0.0,0.0018749978027585712 A266.66791666549483,266.66791666549483,0,0,0,0.333282040071543,0.0016667294760281948 A1.3335950443505682,1.3335950443505682,0,0,1,0.33328204006731377,-0.00166672947603359 Z" fill="black" />
<circle cx="0.3332809985261642" cy="-0.0" r="0.006666928320160522" fill="black" />
<circle cx="0.3657640065038875" cy="0.2926572160639383" r="0.005854263340739471" fill="black" />
<path d="M0.3671913580555759,0.29233731352647363 A1.3403072934301534,1.3403072934301534,0,0,1,0.3349466877561329,1.386928262449874e-07 A16006.268128919313,16006.268128919313,0,0,1,0.33161322636457746,-1.3904173101764172e-07 A1.3269682666125986,1.3269682666125986,0,0,0,0.36433552824491167,0.2929794295025971 A1.0670348659770317,1.0670348659770317,0,0,1,0.3671913580555762,0.2923373135264742 Z" fill="black" />
<circle cx="0.5999414926672879" cy="-0.0" r="0.004800526540321098" fill="black" />
<path d="M0.5999428426643931,-0.001200128710138415 A266.66791666549483,266.66791666549483,0,0,0,0.333282040071543,-0.0016667294760281948 A1.3335950443505682,1.3335950443505682,0,0,0,0.33328204006731377,0.00166672947603359 A266.66791666549483,266.66791666549483,0,0,0,0.5999428426643931,0.001200128710138415 A0.5334438551086456,0.5334438551086456,0,0,1,0.5999428426788491,-0.0012001287101059814 Z" fill="black" />
<circle cx="0.3657640065038875" cy="-0.2926572160639383" r="0.005854263340739471" fill="black" />
<path d="M0.36433552824491167,-0.2929794295025971 A1.3269682666125986,1.3269682666125986,0,0,0,0.33161322621229883,1.3904174509564101e-07 A16006.268128791344,16006.268128791344,0,0,1,0.33494670488098,-1.3869430404156446e-07 A1.3403072934301534,1.3403072934301534,0,0,1,0.3671913580555759,-0.29233731352647363 A1.0670348659770323,1.0670348659770323,0,0,1,0.36433552824491144,-0.2929794295025967 Z" fill="black" />
<circle cx="0.3657640065038875" cy="0.2926572160639383" r="0.005854263340739471" fill="black" />
<circle cx="0.09796325132365669" cy="0.3920544976297485" r="0.006275223542087877" fill="black" />
<path d="M0.09870029786651002,0.39343807776729434 A1.071344898298997,1.071344898298997,0,0,1,0.3660855997616477,0.29408398237153865 A1.333564599347784,1.333564599347784,0,0,1,0.36544354004171176,0.2912281388972288 A1.0628052063112619,1.0628052063112619,0,0,0,0.09722461150966932,0.3906691530112474 A4.27149174157554,4.27149174157554,0,0,1,0.09870029786650969,0.3934380777672941 Z" fill="black" />
<circle cx="0.43577662047451476" cy="0.5128195703455373" r="0.0041033611898882195" fill="black" />
<path d="M0.4367237251742553,0.5124264698593475 A1.3403073018894518,1.3403073018894518,0,0,1,0.3671913580539743,0.2923373135193048 A1.0670348616871972,1.0670348616871972,0,0,0,0.3643355282465362,0.29297942950977696 A1.3269682749043574,1.3269682749043574,0,0,0,0.4348297352493604,0.5132152503414641 A0.4268046739283855,0.4268046739283855,0,0,1,0.4367237251742553,0.5124264698593477 Z" fill="black" />
<circle cx="0.5999209712221608" cy="0.2666318199504035" r="0.004267517256583461" fill="black" />
<path d="M0.59992211715993,0.26556440947983107 A1.0626503389754507,1.0626503389754507,0,0,0,0.3654432784761099,0.2912281974268811 A1.3338694988621393,1.3338694988621393,0,0,0,0.3660858604819228,0.2940839234298869 A1.071187532415602,1.071187532415602,0,0,1,0.5999222253292408,0.26769816343861663 A0.4742419700252823,0.4742419700252823,0,0,1,0.5999221171599305,0.2655644094798308 Z" fill="black" />
<circle cx="0.5999414926672879" cy="-0.0" r="0.004800526540321098" fill="black" />
<circle cx="0.6409281829922902" cy="0.20513681229993133" r="0.004103474643642181" fill="black" />
<path d="M0.6418746399984682,0.20474361831148552 A0.534516869681379,0.534516869681379,0,0,1,0.6011402743861677,1.7959113508474276e-07 A3556.762339690758,3556.762339690758,0,0,1,0.5987400090710949,-1.804019120754674e-07 A0.5323826234853127,0.5323826234853127,0,0,0,0.6399805491059519,0.2055323121852161 A0.6278036196530329,0.6278036196530329,0,0,1,0.6418746399984683,0.2047436183114857 Z" fill="black" />
<circle cx="0.7777364095938333" cy="-0.0" r="0.002963445578940699" fill="black" />
<path d="M0.7777374899134557,-0.0007408589512465369 A266.66791666549483,266.66791666549483,0,0,0,0.5999428426643931,-0.001200128710138415 A0.5334438551086456,0.5334438551086456,0,0,0,0.5999428426788491,0.0012001287101059814 A266.66791666549483,266.66791666549483,0,0,0,0.7777374899134557,0.0007408589512465369 A0.25402313194932247,0.25402313194932247,0,0,1,0.7777374899544061,-0.0007408589511271607 Z" fill="black" />
<circle cx="0.6409281829922902" cy="-0.20513681229993133" r="0.004103474643642181" fill="black" />
<path d="M0.6399805491059519,-0.2055323121852161 A0.5323826234853127,0.5323826234853127,0,0,0,0.598740010918574,1.8040163412354378e-07 A3556.762339706555,3556.762339706555,0,0,1,0.601140278978539,-1.7959200704353862e-07 A0.534516869681379,0.534516869681379,0,0,1,0.6418746399984682,-0.20474361831148552 A0.6278036196530332,0.6278036196530332,0,0,1,0.639980549105952,-0.20553231218521617 Z" fill="black" />
<circle cx="0.3657640065038875" cy="-0.2926572160639383" r="0.005854263340739471" fill="black" />
<circle cx="0.5999209712221608" cy="-0.2666318199504035" r="0.004267517256583461" fill="black" />
<path d="M0.59992222532924,-0.26769816343861663 A1.071187532415602,1.071187532415602,0,0,1,0.3660858604819227,-0.29408392342988754 A1.3338694988621393,1.3338694988621393,0,0,0,0.36544327847611013,-0.2912281974268812 A1.0626503389754507,1.0626503389754507,0,0,0,0.59992211715993,-0.26556440947983107 A0.4742419700252823,0.4742419700252823,0,0,1,0.5999222253292402,-0.26769816343861663 Z" fill="black" />
<circle cx="0.43577662047451476" cy="-0.5128195703455373" r="0.0041033611898882195" fill="black" />
<path d="M0.4348297352493604,-0.5132152503414641 A1.3269682749043574,1.3269682749043574,0,0,0,0.36433552824653637,-0.2929794295097776 A1.0670348616871972,1.0670348616871972,0,0,0,0.3671913580539744,-0.29233731351930503 A1.3403073018894518,1.3403073018894518,0,0,1,0.4367237251742555,-0.512426469859348 A0.42680467392838567,0.42680467392838567,0,0,1,0.4348297352493607,-0.5132152503414651 Z" fill="black" />
<circle cx="0.09796325132365669" cy="-0.3920544976297485" r="0.006275223542087877" fill="black" />
<path d="M0.09722461150966932,-0.3906691530112474 A1.0628052063112619,1.0628052063112619,0,0,0,0.3654435400417116,-0.29122813889722843 A1.333564599347785,1.333564599347785,0,0,1,0.3660855997616477,-0.2940839823715391 A1.071344898298997,1.071344898298997,0,0,1,0.09870029786651002,-0.39343807776729434 A4.27149174157554,4.27149174157554,0,0,1,0.09722461150966977,-0.39066915301124805 Z" fill="black" />
<circle cx="2.040757540308503e-17" cy="-0.3332809985261642" r="0.006666928320160522" fill="black" />
<path d="M-0.0016667294760281948,-0.3332820400716614 A266.66791666549483,266.66791666549483,0,0,0,-0.0018749978027585712,-1.6328815339487446e-14 L0.0018749978027585712,1.1481050287657882e-19 A266.66791666549483,266.66791666549483,0,0,0,0.0016667294760281948,-0.3332820400716289 A1.3335950443505682,1.3335950443505682,0,0,1,-0.001666729476033539,-0.33328204006731377 Z" fill="black" />
<circle cx="2.040757540308503e-17" cy="-0.3332809985261642" r="0.006666928320160522" fill="black" />
<circle cx="0.29265721606393846" cy="-0.3657640065038864" r="0.005854263340739476" fill="black" />
<path d="M0.2923373135264742,-0.367191358055575 A1.3403072934301536,1.3403072934301536,0,0,1,1.386928742850099e-07,-0.3349466877561331 A16006.268128108819,16006.268128108819,0,0,1,-1.3903991202823818e-07,-0.3316132478670304 A1.3269682666125988,1.3269682666125988,0,0,0,0.29297942950259653,-0.36433552824491033 A1.0670348659770363,1.0670348659770363,0,0,1,0.2923373135264742,-0.3671913580555749 Z" fill="black" />
<circle cx="3.673582143353385e-17" cy="-0.5999414926672879" r="0.004800526540321098" fill="black" />
<path d="M-0.001200128710138415,-0.599942842664334 A266.66791666549483,266.66791666549483,0,0,0,-0.0016667294760281948,-0.3332820400716614 A1.3335950443505682,1.3335950443505682,0,0,0,0.0016667294760333146,-0.33328204006731377 A266.66791666549483,266.66791666549483,0,0,0,0.001200128710138415,-0.5999428426643734 A0.5334438551086456,0.5334438551086456,0,0,1,-0.0012001287101059326,-0.5999428426788491 Z" fill="black" />
<circle cx="-0.2926572160639383" cy="-0.36576400650388724" r="0.005854263340739472" fill="black" />
<path d="M-0.29297942950259637,-0.3643355282449112 A1.3269682666125986,1.3269682666125986,0,0,0,1.3904174436613558e-07,-0.33161322621229883 A16006.268128791342,16006.268128791342,0,0,1,-1.3869248505216092e-07,-0.33494668365647606 A1.3403072934301536,1.3403072934301536,0,0,1,-0.2923373135264738,-0.3671913580555757 A1.067034865977034,1.067034865977034,0,0,1,-0.29297942950259626,-0.3643355282449113 Z" fill="black" />
<circle cx="0.29265721606393846" cy="-0.3657640065038864" r="0.005854263340739476" fill="black" />
<circle cx="0.3920544976297494" cy="-0.09796325132365574" r="0.006275223542087873" fill="black" />
<path d="M0.39343807776729556,-0.09870029786650936 A1.0713448982989962,1.0713448982989962,0,0,1,0.2940839823715393,-0.3660855997616466 A1.333564599347794,1.333564599347794,0,0,1,0.2912281388972287,-0.36544354004171087 A1.062805206311261,1.062805206311261,0,0,0,0.3906691530112484,-0.09722461150966855 A4.27149174157543,4.27149174157543,0,0,1,0.3934380777672928,-0.09870029786650791 Z" fill="black" />
<circle cx="0.5128195703455383" cy="-0.43577662047451243" r="0.004103361189888226" fill="black" />
<path d="M0.5124264698593485,-0.4367237251742533 A1.3403073018894471,1.3403073018894471,0,0,1,0.2923373135193047,-0.3671913580539732 A1.0670348616872067,1.0670348616872067,0,0,0,0.29297942950977673,-0.36433552824653515 A1.3269682749043525,1.3269682749043525,0,0,0,0.5132152503414649,-0.4348297352493584 A0.4268046739283875,0.4268046739283875,0,0,1,0.5124264698593483,-0.4367237251742532 Z" fill="black" />
<circle cx="0.2666318199504041" cy="-0.5999209712221599" r="0.004267517256583468" fill="black" />
<path d="M0.26556440947983173,-0.5999221171599296 A1.0626503389754534,1.0626503389754534,0,0,0,0.2912281974268811,-0.3654432784761091 A1.3338694988621436,1.3338694988621436,0,0,0,0.2940839234298878,-0.3660858604819215 A1.0711875324156048,1.0711875324156048,0,0,1,0.2676981634386175,-0.5999222253292391 A0.47424197002528284,0.47424197002528284,0,0,1,0.2655644094798319,-0.5999221171599296 Z" fill="black" />
<circle cx="3.673582143353385e-17" cy="-0.5999414926672879" r="0.004800526540321098" fill="black" />
<circle cx="0.20513681229993133" cy="-0.64092818299229" r="0.004103474643642181" fill="black" />
<path d="M0.2047436183114858,-0.6418746399984679 A0.534516869681379,0.534516869681379,0,0,1,1.7959119580254453e-07,-0.6011402743861675 A3556.762339664429,3556.762339664429,0,0,1,-1.8040145732811652e-07,-0.5987400117131573 A0.5323826234853127,0.5323826234853127,0,0,0,0.20553231218521606,-0.6399805491059516 A0.6278036196530336,0.6278036196530336,0,0,1,0.2047436183114857,-0.6418746399984682 Z" fill="black" />
<circle cx="4.7622620229472144e-17" cy="-0.7777364095938333" r="0.002963445578940699" fill="black" />
<path d="M-0.0007408589512465369,-0.7777374899134557 A266.66791666549483,266.66791666549483,0,0,0,-0.001200128710138415,-0.599942842664334 A0.5334438551086456,0.5334438551086456,0,0,0,0.0012001287101058998,-0.5999428426788491 A266.66791666549483,266.66791666549483,0,0,0,0.0007408589512465369,-0.777737489913481 A0.25402313194932247,0.25402313194932247,0,0,1,-0.0007408589511271637,-0.7777374899544061 Z" fill="black" />
<circle cx="-0.2051368122999309" cy="-0.6409281829922909" r="0.004103474643642175" fill="black" />
<path d="M-0.20553231218521564,-0.6399805491059525 A0.5323826234853128,0.5323826234853128,0,0,0,1.804016324426916e-07,-0.5987400109185739 A3556.762339777643,3556.762339777643,0,0,1,-1.7959200704353862e-07,-0.6011402789672479 A0.534516869681379,0.534516869681379,0,0,1,-0.20474361831148521,-0.6418746399984689 A0.627803619653029,0.627803619653029,0,0,1,-0.20553231218521573,-0.6399805491059525 Z" fill="black" />
<circle cx="-0.2926572160639383" cy="-0.36576400650388724" r="0.005854263340739472" fill="black" />
<circle cx="-0.2666318199504031" cy="-0.5999209712221606" r="0.004267517256583465" fill="black" />
<path d="M-0.2676981634386164,-0.5999222253292402 A1.0711875324156008,1.0711875324156008,0,0,1,-0.29408392342988754,-0.3660858604819226 A1.3338694988621445,1.3338694988621445,0,0,0,-0.2912281974268816,-0.3654432784761099 A1.0626503389754498,1.0626503389754498,0,0,0,-0.26556440947983084,-0.5999221171599304 A0.47424197002528284,0.47424197002528284,0,0,1,-0.26769816343861635,-0.59992222532924 Z" fill="black" />
<circle cx="-0.5128195703455372" cy="-0.4357766204745148" r="0.0041033611898882195" fill="black" />
<path d="M-0.5132152503414649,-0.43482973524936086 A1.3269682749043623,1.3269682749043623,0,0,0,-0.29297942950977723,-0.36433552824653614 A1.0670348616871963,1.0670348616871963,0,0,0,-0.29233731351930503,-0.36719135805397407 A1.3403073018894565,1.3403073018894565,0,0,1,-0.512426469859347,-0.4367237251742555 A0.4268046739283856,0.4268046739283856,0,0,1,-0.5132152503414648,-0.43482973524936086 Z" fill="black" />
<circle cx="-0.392054497629753" cy="-0.09796325132365892" r="0.006275223542087847" fill="black" />
<path d="M-0.3906691530112518,-0.0972246115096721 A1.0628052063112488,1.0628052063112488,0,0,0,-0.29122813889722865,-0.36544354004171176 A1.333564599347814,1.333564599347814,0,0,1,-0.29408398237153854,-0.3660855997616477 A1.0713448982989837,1.0713448982989837,0,0,1,-0.3934380777672992,-0.09870029786651202 A4.271491741575202,4.271491741575202,0,0,1,-0.3906691530112507,-0.09722461150967154 Z" fill="black" />
<circle cx="-0.3332809985261642" cy="-4.081515080617006e-17" r="0.006666928320160522" fill="black" />
<path d="M-0.3332820400715961,0.0016667294760281948 A266.66791666549483,266.66791666549483,0,0,0,-6.943847243839399e-14,0.0018749978027585712 L-3.265717143696338e-14,-0.0018749978027585712 A266.66791666549483,266.66791666549483,0,0,0,-0.33328204007154294,-0.0016667294760281948 A1.3335950443505682,1.3335950443505682,0,0,1,-0.33328204006731377,0.0016667294760335468 Z" fill="black" />
<circle cx="-0.3332809985261642" cy="-4.081515080617006e-17" r="0.006666928320160522" fill="black" />
<circle cx="-0.3657640065038874" cy="-0.29265721606393835" r="0.005854263340739471" fill="black" />
<path d="M-0.3671913580555759,-0.2923373135264743 A1.3403072934301539,1.3403072934301539,0,0,1,-0.3349466877561329,-1.3869287860383437e-07 A16006.268128748681,16006.268128748681,0,0,1,-0.3316132478152156,1.3903991202823818e-07 A1.3269682666125988,1.3269682666125988,0,0,0,-0.36433552824491167,-0.2929794295025967 A1.067034865977032,1.067034865977032,0,0,1,-0.367191358055576,-0.2923373135264742 Z" fill="black" />
<circle cx="-0.5999414926672879" cy="-7.34716428670677e-17" r="0.004800526540321098" fill="black" />
<path d="M-0.5999428426643277,0.001200128710138415 A266.66791666549483,266.66791666549483,0,0,0,-0.3332820400715961,0.0016667294760281948 A1.3335950443505682,1.3335950443505682,0,0,0,-0.33328204006731377,-0.0016667294760335542 A266.66791666549483,266.66791666549483,0,0,0,-0.5999428426643338,-0.001200128710138415 A0.5334438551086456,0.5334438551086456,0,0,1,-0.5999428426788491,0.0012001287101058786 Z" fill="black" />
<circle cx="-0.36576400650388663" cy="0.2926572160639384" r="0.005854263340739475" fill="black" />
<path d="M-0.3643355282449108,0.29297942950259626 A1.3269682666125986,1.3269682666125986,0,0,0,-0.33161322621229905,-1.3904174860395661e-07 A16006.268128194133,16006.268128194133,0,0,1,-0.3349467049358237,1.3869430404156446e-07 A1.3403072934301536,1.3403072934301536,0,0,1,-0.36719135805557523,0.2923373135264742 A1.0670348659770363,1.0670348659770363,0,0,1,-0.3643355282449108,0.2929794295025965 Z" fill="black" />
<circle cx="-0.3657640065038874" cy="-0.29265721606393835" r="0.005854263340739471" fill="black" />
<circle cx="-0.09796325132365744" cy="-0.39205449762975025" r="0.006275223542087865" fill="black" />
<path d="M-0.09870029786651091,-0.39343807776729633 A1.0713448982989922,1.0713448982989922,0,0,1,-0.36608559976164756,-0.2940839823715389 A1.3335645993477963,1.3335645993477963,0,0,1,-0.36544354004171153,-0.29122813889722865 A1.062805206311257,1.062805206311257,0,0,0,-0.09722461150967032,-0.39066915301124905 A4.2714917415754075,4.2714917415754075,0,0,1,-0.09870029786651191,-0.39343807776729856 Z" fill="black" />
<circle cx="-0.4357766204745146" cy="-0.5128195703455374" r="0.0041033611898882195" fill="black" />
<path d="M-0.4367237251742555,-0.5124264698593476 A1.3403073018894518,1.3403073018894518,0,0,1,-0.3671913580539743,-0.29233731351930486 A1.0670348616871979,1.0670348616871979,0,0,0,-0.3643355282465362,-0.29297942950977696 A1.326968274904357,1.326968274904357,0,0,0,-0.4348297352493604,-0.5132152503414644 A0.4268046739283859,0.4268046739283859,0,0,1,-0.4367237251742555,-0.5124264698593473 Z" fill="black" />
<circle cx="-0.5999209712221606" cy="-0.2666318199504028" r="0.0042675172565834665" fill="black" />
<path d="M-0.5999221171599305,-0.2655644094798306 A1.0626503389754474,1.0626503389754474,0,0,0,-0.3654432784761098,-0.29122819742688133 A1.3338694988621451,1.3338694988621451,0,0,0,-0.3660858604819228,-0.29408392342988776 A1.071187532415599,1.071187532415599,0,0,1,-0.5999222253292406,-0.2676981634386162 A0.4742419700252832,0.4742419700252832,0,0,1,-0.5999221171599305,-0.2655644094798306 Z" fill="black" />
<circle cx="-0.5999414926672879" cy="-7.34716428670677e-17" r="0.004800526540321098" fill="black" />
<circle cx="-0.64092818299229" cy="-0.20513681229993141" r="0.004103474643642181" fill="black" />
<path d="M-0.641874639998468,-0.2047436183114859 A0.5345168696813793,0.5345168696813793,0,0,1,-0.6011402743861676,-1.7959119566067668e-07 A3556.762339661796,3556.762339661796,0,0,1,-0.5987400090758025,1.804019120754674e-07 A0.5323826234853132,0.5323826234853132,0,0,0,-0.6399805491059516,-0.20553231218521628 A0.6278036196530331,0.6278036196530331,0,0,1,-0.6418746399984679,-0.2047436183114859 Z" fill="black" />
<circle cx="-0.7777364095938333" cy="-9.524524045894429e-17" r="0.002963445578940699" fill="black" />
<path d="M-0.7777374899134496,0.0007408589512465369 A266.66791666549483,266.66791666549483,0,0,0,-0.5999428426643277,0.001200128710138415 A0.5334438551086456,0.5334438551086456,0,0,0,-0.5999428426788491,-0.0012001287101058918 A266.66791666549483,266.66791666549483,0,0,0,-0.7777374899134556,-0.0007408589512465369 A0.25402313194932247,0.25402313194932247,0,0,1,-0.7777374899544061,0.0007408589511270869 Z" fill="black" />
<circle cx="-0.64092818299229" cy="0.20513681229993128" r="0.004103474643642182" fill="black" />
<path d="M-0.6399805491059516,0.20553231218521628 A0.5323826234853132,0.5323826234853132,0,0,0,-0.5987400109185738,-1.804015767754559e-07 A3556.7623396644294,3556.7623396644294,0,0,1,-0.6011402737309245,1.7959109754883684e-07 A0.5345168696813793,0.5345168696813793,0,0,1,-0.641874639998468,0.2047436183114859 A0.6278036196530336,0.6278036196530336,0,0,1,-0.6399805491059516,0.20553231218521628 Z" fill="black" />
<circle cx="-0.36576400650388663" cy="0.2926572160639384" r="0.005854263340739475" fill="black" />
<circle cx="-0.59992097122216" cy="0.26663181995040425" r="0.004267517256583465" fill="black" />
<path d="M-0.5999222253292397,0.2676981634386175 A1.071187532415606,1.071187532415606,0,0,1,-0.3660858604819218,0.29408392342988776 A1.3338694988621402,1.3338694988621402,0,0,0,-0.365443278476109,0.29122819742688116 A1.0626503389754547,1.0626503389754547,0,0,0,-0.5999221171599299,0.2655644094798322 A0.47424197002528207,0.47424197002528207,0,0,1,-0.5999222253292398,0.2676981634386175 Z" fill="black" />
<circle cx="-0.4357766204745114" cy="0.5128195703455387" r="0.004103361189888231" fill="black" />
<path d="M-0.43482973524935753,0.5132152503414661 A1.3269682749043406,1.3269682749043406,0,0,0,-0.3643355282465355,0.2929794295097771 A1.0670348616872103,1.0670348616872103,0,0,0,-0.36719135805397307,0.29233731351930525 A1.3403073018894354,1.3403073018894354,0,0,1,-0.4367237251742522,0.5124264698593493 A0.42680467392838806,0.42680467392838806,0,0,1,-0.4348297352493576,0.5132152503414662 Z" fill="black" />
<circle cx="-0.09796325132365659" cy="0.39205449762975025" r="0.006275223542087867" fill="black" />
<path d="M-0.09722461150966932,0.39066915301124894 A1.0628052063112583,1.0628052063112583,0,0,0,-0.3654435400417106,0.29122813889722843 A1.3335645993478018,1.3335645993478018,0,0,1,-0.36608559976164656,0.2940839823715387 A1.0713448982989935,1.0713448982989935,0,0,1,-0.0987002978665098,0.393438077767296 A4.27149174157538,4.27149174157538,0,0,1,-0.09722461150967066,0.3906691530112516 Z" fill="black" />
<circle cx="-6.122272620925524e-17" cy="0.3332809985261642" r="0.006666928320160522" fill="black" />
<path d="M0.0016667294760281948,0.3332820400716292 A266.66791666549483,266.66791666549483,0,0,0,0.0018749978027585712,-2.960599274501519e-14 L-0.0018749978027585712,-6.226358051512493e-14 A266.66791666549483,266.66791666549483,0,0,0,-0.0016667294760281948,0.3332820400714541 A1.3335950443505682,1.3335950443505682,0,0,1,0.0016667294760334985,0.33328204006731377 Z" fill="black" />
<circle cx="-6.122272620925524e-17" cy="0.3332809985261642" r="0.006666928320160522" fill="black" />
<circle cx="-0.2926572160639384" cy="0.3657640065038872" r="0.005854263340739472" fill="black" />
<path d="M-0.2923373135264742,0.3671913580555757 A1.3403072934301539,1.3403072934301539,0,0,1,-1.3869282433803842e-07,0.3349466877561329 A16006.268128535397,16006.268128535397,0,0,1,1.3904173101764172e-07,0.33161322639366375 A1.3269682666125988,1.3269682666125988,0,0,0,-0.29297942950259676,0.3643355282449112 A1.0670348659770323,1.0670348659770323,0,0,1,-0.2923373135264742,0.3671913580555757 Z" fill="black" />
<circle cx="-1.1020746430060199e-16" cy="0.5999414926672879" r="0.004800526540321098" fill="black" />
<path d="M0.001200128710138415,0.5999428426643736 A266.66791666549483,266.66791666549483,0,0,0,0.0016667294760281948,0.3332820400716292 A1.3335950443505682,1.3335950443505682,0,0,0,-0.0016667294760336513,0.33328204006731377 A266.66791666549483,266.66791666549483,0,0,0,-0.001200128710138415,0.5999428426643636 A0.5334438551086456,0.5334438551086456,0,0,1,0.0012001287101059775,0.5999428426788491 Z" fill="black" />
<circle cx="0.29265721606393835" cy="0.3657640065038867" r="0.005854263340739475" fill="black" />
<path d="M0.2929794295025962,0.36433552824491056 A1.3269682666125988,1.3269682666125988,0,0,0,-1.3904177940393127e-07,0.33161322621229883 A16006.268128194137,16006.268128194137,0,0,1,1.3869248505216092e-07,0.33494668370905867 A1.3403072934301539,1.3403072934301539,0,0,1,0.29233731352647424,0.36719135805557523 A1.0670348659770372,1.0670348659770372,0,0,1,0.29297942950259603,0.36433552824491056 Z" fill="black" />
<circle cx="-0.2926572160639384" cy="0.3657640065038872" r="0.005854263340739472" fill="black" />
<circle cx="-0.39205449762975053" cy="0.09796325132365741" r="0.006275223542087863" fill="black" />
<path d="M-0.3934380777672968,0.09870029786651002 A1.071344898298992,1.071344898298992,0,0,1,-0.2940839823715389,0.36608559976164723 A1.3335645993477983,1.3335645993477983,0,0,1,-0.29122813889722854,0.3654435400417111 A1.0628052063112565,1.0628052063112565,0,0,0,-0.3906691530112494,0.09722461150966988 A4.271491741575385,4.271491741575385,0,0,1,-0.39343807776729456,0.0987002978665088 Z" fill="black" />
<circle cx="-0.5128195703455373" cy="0.43577662047451465" r="0.0041033611898882195" fill="black" />
<path d="M-0.5124264698593476,0.4367237251742553 A1.3403073018894562,1.3403073018894562,0,0,1,-0.2923373135193051,0.36719135805397385 A1.0670348616871967,1.0670348616871967,0,0,0,-0.29297942950977696,0.3643355282465359 A1.3269682749043616,1.3269682749043616,0,0,0,-0.5132152503414649,0.43482973524936064 A0.4268046739283849,0.4268046739283849,0,0,1,-0.5124264698593477,0.43672372517425534 Z" fill="black" />
<circle cx="-0.2666318199504041" cy="0.5999209712221606" r="0.004267517256583461" fill="black" />
<path d="M-0.26556440947983173,0.5999221171599306 A1.0626503389754522,1.0626503389754522,0,0,0,-0.29122819742688133,0.3654432784761095 A1.333869498862137,1.333869498862137,0,0,0,-0.2940839234298876,0.3660858604819226 A1.0711875324156037,1.0711875324156037,0,0,1,-0.26769816343861774,0.5999222253292401 A0.4742419700252815,0.4742419700252815,0,0,1,-0.2655644094798319,0.5999221171599303 Z" fill="black" />
<circle cx="-1.1020746430060199e-16" cy="0.5999414926672879" r="0.004800526540321098" fill="black" />
<circle cx="-0.20513681229993108" cy="0.6409281829922908" r="0.004103474643642175" fill="black" />
<path d="M-0.2047436183114854,0.6418746399984687 A0.5345168696813791,0.5345168696813791,0,0,1,-1.7959119855040073e-07,0.6011402743861676 A3556.7623397829093,3556.7623397829093,0,0,1,1.804019120754674e-07,0.5987400090581692 A0.532382623485313,0.532382623485313,0,0,0,-0.205532312185216,0.6399805491059523 A0.6278036196530299,0.6278036196530299,0,0,1,-0.20474361831148558,0.6418746399984687 Z" fill="black" />
<circle cx="-1.42867860688416e-16" cy="0.7777364095938333" r="0.002963445578940699" fill="black" />
<path d="M0.0007408589512465369,0.7777374899134814 A266.66791666549483,266.66791666549483,0,0,0,0.001200128710138415,0.5999428426643736 A0.5334438551086456,0.5334438551086456,0,0,0,-0.001200128710105855,0.5999428426788491 A266.66791666549483,266.66791666549483,0,0,0,-0.0007408589512465369,0.7777374899134853 A0.25402313194932247,0.25402313194932247,0,0,1,0.0007408589511271813,0.7777374899544061 Z" fill="black" />
<circle cx="0.20513681229993122" cy="0.6409281829922902" r="0.004103474643642181" fill="black" />
<path d="M0.20553231218521606,0.6399805491059519 A0.5323826234853128,0.5323826234853128,0,0,0,-1.804015764865838e-07,0.5987400109185739 A3556.762339674961,3556.762339674961,0,0,1,1.7959109754883684e-07,0.6011402737279373 A0.534516869681379,0.534516869681379,0,0,1,0.20474361831148574,0.6418746399984685 A0.6278036196530334,0.6278036196530334,0,0,1,0.20553231218521606,0.6399805491059519 Z" fill="black" />
<circle cx="0.29265721606393835" cy="0.3657640065038867" r="0.005854263340739475" fill="black" />
<circle cx="0.26663181995040636" cy="0.5999209712221603" r="0.004267517256583455" fill="black" />
<path d="M0.26769816343861974,0.5999222253292399 A1.0711875324156142,1.0711875324156142,0,0,1,0.29408392342988776,0.3660858604819223 A1.3338694988621191,1.3338694988621191,0,0,0,0.291228197426881,0.36544327847610947 A1.0626503389754625,1.0626503389754625,0,0,0,0.26556440947983373,0.5999221171599308 A0.47424197002527974,0.47424197002527974,0,0,1,0.26769816343861974,0.5999222253292396 Z" fill="black" />
<circle cx="0.5128195703455386" cy="0.4357766204745116" r="0.004103361189888229" fill="black" />
<path d="M0.5132152503414665,0.4348297352493584 A1.3269682749043419,1.3269682749043419,0,0,0,0.2929794295097772,0.3643355282465359 A1.06703486168721,1.06703486168721,0,0,0,0.2923373135193048,0.36719135805397396 A1.3403073018894354,1.3403073018894354,0,0,1,0.512426469859349,0.43672372517425284 A0.426804673928388,0.426804673928388,0,0,1,0.513215250341466,0.4348297352493579 Z" fill="black" />
<circle cx="0.39205449762975025" cy="0.0979632513236567" r="0.006275223542087867" fill="black" />
<path d="M0.3906691530112495,0.09722461150966877 A1.0628052063112585,1.0628052063112585,0,0,0,0.29122813889722865,0.3654435400417112 A1.3335645993477991,1.3335645993477991,0,0,1,0.29408398237153877,0.36608559976164723 A1.0713448982989937,1.0713448982989937,0,0,1,0.39343807776729633,0.09870029786651002 A4.271491741575383,4.271491741575383,0,0,1,0.39066915301125027,0.09722461150967021 Z" fill="black" />
</svg>