<?xml version="1.0" encoding="UTF-8"?>
<svg xmlns="http://www.w3.org/2000/svg" xmlns:xlink="http://www.w3.org/1999/xlink"
     width="800" height="800.0" viewBox="-1.05 -1.05 2.1 2.1">
<defs>
</defs>
<circle cx="0" cy="0" r="1" fill="none" stroke-width="0.006" stroke="black" />
<circle cx="0" cy="0" r="0.0075" fill="black" />
<circle cx="0.3332809985261642" cy="-0.0" r="0.006666928320160522" fill="black" />
<path d="M0.333282040071543,-0.0016667294760281948 A266.66791666549483,266.66791666549483,0,0,0,1.632870052898457e-14,-0.0018749978027585712 L0.0,0.0018749978027585712 A266.66791666549483,266.66791666549483,0,0,0,0.333282040071543,0.0016667294760281948 A1.3335950443505682,1.3335950443505682,0,0,1,0.33328204006731377,-0.00166672947603359 Z" fill="black" />
<circle cx="0.3332809985261642" cy="-0.0" r="0.006666928320160522" fill="black" />
<circle cx="0.3657640065038875" cy="0.2926572160639383" r="0.005854263340739471" fill="black" />
<path d="M0.3671913580555759,0.29233731352647363 A1.3403072934301534,1.3403072934301534,0,0,1,0.3349466877561329,1.386928262449874e-07 A16006.268128919313,16006.268128919313,0,0,1,0.33161322636457746,-1.3904173101764172e-07 A1.3269682666125986,1.3269682666125986,0,0,0,0.36433552824491167,0.2929794295025971 A1.0670348659770317,1.0670348659770317,0,0,1,0.3671913580555762,0.2923373135264742 Z" fill="black" />
<circle cx="0.5999414926672879" cy="-0.0" r="0.004800526540321098" fill="black" />
<path d="M0.5999428426643931,-0.001200128710138415 A266.66791666549483,266.66791666549483,0,0,0,0.333282040071543,-0.0016667294760281948 A1.3335950443505682,1.3335950443505682,0,0,0,0.33328204006731377,0.00166672947603359 A266.66791666549483,266.66791666549483,0,0,0,0.5999428426643931,0.001200128710138415 A0.5334438551086456,0.5334438551086456,0,0,1,0.5999428426788491,-0.0012001287101059814 Z" fill="black" />
<circle cx="0.3657640065038875" cy="-0.2926572160639383" r="0.005854263340739471" fill="black" />
<path d="M0.36433552824491167,-0.2929794295025971 A1.3269682666125986,1.3269682666125986,0,0,0,0.33161322621229883,1.3904174509564101e-07 A16006.268128791344,16006.268128791344,0,0,1,0.33494670488098,-1.3869430404156446e-07 A1.3403072934301534,1.3403072934301534,0,0,1,0.3671913580555759,-0.29233731352647363 A1.0670348659770323,1.0670348659770323,0,0,1,0.36433552824491144,-0.2929794295025967 Z" fill="black" />
<circle cx="0.3657640065038875" cy="0.2926572160639383" r="0.005854263340739471" fill="black" />
<circle cx="0.09796325132365669" cy="0.3920544976297485" r="0.006275223542087877" fill="black" />
<path d="M0.09870029786651002,0.39343807776729434 A1.071344898298997,1.071344898298997,0,0,1,0.3660855997616477,0.29408398237153865 A1.333564599347784,1.333564599347784,0,0,1,0.36544354004171176,0.2912281388972288 A1.0628052063112619,1.0628052063112619,0,0,0,0.09722461150966932,0.3906691530112474 A4.27149174157554,4.27149174157554,0,0,1,0.09870029786650969,0.3934380777672941 Z" fill="black" />
<circle cx="0.43577662047451476" cy="0.5128195703455373" r="0.0041033611898882195" fill="black" />
<path d="M0.4367237251742553,0.5124264698593475 A1.3403073018894518,1.3403073018894518,0,0,1,0.3671913580539743,0.2923373135193048 A1.0670348616871972,1.0670348616871972,0,0,0,0.3643355282465362,0.29297942950977696 A1.3269682749043574,1.3269682749043574,0,0,0,0.4348297352493604,0.5132152503414641 A0.4268046739283855,0.4268046739283855,0,0,1,0.4367237251742553,0.5124264698593477 Z" fill="black" />
<circle cx="0.5999209712221608" cy="0.2666318199504035" r="0.004267517256583461" fill="black" />
<path d="M0.59992211715993,0.26556440947983107 A1.0626503389754507,1.0626503389754507,0,0,0,0.3654432784761099,0.2912281974268811 A1.3338694988621393,1.3338694988621393,0,0,0,0.3660858604819228,0.2940839234298869 A1.071187532415602,1.071187532415602,0,0,1,0.5999222253292408,0.26769816343861663 A0.4742419700252823,0.4742419700252823,0,0,1,0.5999221171599305,0.2655644094798308 Z" fill="black" />
<circle cx="0.5999414926672879" cy="-0.0" r="0.004800526540321098" fill="black" />
<circle cx="0.6409281829922902" cy="0.20513681229993133" r="0.004103474643642181" fill="black" />
<path d="M0.6418746399984682,0.20474361831148552 A0.534516869681379,0.534516869681379,0,0,1,0.6011402743861677,1.7959113508474276e-07 A3556.762339690758,3556.762339690758,0,0,1,0.5987400090710949,-1.804019120754674e-07 A0.5323826234853127,0.5323826234853127,0,0,0,0.6399805491059519,0.2055323121852161 A0.6278036196530329,0.6278036196530329,0,0,1,0.6418746399984683,0.2047436183114857 Z" fill="black" />
<circle cx="0.7777364095938333" cy="-0.0" r="0.002963445578940699" fill="black" />
<path d="M0.7777374899134557,-0.0007408589512465369 A266.66791666549483,266.66791666549483,0,0,0,0.5999428426643931,-0.001200128710138415 A0.5334438551086456,0.5334438551086456,0,0,0,0.5999428426788491,0.0012001287101059814 A266.66791666549483,266.66791666549483,0,0,0,0.7777374899134557,0.0007408589512465369 A0.25402313194932247,0.25402313194932247,0,0,1,0.7777374899544061,-0.0007408589511271607 Z" fill="black" />
<circle cx="0.6409281829922902" cy="-0.20513681229993133" r="0.004103474643642181" fill="black" />
<path d="M0.6399805491059519,-0.2055323121852161 A0.5323826234853127,0.5323826234853127,0,0,0,0.598740010918574,1.8040163412354378e-07 A3556.762339706555,3556.762339706555,0,0,1,0.601140278978539,-1.7959200704353862e-07 A0.534516869681379,0.534516869681379,0,0,1,0.6418746399984682,-0.20474361831148552 A0.6278036196530332,0.6278036196530332,0,0,1,0.639980549105952,-0.20553231218521617 Z" fill="black" />
<circle cx="0.3657640065038875" cy="-0.2926572160639383" r="0.005854263340739471" fill="black" />
<circle cx="0.5999209712221608" cy="-0.2666318199504035" r="0.004267517256583461" fill="black" />
<path d="M0.59992222532924,-0.26769816343861663 A1.071187532415602,1.071187532415602,0,0,1,0.3660858604819227,-0.29408392342988754 A1.3338694988621393,1.3338694988621393,0,0,0,0.36544327847611013,-0.2912281974268812 A1.0626503389754507,1.0626503389754507,0,0,0,0.59992211715993,-0.26556440947983107 A0.4742419700252823,0.4742419700252823,0,0,1,0.5999222253292402,-0.26769816343861663 Z" fill="black" />
<circle cx="0.43577662047451476" cy="-0.5128195703455373" r="0.0041033611898882195" fill="black" />
<path d="M0.4348297352493604,-0.5132152503414641 A1.3269682749043574,1.3269682749043574,0,0,0,0.36433552824653637,-0.2929794295097776 A1.0670348616871972,1.0670348616871972,0,0,0,0.3671913580539744,-0.29233731351930503 A1.3403073018894518,1.3403073018894518,0,0,1,0.4367237251742555,-0.512426469859348 A0.42680467392838567,0.42680467392838567,0,0,1,0.4348297352493607,-0.5132152503414651 Z" fill="black" />
<circle cx="0.09796325132365669" cy="-0.3920544976297485" r="0.006275223542087877" fill="black" />
<path d="M0.09722461150966932,-0.3906691530112474 A1.0628052063112619,1.0628052063112619,0,0,0,0.3654435400417116,-0.29122813889722843 A1.333564599347785,1.333564599347785,0,0,1,0.3660855997616477,-0.2940839823715391 A1.071344898298997,1.071344898298997,0,0,1,0.09870029786651002,-0.39343807776729434 A4.27149174157554,4.27149174157554,0,0,1,0.09722461150966977,-0.39066915301124805 Z" fill="black" />
<circle cx="0.09796325132365669" cy="0.3920544976297485" r="0.006275223542087877" fill="black" />
<circle cx="-0.06330725870888719" cy="0.11507626915351045" r="0.007370622324543561" fill="black" />
<path d="M-0.064863284772823,0.11606251953098123 A4.339759266136435,4.339759266136435,0,0,1,0.09657964096968197,0.3927933232301344 A1.0670700666408885,1.0670700666408885,0,0,1,0.09934845520565727,0.39131743627507365 A4.202961111655786,4.202961111655786,0,0,0,-0.06175032681883019,0.11408996276642513 A7.760291042105225,7.760291042105225,0,0,0,-0.064863284772823,0.11606251953098123 Z" fill="black" />
<circle cx="-0.12077818469660097" cy="0.5467430564323805" r="0.005148634952582794" fill="black" />
<path d="M-0.11991028369605516,0.5476925424235184 A1.0713449002722206,1.0713449002722206,0,0,1,0.09870029787666368,0.3934380777618879 A4.271491616008868,4.271491616008868,0,0,0,0.09722461149948991,0.39066915301667793 A1.0628052082531534,1.0628052082531534,0,0,0,-0.12164876575939942,0.5457939192154448 A0.7489426814921312,0.7489426814921312,0,0,1,-0.11991028369605505,0.5476925424235185 Z" fill="black" />
<circle cx="0.20761521666650098" cy="0.612873066671065" r="0.004359618944682946" fill="black" />
<path d="M0.20860565622372018,0.612417851767004 A4.202150314961188,4.202150314961188,0,0,0,0.09934841914062087,0.39131736837954856 A1.0670831303247033,1.0670831303247033,0,0,0,0.09657967720756411,0.3927933909695227 A4.338894836242084,4.338894836242084,0,0,1,0.20662613099689464,0.6133305534686682 A0.45166190738638695,0.45166190738638695,0,0,1,0.20860565622371996,0.6124178517670037 Z" fill="black" />
<circle cx="0.43577662047451476" cy="0.5128195703455373" r="0.0041033611898882195" fill="black" />
<circle cx="0.2804995589289633" cy="0.6236483392559498" r="0.003992870597879648" fill="black" />
<path d="M0.2812451601530543,0.62431029723425 A0.42750681643100774,0.42750681643100774,0,0,1,0.43617079736360054,0.5137653216694904 A1.3331412682944646,1.3331412682944646,0,0,1,0.43538222467707755,0.5118712394569962 A0.4261404881099836,0.4261404881099836,0,0,0,0.27975151446828117,0.6229856177162201 A0.9490972482856935,0.9490972482856935,0,0,1,0.28124516015305434,0.6243102972342501 Z" fill="black" />
<circle cx="0.5011539359456825" cy="0.6478515832293972" r="0.0024684979394498565" fill="black" />
<path d="M0.5016937050046613,0.6475527286676991 A1.340307312652384,1.340307312652384,0,0,1,0.43672372517325364,0.5124264698569247 A0.4268046735790949,0.4268046735790949,0,0,0,0.43482973525037594,0.5132152503438852 A1.326968285454126,1.326968285454126,0,0,0,0.5006148274085489,0.6481522144656634 A0.20323993581378083,0.20323993581378083,0,0,1,0.5016937050046608,0.6475527286676983 Z" fill="black" />
<circle cx="0.5999014172562022" cy="0.47998430543200543" r="0.003073000170847165" fill="black" />
<path d="M0.5999022198321255,0.4792153651010695 A0.42609686196561464,0.42609686196561464,0,0,0,0.43538192037492557,0.511871365931286 A1.3344770872249878,1.3344770872249878,0,0,0,0.4361711000124677,0.5137651953360344 A0.4274629100967618,0.4274629100967618,0,0,1,0.599902342729996,0.4807518626819939 A0.34152298437864925,0.34152298437864925,0,0,1,0.5999022198321255,0.47921536510106943 Z" fill="black" />
<circle cx="0.5999209712221608" cy="0.2666318199504035" r="0.004267517256583461" fill="black" />
<circle cx="0.6308380084807544" cy="0.4351309829446558" r="0.0030952832605323985" fill="black" />
<path d="M0.6315611100375522,0.4348572228342076 A0.47504439114652813,0.47504439114652813,0,0,1,0.6009866501006997,0.2666325275856415 A1.067414644429711,1.067414644429711,0,0,0,0.5988528918341862,0.26663217826502517 A0.4733579039224554,0.4733579039224554,0,0,0,0.6301143766442096,0.43540690272117927 A0.3271191875243018,0.3271191875243018,0,0,1,0.6315611100375522,0.43485722283420775 Z" fill="black" />
<circle cx="0.7571149292565722" cy="0.27826743681427135" r="0.0026200816312922336" fill="black" />
<path d="M0.7572123939981071,0.2776195063025251 A1.062650347373393,1.062650347373393,0,0,0,0.599922117163697,0.2655644094798393 A0.474241969281794,0.474241969281794,0,0,0,0.5999222253254815,0.2676981634386253 A1.0711875409490221,1.0711875409490221,0,0,1,0.7570194426900674,0.2789152553154406 A0.22114796820247357,0.22114796820247357,0,0,1,0.7572123939981066,0.277619506302525 Z" fill="black" />
<circle cx="0.6434649122479467" cy="0.06805782256046547" r="0.004359907796205528" fill="black" />
<path d="M0.642474051492731,0.06760068263387228 A0.47342089808617077,0.47342089808617077,0,0,0,0.5988528921504622,0.2666324989989768 A1.066694467898063,1.066694467898063,0,0,1,0.6009866504243269,0.2666322082915775 A0.47510783501320936,0.47510783501320936,0,0,1,0.6444538529919058,0.0685131435894166 A1.4006063792860413,1.4006063792860413,0,0,1,0.6424740514927311,0.06760068263387242 Z" fill="black" />
<circle cx="0.6409281829922902" cy="0.20513681229993133" r="0.004103474643642181" fill="black" />
<circle cx="0.45832599537253144" cy="0.3216555094343527" r="0.005148562614122289" fill="black" />
<path d="M0.45919450561902,0.32260367899743175 A0.6292752419904003,0.6292752419904003,0,0,1,0.6413231334041918,0.2060826979285304 A0.5334525983550236,0.5334525983550236,0,0,1,0.6405344093782934,0.20418862073400765 A0.6263193016206782,0.6263193016206782,0,0,0,0.45745613322323214,0.32070499962012256 A2.840609415170886,2.840609415170886,0,0,0,0.4591945056190214,0.32260367899743336 Z" fill="black" />
<circle cx="0.7222684176058101" cy="0.33999943995109805" r="0.0027204653532160415" fill="black" />
<path d="M0.7227928234095333,0.33956704466731885 A0.5345168731568559,0.5345168731568559,0,0,1,0.6418746399954743,0.2047436183042622 A0.6278036140104596,0.6278036140104596,0,0,0,0.6399805491089812,0.20553231219245782 A0.5323826269330907,0.5323826269330907,0,0,0,0.7217445173558732,0.3404338074566366 A0.25110189749196,0.25110189749196,0,0,1,0.7227928234095337,0.33956704466731913 Z" fill="black" />
<circle cx="0.7898377601155325" cy="0.16370845921177835" r="0.0026201688980863804" fill="black" />
<path d="M0.7897421015341106,0.1630600950774751 A0.6261591241796298,0.6261591241796298,0,0,0,0.6405342025239722,0.20418870643149978 A0.5335514021797392,0.5335514021797392,0,0,0,0.6413233392534692,0.20608261171840406 A0.6291135492483269,0.6291135492483269,0,0,1,0.7899351573645378,0.16435587310823951 A0.2307227885181782,0.2307227885181782,0,0,1,0.7897421015341106,0.16306009507747507 Z" fill="black" />
<circle cx="0.7777364095938333" cy="-0.0" r="0.002963445578940699" fill="black" />
<circle cx="0.8097019040131448" cy="0.12341129428956615" r="0.002468643593094466" fill="black" />
<path d="M0.810241028496385,0.12311245078294923 A0.25426713492755765,0.25426713492755765,0,0,1,0.7784761913167304,1.4362504595968737e-07 A1306.514580198487,1306.514580198487,0,0,1,0.7769944672367304,-1.444650479243137e-07 A0.25378317179624177,0.25378317179624177,0,0,0,0.8091620319950322,0.12371187974729188 A0.3284304594852383,0.3284304594852383,0,0,1,0.810241028496385,0.12311245078294919 Z" fill="black" />
<circle cx="0.8823294781706582" cy="-0.0" r="0.0016612101896332045" fill="black" />
<path d="M0.882330165156835,-0.0004153009243168526 A266.66791666549483,266.66791666549483,0,0,0,0.7777374899134557,-0.0007408589512465369 A0.25402313194932247,0.25402313194932247,0,0,0,0.7777374899544061,0.0007408589511271607 A266.66791666549483,266.66791666549483,0,0,0,0.882330165156835,0.0004153009243168526 A0.12551699644577263,0.12551699644577263,0,0,1,0.8823301652303174,-0.00041530092407350116 Z" fill="black" />
<circle cx="0.8097019040131448" cy="-0.12341129428956615" r="0.002468643593094466" fill="black" />
<path d="M0.8091620319950322,-0.12371187974729188 A0.25378317179624177,0.25378317179624177,0,0,0,0.7769944671407645,1.4446506653226552e-07 A1306.5145801999788,1306.5145801999788,0,0,1,0.7784761924928691,-1.436251295672264e-07 A0.25426713492755765,0.25426713492755765,0,0,1,0.810241028496385,-0.12311245078294923 A0.3284304594852381,0.3284304594852381,0,0,1,0.8091620319950322,-0.12371187974729186 Z" fill="black" />
<circle cx="0.6409281829922902" cy="-0.20513681229993133" r="0.004103474643642181" fill="black" />
<circle cx="0.7898377601155325" cy="-0.16370845921177835" r="0.0026201688980863804" fill="black" />
<path d="M0.7899351573645378,-0.16435587310823951 A0.6291135492483269,0.6291135492483269,0,0,1,0.641323339253469,-0.20608261171840414 A0.5335514021797392,0.5335514021797392,0,0,0,0.6405342025239722,-0.2041887064314998 A0.6261591241796298,0.6261591241796298,0,0,0,0.7897421015341106,-0.1630600950774751 A0.2307227885181782,0.2307227885181782,0,0,1,0.7899351573645376,-0.16435587310823954 Z" fill="black" />
<circle cx="0.7222684176058101" cy="-0.33999943995109805" r="0.0027204653532160415" fill="black" />
<path d="M0.7217445173558732,-0.3404338074566366 A0.5323826269330907,0.5323826269330907,0,0,0,0.6399805491089812,-0.20553231219245782 A0.6278036140104596,0.6278036140104596,0,0,0,0.6418746399954747,-0.20474361830426224 A0.5345168731568559,0.5345168731568559,0,0,1,0.7227928234095333,-0.33956704466731885 A0.25110189749196,0.25110189749196,0,0,1,0.7217445173558732,-0.34043380745663654 Z" fill="black" />
<circle cx="0.45832599537253144" cy="-0.3216555094343527" r="0.005148562614122289" fill="black" />
<path d="M0.45745613322323214,-0.32070499962012256 A0.6263193016206782,0.6263193016206782,0,0,0,0.6405344093782934,-0.20418862073400756 A0.5334525983550232,0.5334525983550232,0,0,1,0.641323133404192,-0.20608269792853032 A0.6292752419904003,0.6292752419904003,0,0,1,0.45919450561902,-0.32260367899743175 A2.840609415170879,2.840609415170879,0,0,0,0.45745613322323164,-0.32070499962012144 Z" fill="black" />
<circle cx="0.5999209712221608" cy="-0.2666318199504035" r="0.004267517256583461" fill="black" />
<circle cx="0.6434649122479467" cy="-0.06805782256046547" r="0.004359907796205528" fill="black" />
<path d="M0.6444538529919058,-0.0685131435894166 A0.47510783501320936,0.47510783501320936,0,0,1,0.6009866504243272,-0.2666322082915776 A1.0666944678980625,1.0666944678980625,0,0,1,0.598852892150462,-0.2666324989989768 A0.47342089808617077,0.47342089808617077,0,0,0,0.642474051492731,-0.06760068263387228 A1.4006063792860413,1.4006063792860413,0,0,1,0.6444538529919057,-0.0685131435894164 Z" fill="black" />
<circle cx="0.7571149292565722" cy="-0.27826743681427135" r="0.0026200816312922336" fill="black" />
<path d="M0.7570194426900674,-0.2789152553154406 A1.0711875409490221,1.0711875409490221,0,0,1,0.5999222253254815,-0.2676981634386255 A0.474241969281794,0.474241969281794,0,0,0,0.5999221171636973,-0.2655644094798391 A1.062650347373393,1.062650347373393,0,0,0,0.7572123939981071,-0.2776195063025251 A0.22114796820247362,0.22114796820247362,0,0,1,0.7570194426900682,-0.2789152553154407 Z" fill="black" />
<circle cx="0.6308380084807544" cy="-0.4351309829446558" r="0.0030952832605323985" fill="black" />
<path d="M0.6301143766442097,-0.43540690272117966 A0.4733579039224554,0.4733579039224554,0,0,0,0.598852891834186,-0.2666321782650253 A1.067414644429712,1.067414644429712,0,0,0,0.6009866501006996,-0.2666325275856416 A0.47504439114652813,0.47504439114652813,0,0,1,0.6315611100375523,-0.43485722283420797 A0.32711918752430186,0.32711918752430186,0,0,1,0.6301143766442097,-0.4354069027211794 Z" fill="black" />
<circle cx="0.43577662047451476" cy="-0.5128195703455373" r="0.0041033611898882195" fill="black" />
<circle cx="0.5999014172562022" cy="-0.47998430543200543" r="0.003073000170847165" fill="black" />
<path d="M0.5999023427299963,-0.4807518626819939 A0.4274629100967618,0.4274629100967618,0,0,1,0.43617110001246845,-0.5137651953360345 A1.3344770872249878,1.3344770872249878,0,0,0,0.43538192037492585,-0.511871365931286 A0.42609686196561464,0.42609686196561464,0,0,0,0.5999022198321255,-0.4792153651010695 A0.34152298437864936,0.34152298437864936,0,0,1,0.5999023427299962,-0.4807518626819939 Z" fill="black" />
<circle cx="0.5011539359456825" cy="-0.6478515832293972" r="0.0024684979394498565" fill="black" />
<path d="M0.5006148274085489,-0.6481522144656634 A1.326968285454126,1.326968285454126,0,0,0,0.4348297352503758,-0.513215250343885 A0.4268046735790949,0.4268046735790949,0,0,0,0.43672372517325353,-0.5124264698569245 A1.340307312652384,1.340307312652384,0,0,1,0.5016937050046613,-0.6475527286676991 A0.20323993581378083,0.20323993581378083,0,0,1,0.5006148274085488,-0.6481522144656633 Z" fill="black" />
<circle cx="0.2804995589289633" cy="-0.6236483392559498" r="0.003992870597879648" fill="black" />
<path d="M0.27975151446828117,-0.6229856177162201 A0.4261404881099836,0.4261404881099836,0,0,0,0.43538222467707727,-0.5118712394569964 A1.333141268294464,1.333141268294464,0,0,1,0.4361707973636,-0.5137653216694902 A0.42750681643100774,0.42750681643100774,0,0,1,0.2812451601530543,-0.62431029723425 A0.9490972482856936,0.9490972482856936,0,0,1,0.2797515144682813,-0.6229856177162202 Z" fill="black" />
<circle cx="0.09796325132365669" cy="-0.3920544976297485" r="0.006275223542087877" fill="black" />
<circle cx="0.20761521666650098" cy="-0.612873066671065" r="0.004359618944682946" fill="black" />
<path d="M0.20662613099689464,-0.6133305534686682 A4.338894836242084,4.338894836242084,0,0,1,0.09657967720756444,-0.3927933909695236 A1.0670831303247033,1.0670831303247033,0,0,0,0.09934841914062076,-0.39131736837954867 A4.202150314961188,4.202150314961188,0,0,0,0.20860565622372018,-0.612417851767004 A0.451661907386387,0.451661907386387,0,0,1,0.2066261309968937,-0.6133305534686657 Z" fill="black" />
<circle cx="-0.12077818469660097" cy="-0.5467430564323805" r="0.005148634952582794" fill="black" />
<path d="M-0.12164876575939942,-0.5457939192154448 A1.0628052082531534,1.0628052082531534,0,0,0,0.0972246114994898,-0.3906691530166776 A4.271491616008862,4.271491616008862,0,0,0,0.09870029787666423,-0.39343807776189 A1.0713449002722206,1.0713449002722206,0,0,1,-0.11991028369605516,-0.5476925424235184 A0.7489426814921311,0.7489426814921311,0,0,1,-0.12164876575939954,-0.5457939192154451 Z" fill="black" />
<circle cx="-0.06330725870888719" cy="-0.11507626915351045" r="0.007370622324543561" fill="black" />
<path d="M-0.06175032681883019,-0.11408996276642513 A4.202961111655786,4.202961111655786,0,0,0,0.09934845520565716,-0.39131743627507354 A1.0670700666408885,1.0670700666408885,0,0,1,0.09657964096968141,-0.39279332323013294 A4.339759266136435,4.339759266136435,0,0,1,-0.064863284772823,-0.11606251953098123 A7.760291042105208,7.760291042105208,0,0,0,-0.06175032681882975,-0.11408996276642469 Z" fill="black" />
<circle cx="2.040757540308503e-17" cy="-0.3332809985261642" r="0.006666928320160522" fill="black" />
<path d="M-0.0016667294760281948,-0.3332820400716614 A266.66791666549483,266.66791666549483,0,0,0,-0.0018749978027585712,-1.6328815339487446e-14 L0.0018749978027585712,1.1481050287657882e-19 A266.66791666549483,266.66791666549483,0,0,0,0.0016667294760281948,-0.3332820400716289 A1.3335950443505682,1.3335950443505682,0,0,1,-0.001666729476033539,-0.33328204006731377 Z" fill="black" />
<circle cx="2.040757540308503e-17" cy="-0.3332809985261642" r="0.006666928320160522" fill="black" />
<circle cx="0.29265721606393846" cy="-0.3657640065038864" r="0.005854263340739476" fill="black" />
<path d="M0.2923373135264742,-0.367191358055575 A1.3403072934301536,1.3403072934301536,0,0,1,1.386928742850099e-07,-0.3349466877561331 A16006.268128108819,16006.268128108819,0,0,1,-1.3903991202823818e-07,-0.3316132478670304 A1.3269682666125988,1.3269682666125988,0,0,0,0.29297942950259653,-0.36433552824491033 A1.0670348659770363,1.0670348659770363,0,0,1,0.2923373135264742,-0.3671913580555749 Z" fill="black" />
<circle cx="3.673582143353385e-17" cy="-0.5999414926672879" r="0.004800526540321098" fill="black" />
<path d="M-0.001200128710138415,-0.599942842664334 A266.66791666549483,266.66791666549483,0,0,0,-0.0016667294760281948,-0.3332820400716614 A1.3335950443505682,1.3335950443505682,0,0,0,0.0016667294760333146,-0.33328204006731377 A266.66791666549483,266.66791666549483,0,0,0,0.001200128710138415,-0.5999428426643734 A0.5334438551086456,0.5334438551086456,0,0,1,-0.0012001287101059326,-0.5999428426788491 Z" fill="black" />
<circle cx="-0.2926572160639383" cy="-0.36576400650388724" r="0.005854263340739472" fill="black" />
<path d="M-0.29297942950259637,-0.3643355282449112 A1.3269682666125986,1.3269682666125986,0,0,0,1.3904174436613558e-07,-0.33161322621229883 A16006.268128791342,16006.268128791342,0,0,1,-1.3869248505216092e-07,-0.33494668365647606 A1.3403072934301536,1.3403072934301536,0,0,1,-0.2923373135264738,-0.3671913580555757 A1.067034865977034,1.067034865977034,0,0,1,-0.29297942950259626,-0.3643355282449113 Z" fill="black" />
<circle cx="0.29265721606393846" cy="-0.3657640065038864" r="0.005854263340739476" fill="black" />
<circle cx="0.3920544976297494" cy="-0.09796325132365574" r="0.006275223542087873" fill="black" />
<path d="M0.39343807776729556,-0.09870029786650936 A1.0713448982989962,1.0713448982989962,0,0,1,0.2940839823715393,-0.3660855997616466 A1.333564599347794,1.333564599347794,0,0,1,0.2912281388972287,-0.36544354004171087 A1.062805206311261,1.062805206311261,0,0,0,0.3906691530112484,-0.09722461150966855 A4.27149174157543,4.27149174157543,0,0,1,0.3934380777672928,-0.09870029786650791 Z" fill="black" />
<circle cx="0.5128195703455383" cy="-0.43577662047451243" r="0.004103361189888226" fill="black" />
<path d="M0.5124264698593485,-0.4367237251742533 A1.3403073018894471,1.3403073018894471,0,0,1,0.2923373135193047,-0.3671913580539732 A1.0670348616872067,1.0670348616872067,0,0,0,0.29297942950977673,-0.36433552824653515 A1.3269682749043525,1.3269682749043525,0,0,0,0.5132152503414649,-0.4348297352493584 A0.4268046739283875,0.4268046739283875,0,0,1,0.5124264698593483,-0.4367237251742532 Z" fill="black" />
<circle cx="0.2666318199504041" cy="-0.5999209712221599" r="0.004267517256583468" fill="black" />
<path d="M0.26556440947983173,-0.5999221171599296 A1.0626503389754534,1.0626503389754534,0,0,0,0.2912281974268811,-0.3654432784761091 A1.3338694988621436,1.3338694988621436,0,0,0,0.2940839234298878,-0.3660858604819215 A1.0711875324156048,1.0711875324156048,0,0,1,0.2676981634386175,-0.5999222253292391 A0.47424197002528284,0.47424197002528284,0,0,1,0.2655644094798319,-0.5999221171599296 Z" fill="black" />
<circle cx="3.673582143353385e-17" cy="-0.5999414926672879" r="0.004800526540321098" fill="black" />
<circle cx="0.20513681229993133" cy="-0.64092818299229" r="0.004103474643642181" fill="black" />
<path d="M0.2047436183114858,-0.6418746399984679 A0.534516869681379,0.534516869681379,0,0,1,1.7959119580254453e-07,-0.6011402743861675 A3556.762339664429,3556.762339664429,0,0,1,-1.8040145732811652e-07,-0.5987400117131573 A0.5323826234853127,0.5323826234853127,0,0,0,0.20553231218521606,-0.6399805491059516 A0.6278036196530336,0.6278036196530336,0,0,1,0.2047436183114857,-0.6418746399984682 Z" fill="black" />
<circle cx="4.7622620229472144e-17" cy="-0.7777364095938333" r="0.002963445578940699" fill="black" />
<path d="M-0.0007408589512465369,-0.7777374899134557 A266.66791666549483,266.66791666549483,0,0,0,-0.001200128710138415,-0.599942842664334 A0.5334438551086456,0.5334438551086456,0,0,0,0.0012001287101058998,-0.5999428426788491 A266.66791666549483,266.66791666549483,0,0,0,0.0007408589512465369,-0.777737489913481 A0.25402313194932247,0.25402313194932247,0,0,1,-0.0007408589511271637,-0.7777374899544061 Z" fill="black" />
<circle cx="-0.2051368122999309" cy="-0.6409281829922909" r="0.004103474643642175" fill="black" />
<path d="M-0.20553231218521564,-0.6399805491059525 A0.5323826234853128,0.5323826234853128,0,0,0,1.804016324426916e-07,-0.5987400109185739 A3556.762339777643,3556.762339777643,0,0,1,-1.7959200704353862e-07,-0.6011402789672479 A0.534516869681379,0.534516869681379,0,0,1,-0.20474361831148521,-0.6418746399984689 A0.627803619653029,0.627803619653029,0,0,1,-0.20553231218521573,-0.6399805491059525 Z" fill="black" />
<circle cx="-0.2926572160639383" cy="-0.36576400650388724" r="0.005854263340739472" fill="black" />
<circle cx="-0.2666318199504031" cy="-0.5999209712221606" r="0.004267517256583465" fill="black" />
<path d="M-0.2676981634386164,-0.5999222253292402 A1.0711875324156008,1.0711875324156008,0,0,1,-0.29408392342988754,-0.3660858604819226 A1.3338694988621445,1.3338694988621445,0,0,0,-0.2912281974268816,-0.3654432784761099 A1.0626503389754498,1.0626503389754498,0,0,0,-0.26556440947983084,-0.5999221171599304 A0.47424197002528284,0.47424197002528284,0,0,1,-0.26769816343861635,-0.59992222532924 Z" fill="black" />
<circle cx="-0.5128195703455372" cy="-0.4357766204745148" r="0.0041033611898882195" fill="black" />
<path d="M-0.5132152503414649,-0.43482973524936086 A1.3269682749043623,1.3269682749043623,0,0,0,-0.29297942950977723,-0.36433552824653614 A1.0670348616871963,1.0670348616871963,0,0,0,-0.29233731351930503,-0.36719135805397407 A1.3403073018894565,1.3403073018894565,0,0,1,-0.512426469859347,-0.4367237251742555 A0.4268046739283856,0.4268046739283856,0,0,1,-0.5132152503414648,-0.43482973524936086 Z" fill="black" />
<circle cx="-0.392054497629753" cy="-0.09796325132365892" r="0.006275223542087847" fill="black" />
<path d="M-0.3906691530112518,-0.0972246115096721 A1.0628052063112488,1.0628052063112488,0,0,0,-0.29122813889722865,-0.36544354004171176 A1.333564599347814,1.333564599347814,0,0,1,-0.29408398237153854,-0.3660855997616477 A1.0713448982989837,1.0713448982989837,0,0,1,-0.3934380777672992,-0.09870029786651202 A4.271491741575202,4.271491741575202,0,0,1,-0.3906691530112507,-0.09722461150967154 Z" fill="black" />
<circle cx="0.3920544976297494" cy="-0.09796325132365574" r="0.006275223542087873" fill="black" />
<circle cx="0.11507626915351234" cy="0.06330725870888966" r="0.0073706223245435555" fill="black" />
<path d="M0.11606251953098434,0.06486328477282521 A4.339759266136284,4.339759266136284,0,0,1,0.39279332323013305,-0.09657964096967975 A1.0670700666408899,1.0670700666408899,0,0,1,0.39131743627507376,-0.09934845520565705 A4.202961111655648,4.202961111655648,0,0,0,0.11408996276642691,0.061750326818831525 A7.760291042105409,7.760291042105409,0,0,0,0.11606251953098479,0.06486328477282921 Z" fill="black" />
<circle cx="0.5467430564323832" cy="0.12077818469659976" r="0.005148634952582775" fill="black" />
<path d="M0.5476925424235205,0.11991028369605339 A1.0713449002722213,1.0713449002722213,0,0,1,0.393438077761889,-0.09870029787666257 A4.271491616008642,4.271491616008642,0,0,0,0.3906691530166815,-0.0972246114994908 A1.062805208253154,1.062805208253154,0,0,0,0.5457939192154475,0.12164876575939854 A0.7489426814921224,0.7489426814921224,0,0,1,0.5476925424235208,0.11991028369605405 Z" fill="black" />
<circle cx="0.6128730666710649" cy="-0.20761521666650118" r="0.004359618944682947" fill="black" />
<path d="M0.6124178517670049,-0.20860565622371885 A4.202150314961058,4.202150314961058,0,0,0,0.39131736837955367,-0.09934841914061998 A1.067083130324699,1.067083130324699,0,0,0,0.39279339096952515,-0.09657967720756255 A4.338894836241942,4.338894836241942,0,0,1,0.6133305534686686,-0.2066261309968933 A0.45166190738638695,0.45166190738638695,0,0,1,0.6124178517670045,-0.20860565622371854 Z" fill="black" />
<circle cx="0.5128195703455383" cy="-0.43577662047451243" r="0.004103361189888226" fill="black" />
<circle cx="0.6236483392559498" cy="-0.28049955892896" r="0.003992870597879661" fill="black" />
<path d="M0.62431029723425,-0.2812451601530508 A0.427506816431009,0.427506816431009,0,0,1,0.5137653216694913,-0.4361707973635983 A1.3331412682944492,1.3331412682944492,0,0,1,0.5118712394569974,-0.43538222467707555 A0.42614048810998517,0.42614048810998517,0,0,0,0.6229856177162201,-0.27975151446827784 A0.9490972482857087,0.9490972482857087,0,0,1,0.6243102972342497,-0.2812451601530504 Z" fill="black" />
<circle cx="0.6478515832293988" cy="-0.5011539359456797" r="0.002468497939449861" fill="black" />
<path d="M0.6475527286677003,-0.5016937050046579 A1.3403073126523841,1.3403073126523841,0,0,1,0.5124264698569256,-0.436723725173251 A0.4268046735790957,0.4268046735790957,0,0,0,0.5132152503438867,-0.4348297352503736 A1.3269682854541256,1.3269682854541256,0,0,0,0.6481522144656638,-0.5006148274085453 A0.20323993581378186,0.20323993581378186,0,0,1,0.6475527286676998,-0.5016937050046576 Z" fill="black" />
<circle cx="0.47998430543200754" cy="-0.5999014172562005" r="0.003073000170847165" fill="black" />
<path d="M0.4792153651010718,-0.5999022198321241 A0.4260968619656161,0.4260968619656161,0,0,0,0.511871365931287,-0.4353819203749234 A1.3344770872249736,1.3344770872249736,0,0,0,0.5137651953360362,-0.4361711000124662 A0.42746291009676307,0.42746291009676307,0,0,1,0.48075186268199627,-0.5999023427299948 A0.34152298437864803,0.34152298437864803,0,0,1,0.4792153651010718,-0.599902219832124 Z" fill="black" />
<circle cx="0.2666318199504041" cy="-0.5999209712221599" r="0.004267517256583468" fill="black" />
<circle cx="0.4351309829446569" cy="-0.6308380084807533" r="0.003095283260532401" fill="black" />
<path d="M0.43485722283420913,-0.6315611100375511 A0.47504439114652947,0.47504439114652947,0,0,1,0.266632527585642,-0.6009866501006988 A1.0674146444297161,1.0674146444297161,0,0,0,0.2666321782650256,-0.5988528918341853 A0.4733579039224566,0.4733579039224566,0,0,0,0.43540690272118054,-0.6301143766442083 A0.3271191875243017,0.3271191875243017,0,0,1,0.4348572228342091,-0.631561110037551 Z" fill="black" />
<circle cx="0.27826743681427274" cy="-0.7571149292565714" r="0.002620081631292237" fill="black" />
<path d="M0.2776195063025271,-0.757212393998106 A1.062650347373408,1.062650347373408,0,0,0,0.2655644094798404,-0.5999221171636956 A0.4742419692817939,0.4742419692817939,0,0,0,0.26769816343862624,-0.5999222253254806 A1.0711875409490375,1.0711875409490375,0,0,1,0.27891525531544237,-0.7570194426900673 A0.22114796820247365,0.22114796820247365,0,0,1,0.27761950630252685,-0.7572123939981057 Z" fill="black" />
<circle cx="0.0680578225604661" cy="-0.6434649122479468" r="0.0043599077962055265" fill="black" />
<path d="M0.06760068263387264,-0.6424740514927313 A0.473420898086171,0.473420898086171,0,0,0,0.2666324989989775,-0.5988528921504613 A1.0666944678980748,1.0666944678980748,0,0,1,0.2666322082915782,-0.6009866504243258 A0.4751078350132096,0.4751078350132096,0,0,1,0.06851314358941679,-0.6444538529919064 A1.400606379286017,1.400606379286017,0,0,1,0.06760068263387287,-0.642474051492732 Z" fill="black" />
<circle cx="0.20513681229993133" cy="-0.64092818299229" r="0.004103474643642181" fill="black" />
<circle cx="0.3216555094343532" cy="-0.4583259953725313" r="0.0051485626141222875" fill="black" />
<path d="M0.32260367899743264,-0.45919450561901975 A0.6292752419903989,0.6292752419903989,0,0,1,0.2060826979285305,-0.641323133404192 A0.5334525983550246,0.5334525983550246,0,0,1,0.20418862073400748,-0.6405344093782932 A0.6263193016206764,0.6263193016206764,0,0,0,0.3207049996201225,-0.45745613322323253 A2.8406094151709165,2.8406094151709165,0,0,0,0.3226036789974327,-0.45919450561902053 Z" fill="black" />
<circle cx="0.339999439951098" cy="-0.7222684176058101" r="0.0027204653532160415" fill="black" />
<path d="M0.3395670446673193,-0.7227928234095338 A0.5345168731568565,0.5345168731568565,0,0,1,0.20474361830426205,-0.6418746399954743 A0.6278036140104601,0.6278036140104601,0,0,0,0.2055323121924576,-0.6399805491089808 A0.5323826269330912,0.5323826269330912,0,0,0,0.340433807456637,-0.7217445173558734 A0.2511018974919594,0.2511018974919594,0,0,1,0.33956704466731946,-0.7227928234095339 Z" fill="black" />
<circle cx="0.1637084592117781" cy="-0.7898377601155324" r="0.0026201688980863804" fill="black" />
<path d="M0.16306009507747465,-0.789742101534111 A0.6261591241796273,0.6261591241796273,0,0,0,0.20418870643149978,-0.640534202523972 A0.5335514021797413,0.5335514021797413,0,0,0,0.20608261171840458,-0.6413233392534692 A0.6291135492483245,0.6291135492483245,0,0,1,0.16435587310823951,-0.7899351573645375 A0.2307227885181784,0.2307227885181784,0,0,1,0.1630600950774748,-0.7897421015341105 Z" fill="black" />
<circle cx="4.7622620229472144e-17" cy="-0.7777364095938333" r="0.002963445578940699" fill="black" />
<circle cx="0.12341129428956628" cy="-0.8097019040131448" r="0.002468643593094466" fill="black" />
<path d="M0.12311245078294943,-0.810241028496385 A0.25426713492755765,0.25426713492755765,0,0,1,1.436249012607644e-07,-0.7784761913167304 A1306.5145801925187,1306.5145801925187,0,0,1,-1.444650479243137e-07,-0.7769944672379319 A0.25378317179624177,0.25378317179624177,0,0,0,0.12371187974729211,-0.8091620319950322 A0.3284304594852377,0.3284304594852377,0,0,1,0.12311245078294941,-0.810241028496385 Z" fill="black" />
<circle cx="5.402709856175249e-17" cy="-0.8823294781706582" r="0.0016612101896332045" fill="black" />
<path d="M-0.0004153009243168526,-0.8823301651567759 A266.66791666549483,266.66791666549483,0,0,0,-0.0007408589512465369,-0.7777374899134557 A0.25402313194932247,0.25402313194932247,0,0,0,0.0007408589511272084,-0.7777374899544061 A266.66791666549483,266.66791666549483,0,0,0,0.0004153009243168526,-0.8823301651567761 A0.12551699644577263,0.12551699644577263,0,0,1,-0.0004153009240735279,-0.8823301652303174 Z" fill="black" />
<circle cx="-0.12341129428956622" cy="-0.8097019040131448" r="0.002468643593094466" fill="black" />
<path d="M-0.12371187974729167,-0.8091620319950321 A0.25378317179624166,0.25378317179624166,0,0,0,1.4446492139844871e-07,-0.7769944671407647 A1306.5145801887884,1306.5145801887884,0,0,1,-1.4362490219355095e-07,-0.7784761910048215 A0.2542671349275574,0.2542671349275574,0,0,1,-0.12311245078294929,-0.8102410284963847 A0.32843045948523886,0.32843045948523886,0,0,1,-0.12371187974729192,-0.8091620319950321 Z" fill="black" />
<circle cx="-0.2051368122999309" cy="-0.6409281829922909" r="0.004103474643642175" fill="black" />
<circle cx="-0.16370845921177743" cy="-0.789837760115533" r="0.002620168898086376" fill="black" />
<path d="M-0.16435587310823885,-0.7899351573645382 A0.6291135492483222,0.6291135492483222,0,0,1,-0.20608261171840392,-0.6413233392534698 A0.5335514021797401,0.5335514021797401,0,0,0,-0.2041887064314992,-0.6405342025239726 A0.6261591241796252,0.6261591241796252,0,0,0,-0.1630600950774741,-0.7897421015341112 A0.2307227885181779,0.2307227885181779,0,0,1,-0.16435587310823882,-0.789935157364538 Z" fill="black" />
<circle cx="-0.3399994399510969" cy="-0.722268417605811" r="0.002720465353216038" fill="black" />
<path d="M-0.3404338074566358,-0.7217445173558743 A0.5323826269330904,0.5323826269330904,0,0,0,-0.20553231219245718,-0.6399805491089818 A0.6278036140104576,0.6278036140104576,0,0,0,-0.2047436183042617,-0.6418746399954751 A0.5345168731568553,0.5345168731568553,0,0,1,-0.3395670446673185,-0.7227928234095348 A0.2511018974919588,0.2511018974919588,0,0,1,-0.3404338074566358,-0.7217445173558743 Z" fill="black" />
<circle cx="-0.3216555094343534" cy="-0.45832599537253316" r="0.0051485626141222745" fill="black" />
<path d="M-0.3207049996201229,-0.4574561332232342 A0.6263193016206731,0.6263193016206731,0,0,0,-0.20418862073400723,-0.6405344093782942 A0.5334525983550239,0.5334525983550239,0,0,1,-0.2060826979285302,-0.6413231334041929 A0.6292752419903954,0.6292752419903954,0,0,1,-0.3226036789974329,-0.45919450561902175 A2.8406094151709524,2.8406094151709524,0,0,0,-0.320704999620121,-0.45745613322323253 Z" fill="black" />
<circle cx="-0.2666318199504031" cy="-0.5999209712221606" r="0.004267517256583465" fill="black" />
<circle cx="-0.06805782256046451" cy="-0.6434649122479456" r="0.0043599077962055395" fill="black" />
<path d="M-0.06851314358941535,-0.6444538529919046 A0.4751078350132111,0.4751078350132111,0,0,1,-0.2666322082915771,-0.6009866504243269 A1.066694467898055,1.066694467898055,0,0,1,-0.26663249899897634,-0.598852892150462 A0.4734208980861725,0.4734208980861725,0,0,0,-0.06760068263387103,-0.6424740514927296 A1.4006063792860592,1.4006063792860592,0,0,1,-0.06851314358941485,-0.6444538529919037 Z" fill="black" />
<circle cx="-0.2782674368142709" cy="-0.7571149292565721" r="0.002620081631292237" fill="black" />
<path d="M-0.27891525531544037,-0.7570194426900672 A1.071187540949026,1.071187540949026,0,0,1,-0.2676981634386253,-0.5999222253254812 A0.4742419692817946,0.4742419692817946,0,0,0,-0.26556440947983895,-0.5999221171636968 A1.0626503473733966,1.0626503473733966,0,0,0,-0.27761950630252485,-0.7572123939981069 A0.22114796820247382,0.22114796820247382,0,0,1,-0.27891525531544054,-0.757019442690068 Z" fill="black" />
<circle cx="-0.43513098294465535" cy="-0.6308380084807547" r="0.0030952832605324002" fill="black" />
<path d="M-0.43540690272117893,-0.6301143766442097 A0.473357903922457,0.473357903922457,0,0,0,-0.2666321782650247,-0.5988528918341857 A1.0674146444297086,1.0674146444297086,0,0,0,-0.26663252758564115,-0.6009866501006998 A0.47504439114652997,0.47504439114652997,0,0,1,-0.4348572228342076,-0.6315611100375526 A0.3271191875243014,0.3271191875243014,0,0,1,-0.43540690272117905,-0.6301143766442097 Z" fill="black" />
<circle cx="-0.5128195703455372" cy="-0.4357766204745148" r="0.0041033611898882195" fill="black" />
<circle cx="-0.4799843054320052" cy="-0.5999014172562022" r="0.003073000170847168" fill="black" />
<path d="M-0.4807518626819937,-0.5999023427299961 A0.42746291009676174,0.42746291009676174,0,0,1,-0.5137651953360346,-0.4361711000124684 A1.3344770872249896,1.3344770872249896,0,0,0,-0.5118713659312853,-0.4353819203749256 A0.4260968619656147,0.4260968619656147,0,0,0,-0.4792153651010691,-0.5999022198321258 A0.3415229843786497,0.3415229843786497,0,0,1,-0.4807518626819937,-0.5999023427299962 Z" fill="black" />
<circle cx="-0.6478515832293971" cy="-0.5011539359456829" r="0.002468497939449854" fill="black" />
<path d="M-0.6481522144656617,-0.5006148274085482 A1.326968285454137,1.326968285454137,0,0,0,-0.5132152503438859,-0.43482973525037627 A0.4268046735790937,0.4268046735790937,0,0,0,-0.512426469856925,-0.43672372517325386 A1.3403073126523952,1.3403073126523952,0,0,1,-0.6475527286676982,-0.5016937050046613 A0.2032399358137804,0.2032399358137804,0,0,1,-0.6481522144656633,-0.5006148274085491 Z" fill="black" />
<circle cx="-0.6236483392559501" cy="-0.28049955892896383" r="0.003992870597879641" fill="black" />
<path d="M-0.6229856177162205,-0.27975151446828167 A0.4261404881099832,0.4261404881099832,0,0,0,-0.5118712394569962,-0.4353822246770775 A1.3331412682944737,1.3331412682944737,0,0,1,-0.5137653216694907,-0.4361707973636004 A0.42750681643100696,0.42750681643100696,0,0,1,-0.6243102972342502,-0.2812451601530545 A0.9490972482856874,0.9490972482856874,0,0,1,-0.6229856177162205,-0.27975151446828167 Z" fill="black" />
<circle cx="-0.392054497629753" cy="-0.09796325132365892" r="0.006275223542087847" fill="black" />
<circle cx="-0.6128730666710657" cy="-0.20761521666650787" r="0.004359618944682919" fill="black" />
<path d="M-0.6133305534686742,-0.20662613099690308 A4.338894836241627,4.338894836241627,0,0,1,-0.3927933909695285,-0.09657967720756622 A1.067083130324692,1.067083130324692,0,0,0,-0.391317368379554,-0.09934841914062109 A4.202150314960765,4.202150314960765,0,0,0,-0.612417851767006,-0.20860565622372595 A0.45166190738638323,0.45166190738638323,0,0,1,-0.6133305534686664,-0.2066261309968995 Z" fill="black" />
<circle cx="-0.5467430564323899" cy="0.12077818469659274" r="0.005148634952582732" fill="black" />
<path d="M-0.5457939192154542,0.12164876575939165 A1.0628052082531418,1.0628052082531418,0,0,0,-0.39066915301668226,-0.09722461149949113 A4.271491616008392,4.271491616008392,0,0,0,-0.3934380777618922,-0.09870029787666468 A1.0713449002722089,1.0713449002722089,0,0,1,-0.5476925424235276,0.11991028369604717 A0.7489426814921075,0.7489426814921075,0,0,1,-0.5457939192154541,0.12164876575939132 Z" fill="black" />
<circle cx="-0.11507626915352091" cy="0.06330725870889223" r="0.007370622324543538" fill="black" />
<path d="M-0.11408996276643535,0.06175032681883508 A4.202961111655323,4.202961111655323,0,0,0,-0.3913174362750782,-0.09934845520565982 A1.0670700666408766,1.0670700666408766,0,0,1,-0.3927933232301376,-0.09657964096968363 A4.33975926613594,4.33975926613594,0,0,1,-0.116062519530991,0.06486328477282832 A7.760291042104891,7.760291042104891,0,0,0,-0.11408996276643535,0.061750326818835966 Z" fill="black" />
<circle cx="-0.3332809985261642" cy="-4.081515080617006e-17" r="0.006666928320160522" fill="black" />
<path d="M-0.3332820400715961,0.0016667294760281948 A266.66791666549483,266.66791666549483,0,0,0,-6.943847243839399e-14,0.0018749978027585712 L-3.265717143696338e-14,-0.0018749978027585712 A266.66791666549483,266.66791666549483,0,0,0,-0.33328204007154294,-0.0016667294760281948 A1.3335950443505682,1.3335950443505682,0,0,1,-0.33328204006731377,0.0016667294760335468 Z" fill="black" />
<circle cx="-0.3332809985261642" cy="-4.081515080617006e-17" r="0.006666928320160522" fill="black" />
<circle cx="-0.3657640065038874" cy="-0.29265721606393835" r="0.005854263340739471" fill="black" />
<path d="M-0.3671913580555759,-0.2923373135264743 A1.3403072934301539,1.3403072934301539,0,0,1,-0.3349466877561329,-1.3869287860383437e-07 A16006.268128748681,16006.268128748681,0,0,1,-0.3316132478152156,1.3903991202823818e-07 A1.3269682666125988,1.3269682666125988,0,0,0,-0.36433552824491167,-0.2929794295025967 A1.067034865977032,1.067034865977032,0,0,1,-0.367191358055576,-0.2923373135264742 Z" fill="black" />
<circle cx="-0.5999414926672879" cy="-7.34716428670677e-17" r="0.004800526540321098" fill="black" />
<path d="M-0.5999428426643277,0.001200128710138415 A266.66791666549483,266.66791666549483,0,0,0,-0.3332820400715961,0.0016667294760281948 A1.3335950443505682,1.3335950443505682,0,0,0,-0.33328204006731377,-0.0016667294760335542 A266.66791666549483,266.66791666549483,0,0,0,-0.5999428426643338,-0.001200128710138415 A0.5334438551086456,0.5334438551086456,0,0,1,-0.5999428426788491,0.0012001287101058786 Z" fill="black" />
<circle cx="-0.36576400650388663" cy="0.2926572160639384" r="0.005854263340739475" fill="black" />
<path d="M-0.3643355282449108,0.29297942950259626 A1.3269682666125986,1.3269682666125986,0,0,0,-0.33161322621229905,-1.3904174860395661e-07 A16006.268128194133,16006.268128194133,0,0,1,-0.3349467049358237,1.3869430404156446e-07 A1.3403072934301536,1.3403072934301536,0,0,1,-0.36719135805557523,0.2923373135264742 A1.0670348659770363,1.0670348659770363,0,0,1,-0.3643355282449108,0.2929794295025965 Z" fill="black" />
<circle cx="-0.3657640065038874" cy="-0.29265721606393835" r="0.005854263340739471" fill="black" />
<circle cx="-0.09796325132365744" cy="-0.39205449762975025" r="0.006275223542087865" fill="black" />
<path d="M-0.09870029786651091,-0.39343807776729633 A1.0713448982989922,1.0713448982989922,0,0,1,-0.36608559976164756,-0.2940839823715389 A1.3335645993477963,1.3335645993477963,0,0,1,-0.36544354004171153,-0.29122813889722865 A1.062805206311257,1.062805206311257,0,0,0,-0.09722461150967032,-0.39066915301124905 A4.2714917415754075,4.2714917415754075,0,0,1,-0.09870029786651191,-0.39343807776729856 Z" fill="black" />
<circle cx="-0.4357766204745146" cy="-0.5128195703455374" r="0.0041033611898882195" fill="black" />
<path d="M-0.4367237251742555,-0.5124264698593476 A1.3403073018894518,1.3403073018894518,0,0,1,-0.3671913580539743,-0.29233731351930486 A1.0670348616871979,1.0670348616871979,0,0,0,-0.3643355282465362,-0.29297942950977696 A1.326968274904357,1.326968274904357,0,0,0,-0.4348297352493604,-0.5132152503414644 A0.4268046739283859,0.4268046739283859,0,0,1,-0.4367237251742555,-0.5124264698593473 Z" fill="black" />
<circle cx="-0.5999209712221606" cy="-0.2666318199504028" r="0.0042675172565834665" fill="black" />
<path d="M-0.5999221171599305,-0.2655644094798306 A1.0626503389754474,1.0626503389754474,0,0,0,-0.3654432784761098,-0.29122819742688133 A1.3338694988621451,1.3338694988621451,0,0,0,-0.3660858604819228,-0.29408392342988776 A1.071187532415599,1.071187532415599,0,0,1,-0.5999222253292406,-0.2676981634386162 A0.4742419700252832,0.4742419700252832,0,0,1,-0.5999221171599305,-0.2655644094798306 Z" fill="black" />
<circle cx="-0.5999414926672879" cy="-7.34716428670677e-17" r="0.004800526540321098" fill="black" />
<circle cx="-0.64092818299229" cy="-0.20513681229993141" r="0.004103474643642181" fill="black" />
<path d="M-0.641874639998468,-0.2047436183114859 A0.5345168696813793,0.5345168696813793,0,0,1,-0.6011402743861676,-1.7959119566067668e-07 A3556.762339661796,3556.762339661796,0,0,1,-0.5987400090758025,1.804019120754674e-07 A0.5323826234853132,0.5323826234853132,0,0,0,-0.6399805491059516,-0.20553231218521628 A0.6278036196530331,0.6278036196530331,0,0,1,-0.6418746399984679,-0.2047436183114859 Z" fill="black" />
<circle cx="-0.7777364095938333" cy="-9.524524045894429e-17" r="0.002963445578940699" fill="black" />
<path d="M-0.7777374899134496,0.0007408589512465369 A266.66791666549483,266.66791666549483,0,0,0,-0.5999428426643277,0.001200128710138415 A0.5334438551086456,0.5334438551086456,0,0,0,-0.5999428426788491,-0.0012001287101058918 A266.66791666549483,266.66791666549483,0,0,0,-0.7777374899134556,-0.0007408589512465369 A0.25402313194932247,0.25402313194932247,0,0,1,-0.7777374899544061,0.0007408589511270869 Z" fill="black" />
<circle cx="-0.64092818299229" cy="0.20513681229993128" r="0.004103474643642182" fill="black" />
<path d="M-0.6399805491059516,0.20553231218521628 A0.5323826234853132,0.5323826234853132,0,0,0,-0.5987400109185738,-1.804015767754559e-07 A3556.7623396644294,3556.7623396644294,0,0,1,-0.6011402737309245,1.7959109754883684e-07 A0.5345168696813793,0.5345168696813793,0,0,1,-0.641874639998468,0.2047436183114859 A0.6278036196530336,0.6278036196530336,0,0,1,-0.6399805491059516,0.20553231218521628 Z" fill="black" />
<circle cx="-0.36576400650388663" cy="0.2926572160639384" r="0.005854263340739475" fill="black" />
<circle cx="-0.59992097122216" cy="0.26663181995040425" r="0.004267517256583465" fill="black" />
<path d="M-0.5999222253292397,0.2676981634386175 A1.071187532415606,1.071187532415606,0,0,1,-0.3660858604819218,0.29408392342988776 A1.3338694988621402,1.3338694988621402,0,0,0,-0.365443278476109,0.29122819742688116 A1.0626503389754547,1.0626503389754547,0,0,0,-0.5999221171599299,0.2655644094798322 A0.47424197002528207,0.47424197002528207,0,0,1,-0.5999222253292398,0.2676981634386175 Z" fill="black" />
<circle cx="-0.4357766204745114" cy="0.5128195703455387" r="0.004103361189888231" fill="black" />
<path d="M-0.43482973524935753,0.5132152503414661 A1.3269682749043406,1.3269682749043406,0,0,0,-0.3643355282465355,0.2929794295097771 A1.0670348616872103,1.0670348616872103,0,0,0,-0.36719135805397307,0.29233731351930525 A1.3403073018894354,1.3403073018894354,0,0,1,-0.4367237251742522,0.5124264698593493 A0.42680467392838806,0.42680467392838806,0,0,1,-0.4348297352493576,0.5132152503414662 Z" fill="black" />
<circle cx="-0.09796325132365659" cy="0.39205449762975025" r="0.006275223542087867" fill="black" />
<path d="M-0.09722461150966932,0.39066915301124894 A1.0628052063112583,1.0628052063112583,0,0,0,-0.3654435400417106,0.29122813889722843 A1.3335645993478018,1.3335645993478018,0,0,1,-0.36608559976164656,0.2940839823715387 A1.0713448982989935,1.0713448982989935,0,0,1,-0.0987002978665098,0.393438077767296 A4.27149174157538,4.27149174157538,0,0,1,-0.09722461150967066,0.3906691530112516 Z" fill="black" />
<circle cx="-0.09796325132365744" cy="-0.39205449762975025" r="0.006275223542087865" fill="black" />
<circle cx="0.06330725870888926" cy="-0.11507626915351424" r="0.007370622324543553" fill="black" />
<path d="M0.06486328477282433,-0.11606251953098479 A4.339759266136244,4.339759266136244,0,0,1,-0.09657964096968419,-0.3927933232301375 A1.0670700666408806,1.0670700666408806,0,0,1,-0.09934845520565849,-0.391317436275076 A4.202961111655608,4.202961111655608,0,0,0,0.06175032681883241,-0.11408996276642869 A7.760291042105208,7.760291042105208,0,0,0,0.06486328477282477,-0.11606251953098479 Z" fill="black" />
<circle cx="0.12077818469659737" cy="-0.5467430564323845" r="0.005148634952582768" fill="black" />
<path d="M0.11991028369605183,-0.5476925424235227 A1.0713449002722173,1.0713449002722173,0,0,1,-0.09870029787666434,-0.39343807776188955 A4.271491616008629,4.271491616008629,0,0,0,-0.09722461149948991,-0.3906691530166766 A1.0628052082531503,1.0628052082531503,0,0,0,0.12164876575939587,-0.545793919215449 A0.7489426814921201,0.7489426814921201,0,0,1,0.11991028369605161,-0.5476925424235223 Z" fill="black" />
<circle cx="-0.20761521666650332" cy="-0.6128730666710649" r="0.00435961894468294" fill="black" />
<path d="M-0.20860565622371663,-0.6124178517669945 A4.2021503149610195,4.2021503149610195,0,0,0,-0.09934841914062265,-0.39131736837955566 A1.0670831303247004,1.0670831303247004,0,0,0,-0.09657967720756278,-0.3927933909695248 A4.338894836241898,4.338894836241898,0,0,1,-0.2066261309968942,-0.6133305534686657 A0.4516619073863852,0.4516619073863852,0,0,1,-0.20860565622372115,-0.6124178517670045 Z" fill="black" />
<circle cx="-0.4357766204745146" cy="-0.5128195703455374" r="0.0041033611898882195" fill="black" />
<circle cx="-0.2804995589289631" cy="-0.6236483392559495" r="0.003992870597879649" fill="black" />
<path d="M-0.281245160153054,-0.6243102972342498 A0.42750681643100746,0.42750681643100746,0,0,1,-0.4361707973636003,-0.5137653216694906 A1.333141268294458,1.333141268294458,0,0,1,-0.43538222467707755,-0.5118712394569966 A0.4261404881099834,0.4261404881099834,0,0,0,-0.27975151446828095,-0.6229856177162199 A0.9490972482857,0.9490972482857,0,0,1,-0.28124516015305406,-0.6243102972342498 Z" fill="black" />
<circle cx="-0.5011539359456825" cy="-0.6478515832293973" r="0.0024684979394498556" fill="black" />
<path d="M-0.5016937050046606,-0.6475527286676983 A1.3403073126523883,1.3403073126523883,0,0,1,-0.4367237251732534,-0.5124264698569255 A0.4268046735790937,0.4268046735790937,0,0,0,-0.4348297352503756,-0.513215250343886 A1.3269682854541303,1.3269682854541303,0,0,0,-0.5006148274085482,-0.6481522144656626 A0.2032399358137806,0.2032399358137806,0,0,1,-0.5016937050046606,-0.6475527286676983 Z" fill="black" />
<circle cx="-0.599901417256202" cy="-0.4799843054320054" r="0.003073000170847168" fill="black" />
<path d="M-0.5999022198321255,-0.4792153651010695 A0.42609686196561364,0.42609686196561364,0,0,0,-0.4353819203749255,-0.511871365931286 A1.334477087224994,1.334477087224994,0,0,0,-0.43617110001246795,-0.5137651953360347 A0.42746291009676085,0.42746291009676085,0,0,1,-0.5999023427299962,-0.48075186268199405 A0.34152298437864925,0.34152298437864925,0,0,1,-0.5999022198321255,-0.4792153651010695 Z" fill="black" />
<circle cx="-0.5999209712221606" cy="-0.2666318199504028" r="0.0042675172565834665" fill="black" />
<circle cx="-0.6308380084807543" cy="-0.43513098294465546" r="0.003095283260532401" fill="black" />
<path d="M-0.6315611100375522,-0.4348572228342076 A0.47504439114652947,0.47504439114652947,0,0,1,-0.6009866501006997,-0.2666325275856407 A1.0674146444297177,1.0674146444297177,0,0,0,-0.5988528918341862,-0.2666321782650243 A0.4733579039224568,0.4733579039224568,0,0,0,-0.6301143766442094,-0.4354069027211789 A0.327119187524302,0.327119187524302,0,0,1,-0.6315611100375521,-0.4348572228342076 Z" fill="black" />
<circle cx="-0.7571149292565721" cy="-0.2782674368142706" r="0.002620081631292238" fill="black" />
<path d="M-0.7572123939981078,-0.2776195063025244 A1.062650347373397,1.062650347373397,0,0,0,-0.5999221171636968,-0.2655644094798386 A0.47424196928179513,0.47424196928179513,0,0,0,-0.599922225325481,-0.26769816343862507 A1.0711875409490266,1.0711875409490266,0,0,1,-0.7570194426900683,-0.27891525531544015 A0.22114796820247426,0.22114796820247426,0,0,1,-0.7572123939981064,-0.2776195063025242 Z" fill="black" />
<circle cx="-0.6434649122479444" cy="-0.06805782256046362" r="0.004359907796205552" fill="black" />
<path d="M-0.6424740514927285,-0.06760068263387015 A0.4734208980861741,0.4734208980861741,0,0,0,-0.5988528921504618,-0.2666324989989761 A1.0666944678980428,1.0666944678980428,0,0,1,-0.6009866504243272,-0.26663220829157686 A0.47510783501321274,0.47510783501321274,0,0,1,-0.6444538529919037,-0.06851314358941443 A1.4006063792860886,1.4006063792860886,0,0,1,-0.6424740514927286,-0.0676006826338702 Z" fill="black" />
<circle cx="-0.64092818299229" cy="-0.20513681229993141" r="0.004103474643642181" fill="black" />
<circle cx="-0.4583259953725315" cy="-0.3216555094343534" r="0.005148562614122286" fill="black" />
<path d="M-0.4591945056190198,-0.3226036789974329 A0.6292752419903977,0.6292752419903977,0,0,1,-0.641323133404192,-0.20608269792853084 A0.5334525983550251,0.5334525983550251,0,0,1,-0.6405344093782934,-0.20418862073400812 A0.6263193016206762,0.6263193016206762,0,0,0,-0.45745613322323275,-0.3207049996201231 A2.8406094151709365,2.8406094151709365,0,0,0,-0.4591945056190192,-0.32260367899743225 Z" fill="black" />
<circle cx="-0.7222684176058101" cy="-0.33999943995109805" r="0.0027204653532160415" fill="black" />
<path d="M-0.722792823409534,-0.3395670446673195 A0.5345168731568566,0.5345168731568566,0,0,1,-0.6418746399954742,-0.2047436183042623 A0.627803614010459,0.627803614010459,0,0,0,-0.6399805491089811,-0.2055323121924577 A0.5323826269330915,0.5323826269330915,0,0,0,-0.7217445173558734,-0.3404338074566367 A0.251101897491959,0.251101897491959,0,0,1,-0.722792823409534,-0.3395670446673195 Z" fill="black" />
<circle cx="-0.7898377601155324" cy="-0.163708459211778" r="0.002620168898086382" fill="black" />
<path d="M-0.7897421015341103,-0.16306009507747443 A0.6261591241796265,0.6261591241796265,0,0,0,-0.6405342025239715,-0.20418870643149967 A0.5335514021797425,0.5335514021797425,0,0,0,-0.6413233392534688,-0.20608261171840433 A0.6291135492483236,0.6291135492483236,0,0,1,-0.7899351573645376,-0.16435587310823918 A0.2307227885181784,0.2307227885181784,0,0,1,-0.7897421015341105,-0.1630600950774744 Z" fill="black" />
<circle cx="-0.7777364095938333" cy="-9.524524045894429e-17" r="0.002963445578940699" fill="black" />
<circle cx="-0.8097019040131449" cy="-0.12341129428956624" r="0.0024686435930944637" fill="black" />
<path d="M-0.8102410284963849,-0.12311245078294947 A0.2542671349275578,0.2542671349275578,0,0,1,-0.7784761913167302,-1.436250459024686e-07 A1306.5145801969948,1306.5145801969948,0,0,1,-0.7769944672374418,1.444650479243137e-07 A0.253783171796242,0.253783171796242,0,0,0,-0.8091620319950324,-0.12371187974729199 A0.32843045948523764,0.32843045948523764,0,0,1,-0.810241028496385,-0.12311245078294947 Z" fill="black" />
<circle cx="-0.8823294781706582" cy="-1.0805419712350497e-16" r="0.0016612101896332045" fill="black" />
<path d="M-0.8823301651567698,0.0004153009243168526 A266.66791666549483,266.66791666549483,0,0,0,-0.7777374899134496,0.0007408589512465369 A0.25402313194932247,0.25402313194932247,0,0,0,-0.7777374899544061,-0.0007408589511271045 A266.66791666549483,266.66791666549483,0,0,0,-0.8823301651567758,-0.0004153009243168526 A0.12551699644577263,0.12551699644577263,0,0,1,-0.8823301652303174,0.0004153009240735028 Z" fill="black" />
<circle cx="-0.8097019040131449" cy="0.12341129428956615" r="0.0024686435930944637" fill="black" />
<path d="M-0.8091620319950324,0.12371187974729189 A0.253783171796242,0.253783171796242,0,0,0,-0.7769944671407647,-1.444650668895169e-07 A1306.5145801925187,1306.5145801925187,0,0,1,-0.7784761924947353,1.436251295672264e-07 A0.2542671349275578,0.2542671349275578,0,0,1,-0.8102410284963849,0.12311245078294937 A0.3284304594852381,0.3284304594852381,0,0,1,-0.8091620319950324,0.12371187974729186 Z" fill="black" />
<circle cx="-0.64092818299229" cy="0.20513681229993128" r="0.004103474643642182" fill="black" />
<circle cx="-0.7898377601155326" cy="0.16370845921177812" r="0.0026201688980863795" fill="black" />
<path d="M-0.7899351573645377,0.1643558731082394 A0.6291135492483264,0.6291135492483264,0,0,1,-0.6413233392534691,0.20608261171840414 A0.5335514021797402,0.5335514021797402,0,0,0,-0.640534202523972,0.2041887064314998 A0.6261591241796292,0.6261591241796292,0,0,0,-0.7897421015341104,0.163060095077475 A0.2307227885181779,0.2307227885181779,0,0,1,-0.7899351573645377,0.1643558731082394 Z" fill="black" />
<circle cx="-0.7222684176058088" cy="0.3399994399510989" r="0.0027204653532160515" fill="black" />
<path d="M-0.7217445173558724,0.34043380745663765 A0.5323826269330864,0.5323826269330864,0,0,0,-0.6399805491089812,0.20553231219245752 A0.6278036140104679,0.6278036140104679,0,0,0,-0.6418746399954742,0.20474361830426213 A0.5345168731568515,0.5345168731568515,0,0,1,-0.7227928234095327,0.33956704466732024 A0.25110189749196077,0.25110189749196077,0,0,1,-0.7217445173558723,0.34043380745663754 Z" fill="black" />
<circle cx="-0.4583259953725316" cy="0.3216555094343532" r="0.005148562614122286" fill="black" />
<path d="M-0.45745613322323303,0.3207049996201229 A0.6263193016206771,0.6263193016206771,0,0,0,-0.6405344093782932,0.2041886207340078 A0.5334525983550247,0.5334525983550247,0,0,1,-0.6413231334041919,0.2060826979285305 A0.6292752419903991,0.6292752419903991,0,0,1,-0.45919450561902003,0.32260367899743286 A2.8406094151709254,2.8406094151709254,0,0,0,-0.45745613322323253,0.32070499962012256 Z" fill="black" />
<circle cx="-0.59992097122216" cy="0.26663181995040425" r="0.004267517256583465" fill="black" />
<circle cx="-0.6434649122479473" cy="0.06805782256046651" r="0.0043599077962055205" fill="black" />
<path d="M-0.6444538529919066,0.06851314358941729 A0.4751078350132087,0.4751078350132087,0,0,1,-0.6009866504243263,0.2666322082915784 A1.0666944678980774,1.0666944678980774,0,0,1,-0.5988528921504617,0.2666324989989777 A0.4734208980861701,0.4734208980861701,0,0,0,-0.6424740514927316,0.06760068263387281 A1.400606379286008,1.400606379286008,0,0,1,-0.644453852991906,0.06851314358941707 Z" fill="black" />
<circle cx="-0.7571149292565714" cy="0.278267436814273" r="0.0026200816312922353" fill="black" />
<path d="M-0.757019442690068,0.27891525531544237 A1.0711875409490361,1.0711875409490361,0,0,1,-0.5999222253254806,0.26769816343862596 A0.47424196928179346,0.47424196928179346,0,0,0,-0.5999221171636964,0.2655644094798404 A1.062650347373407,1.062650347373407,0,0,0,-0.7572123939981059,0.2776195063025271 A0.2211479682024732,0.2211479682024732,0,0,1,-0.7570194426900676,0.2789152553154425 Z" fill="black" />
<circle cx="-0.6308380084807531" cy="0.4351309829446571" r="0.0030952832605324037" fill="black" />
<path d="M-0.6301143766442083,0.4354069027211807 A0.4733579039224554,0.4733579039224554,0,0,0,-0.5988528918341853,0.26663217826502583 A1.067414644429721,1.067414644429721,0,0,0,-0.6009866501006994,0.2666325275856425 A0.47504439114652824,0.47504439114652824,0,0,1,-0.6315611100375509,0.434857222834209 A0.3271191875243027,0.3271191875243027,0,0,1,-0.6301143766442083,0.4354069027211806 Z" fill="black" />
<circle cx="-0.4357766204745114" cy="0.5128195703455387" r="0.004103361189888231" fill="black" />
<circle cx="-0.5999014172561997" cy="0.4799843054320073" r="0.0030730001708471734" fill="black" />
<path d="M-0.5999023427299938,0.48075186268199605 A0.4274629100967633,0.4274629100967633,0,0,1,-0.4361711000124649,0.5137651953360363 A1.3344770872250027,1.3344770872250027,0,0,0,-0.43538192037492185,0.5118713659312868 A0.42609686196561597,0.42609686196561597,0,0,0,-0.5999022198321232,0.47921536510107127 A0.3415229843786506,0.3415229843786506,0,0,1,-0.5999023427299938,0.48075186268199605 Z" fill="black" />
<circle cx="-0.5011539359456787" cy="0.6478515832293994" r="0.002468497939449864" fill="black" />
<path d="M-0.5006148274085445,0.648152214465665 A1.326968285454134,1.326968285454134,0,0,0,-0.4348297352503727,0.5132152503438874 A0.4268046735790955,0.4268046735790955,0,0,0,-0.4367237251732502,0.5124264698569265 A1.3403073126523923,1.3403073126523923,0,0,1,-0.5016937050046566,0.6475527286677 A0.20323993581378158,0.20323993581378158,0,0,1,-0.5006148274085449,0.6481522144656655 Z" fill="black" />
<circle cx="-0.28049955892895945" cy="0.6236483392559509" r="0.003992870597879652" fill="black" />
<path d="M-0.2797515144682773,0.622985617716221 A0.4261404881099854,0.4261404881099854,0,0,0,-0.4353822246770739,0.511871239456998 A1.3331412682944763,1.3331412682944763,0,0,1,-0.43617079736359665,0.5137653216694917 A0.4275068164310092,0.4275068164310092,0,0,1,-0.2812451601530502,0.6243102972342507 A0.9490972482856959,0.9490972482856959,0,0,1,-0.27975151446827734,0.622985617716221 Z" fill="black" />
<circle cx="-0.09796325132365659" cy="0.39205449762975025" r="0.006275223542087867" fill="black" />
<circle cx="-0.2076152166665046" cy="0.6128730666710643" r="0.00435961894468294" fill="black" />
<path d="M-0.2066261309968942,0.6133305534686639 A4.338894836241673,4.338894836241673,0,0,1,-0.09657967720756133,0.39279339096952315 A1.0670831303247028,1.0670831303247028,0,0,0,-0.0993484191406202,0.3913173683795508 A4.202150314960804,4.202150314960804,0,0,0,-0.20860565622372285,0.6124178517670031 A0.451661907386386,0.451661907386386,0,0,1,-0.20662613099689517,0.613330553468666 Z" fill="black" />
<circle cx="0.12077818469659825" cy="0.5467430564323845" r="0.005148634952582766" fill="black" />
<path d="M0.12164876575939709,0.5457939192154484 A1.0628052082531516,1.0628052082531516,0,0,0,-0.0972246114994888,0.39066915301667926 A4.271491616008596,4.271491616008596,0,0,0,-0.09870029787666201,0.3934380777618878 A1.0713449002722182,1.0713449002722182,0,0,1,0.11991028369605272,0.5476925424235224 A0.7489426814921192,0.7489426814921192,0,0,1,0.12164876575939743,0.5457939192154485 Z" fill="black" />
<circle cx="0.06330725870889141" cy="0.11507626915351517" r="0.0073706223245435494" fill="black" />
<path d="M0.0617503268188333,0.11408996276642958 A4.202961111655491,4.202961111655491,0,0,0,-0.0993484552056576,0.39131743627507465 A1.0670700666408823,1.0670700666408823,0,0,1,-0.09657964096968319,0.39279332323013505 A4.33975926613612,4.33975926613612,0,0,1,0.06486328477282521,0.11606251953098612 A7.76029104210503,7.76029104210503,0,0,0,0.061750326818830636,0.11408996276642824 Z" fill="black" />
<circle cx="-6.122272620925524e-17" cy="0.3332809985261642" r="0.006666928320160522" fill="black" />
<path d="M0.0016667294760281948,0.3332820400716292 A266.66791666549483,266.66791666549483,0,0,0,0.0018749978027585712,-2.960599274501519e-14 L-0.0018749978027585712,-6.226358051512493e-14 A266.66791666549483,266.66791666549483,0,0,0,-0.0016667294760281948,0.3332820400714541 A1.3335950443505682,1.3335950443505682,0,0,1,0.0016667294760334985,0.33328204006731377 Z" fill="black" />
<circle cx="-6.122272620925524e-17" cy="0.3332809985261642" r="0.006666928320160522" fill="black" />
<circle cx="-0.2926572160639384" cy="0.3657640065038872" r="0.005854263340739472" fill="black" />
<path d="M-0.2923373135264742,0.3671913580555757 A1.3403072934301539,1.3403072934301539,0,0,1,-1.3869282433803842e-07,0.3349466877561329 A16006.268128535397,16006.268128535397,0,0,1,1.3904173101764172e-07,0.33161322639366375 A1.3269682666125988,1.3269682666125988,0,0,0,-0.29297942950259676,0.3643355282449112 A1.0670348659770323,1.0670348659770323,0,0,1,-0.2923373135264742,0.3671913580555757 Z" fill="black" />
<circle cx="-1.1020746430060199e-16" cy="0.5999414926672879" r="0.004800526540321098" fill="black" />
<path d="M0.001200128710138415,0.5999428426643736 A266.66791666549483,266.66791666549483,0,0,0,0.0016667294760281948,0.3332820400716292 A1.3335950443505682,1.3335950443505682,0,0,0,-0.0016667294760336513,0.33328204006731377 A266.66791666549483,266.66791666549483,0,0,0,-0.001200128710138415,0.5999428426643636 A0.5334438551086456,0.5334438551086456,0,0,1,0.0012001287101059775,0.5999428426788491 Z" fill="black" />
<circle cx="0.29265721606393835" cy="0.3657640065038867" r="0.005854263340739475" fill="black" />
<path d="M0.2929794295025962,0.36433552824491056 A1.3269682666125988,1.3269682666125988,0,0,0,-1.3904177940393127e-07,0.33161322621229883 A16006.268128194137,16006.268128194137,0,0,1,1.3869248505216092e-07,0.33494668370905867 A1.3403072934301539,1.3403072934301539,0,0,1,0.29233731352647424,0.36719135805557523 A1.0670348659770372,1.0670348659770372,0,0,1,0.29297942950259603,0.36433552824491056 Z" fill="black" />
<circle cx="-0.2926572160639384" cy="0.3657640065038872" r="0.005854263340739472" fill="black" />
<circle cx="-0.39205449762975053" cy="0.09796325132365741" r="0.006275223542087863" fill="black" />
<path d="M-0.3934380777672968,0.09870029786651002 A1.071344898298992,1.071344898298992,0,0,1,-0.2940839823715389,0.36608559976164723 A1.3335645993477983,1.3335645993477983,0,0,1,-0.29122813889722854,0.3654435400417111 A1.0628052063112565,1.0628052063112565,0,0,0,-0.3906691530112494,0.09722461150966988 A4.271491741575385,4.271491741575385,0,0,1,-0.39343807776729456,0.0987002978665088 Z" fill="black" />
<circle cx="-0.5128195703455373" cy="0.43577662047451465" r="0.0041033611898882195" fill="black" />
<path d="M-0.5124264698593476,0.4367237251742553 A1.3403073018894562,1.3403073018894562,0,0,1,-0.2923373135193051,0.36719135805397385 A1.0670348616871967,1.0670348616871967,0,0,0,-0.29297942950977696,0.3643355282465359 A1.3269682749043616,1.3269682749043616,0,0,0,-0.5132152503414649,0.43482973524936064 A0.4268046739283849,0.4268046739283849,0,0,1,-0.5124264698593477,0.43672372517425534 Z" fill="black" />
<circle cx="-0.2666318199504041" cy="0.5999209712221606" r="0.004267517256583461" fill="black" />
<path d="M-0.26556440947983173,0.5999221171599306 A1.0626503389754522,1.0626503389754522,0,0,0,-0.29122819742688133,0.3654432784761095 A1.333869498862137,1.333869498862137,0,0,0,-0.2940839234298876,0.3660858604819226 A1.0711875324156037,1.0711875324156037,0,0,1,-0.26769816343861774,0.5999222253292401 A0.4742419700252815,0.4742419700252815,0,0,1,-0.2655644094798319,0.5999221171599303 Z" fill="black" />
<circle cx="-1.1020746430060199e-16" cy="0.5999414926672879" r="0.004800526540321098" fill="black" />
<circle cx="-0.20513681229993108" cy="0.6409281829922908" r="0.004103474643642175" fill="black" />
<path d="M-0.2047436183114854,0.6418746399984687 A0.5345168696813791,0.5345168696813791,0,0,1,-1.7959119855040073e-07,0.6011402743861676 A3556.7623397829093,3556.7623397829093,0,0,1,1.804019120754674e-07,0.5987400090581692 A0.532382623485313,0.532382623485313,0,0,0,-0.205532312185216,0.6399805491059523 A0.6278036196530299,0.6278036196530299,0,0,1,-0.20474361831148558,0.6418746399984687 Z" fill="black" />
<circle cx="-1.42867860688416e-16" cy="0.7777364095938333" r="0.002963445578940699" fill="black" />
<path d="M0.0007408589512465369,0.7777374899134814 A266.66791666549483,266.66791666549483,0,0,0,0.001200128710138415,0.5999428426643736 A0.5334438551086456,0.5334438551086456,0,0,0,-0.001200128710105855,0.5999428426788491 A266.66791666549483,266.66791666549483,0,0,0,-0.0007408589512465369,0.7777374899134853 A0.25402313194932247,0.25402313194932247,0,0,1,0.0007408589511271813,0.7777374899544061 Z" fill="black" />
<circle cx="0.20513681229993122" cy="0.6409281829922902" r="0.004103474643642181" fill="black" />
<path d="M0.20553231218521606,0.6399805491059519 A0.5323826234853128,0.5323826234853128,0,0,0,-1.804015764865838e-07,0.5987400109185739 A3556.762339674961,3556.762339674961,0,0,1,1.7959109754883684e-07,0.6011402737279373 A0.534516869681379,0.534516869681379,0,0,1,0.20474361831148574,0.6418746399984685 A0.6278036196530334,0.6278036196530334,0,0,1,0.20553231218521606,0.6399805491059519 Z" fill="black" />
<circle cx="0.29265721606393835" cy="0.3657640065038867" r="0.005854263340739475" fill="black" />
<circle cx="0.26663181995040636" cy="0.5999209712221603" r="0.004267517256583455" fill="black" />
<path d="M0.26769816343861974,0.5999222253292399 A1.0711875324156142,1.0711875324156142,0,0,1,0.29408392342988776,0.3660858604819223 A1.3338694988621191,1.3338694988621191,0,0,0,0.291228197426881,0.36544327847610947 A1.0626503389754625,1.0626503389754625,0,0,0,0.26556440947983373,0.5999221171599308 A0.47424197002527974,0.47424197002527974,0,0,1,0.26769816343861974,0.5999222253292396 Z" fill="black" />
<circle cx="0.5128195703455386" cy="0.4357766204745116" r="0.004103361189888229" fill="black" />
<path d="M0.5132152503414665,0.4348297352493584 A1.3269682749043419,1.3269682749043419,0,0,0,0.2929794295097772,0.3643355282465359 A1.06703486168721,1.06703486168721,0,0,0,0.2923373135193048,0.36719135805397396 A1.3403073018894354,1.3403073018894354,0,0,1,0.512426469859349,0.43672372517425284 A0.426804673928388,0.426804673928388,0,0,1,0.513215250341466,0.4348297352493579 Z" fill="black" />
<circle cx="0.39205449762975025" cy="0.0979632513236567" r="0.006275223542087867" fill="black" />
<path d="M0.3906691530112495,0.09722461150966877 A1.0628052063112585,1.0628052063112585,0,0,0,0.29122813889722865,0.3654435400417112 A1.3335645993477991,1.3335645993477991,0,0,1,0.29408398237153877,0.36608559976164723 A1.0713448982989937,1.0713448982989937,0,0,1,0.39343807776729633,0.09870029786651002 A4.271491741575383,4.271491741575383,0,0,1,0.39066915301125027,0.09722461150967021 Z" fill="black" />
<circle cx="-0.39205449762975053" cy="0.09796325132365741" r="0.006275223542087863" fill="black" />
<circle cx="-0.11507626915351443" cy="-0.0633072587088892" r="0.007370622324543553" fill="black" />
<path d="M-0.1160625195309839,-0.06486328477282655 A4.339759266136243,4.339759266136243,0,0,1,-0.3927933232301375,0.09657964096968241 A1.067070066640883,1.067070066640883,0,0,1,-0.39131743627507554,0.09934845520565805 A4.202961111655605,4.202961111655605,0,0,0,-0.11408996276642736,-0.061750326818833745 A7.760291042105162,7.760291042105162,0,0,0,-0.11606251953098567,-0.06486328477282832 Z" fill="black" />
<circle cx="-0.5467430564323841" cy="-0.12077818469659786" r="0.0051486349525827705" fill="black" />
<path d="M-0.5476925424235219,-0.11991028369605228 A1.0713449002722153,1.0713449002722153,0,0,1,-0.3934380777618902,0.09870029787666401 A4.271491616008687,4.271491616008687,0,0,0,-0.39066915301667837,0.09722461149949035 A1.062805208253148,1.062805208253148,0,0,0,-0.5457939192154483,-0.12164876575939665 A0.7489426814921217,0.7489426814921217,0,0,1,-0.5476925424235218,-0.11991028369605228 Z" fill="black" />
<circle cx="-0.6128730666710652" cy="0.20761521666650334" r="0.004359618944682936" fill="black" />
<path d="M-0.6124178517669954,0.20860565622371796 A4.202150314961019,4.202150314961019,0,0,0,-0.39131736837955167,0.09934841914062131 A1.0670831303246944,1.0670831303246944,0,0,0,-0.3927933909695257,0.09657967720756455 A4.338894836241899,4.338894836241899,0,0,1,-0.6133305534686633,0.2066261309968933 A0.4516619073863847,0.4516619073863847,0,0,1,-0.6124178517670043,0.20860565622372204 Z" fill="black" />
<circle cx="-0.5128195703455373" cy="0.43577662047451465" r="0.0041033611898882195" fill="black" />
<circle cx="-0.6236483392559498" cy="0.28049955892896317" r="0.003992870597879648" fill="black" />
<path d="M-0.62431029723425,0.2812451601530543 A0.42750681643100785,0.42750681643100785,0,0,1,-0.5137653216694906,0.43617079736360054 A1.3331412682944594,1.3331412682944594,0,0,1,-0.511871239456996,0.4353822246770771 A0.42614048810998373,0.42614048810998373,0,0,0,-0.6229856177162197,0.279751514468281 A0.949097248285697,0.949097248285697,0,0,1,-0.62431029723425,0.2812451601530543 Z" fill="black" />
<circle cx="-0.6478515832293972" cy="0.5011539359456826" r="0.0024684979394498556" fill="black" />
<path d="M-0.6475527286676982,0.5016937050046608 A1.3403073126523897,1.3403073126523897,0,0,1,-0.5124264698569253,0.43672372517325364 A0.4268046735790941,0.4268046735790941,0,0,0,-0.5132152503438856,0.43482973525037616 A1.3269682854541318,1.3269682854541318,0,0,0,-0.6481522144656628,0.5006148274085489 A0.20323993581378125,0.20323993581378125,0,0,1,-0.6475527286676981,0.5016937050046607 Z" fill="black" />
<circle cx="-0.47998430543200593" cy="0.599901417256202" r="0.0030730001708471626" fill="black" />
<path d="M-0.47921536510106977,0.5999022198321254 A0.4260968619656149,0.4260968619656149,0,0,0,-0.5118713659312857,0.4353819203749254 A1.3344770872249754,1.3344770872249754,0,0,0,-0.5137651953360353,0.43617110001246817 A0.4274629100967621,0.4274629100967621,0,0,1,-0.48075186268199444,0.5999023427299962 A0.3415229843786485,0.3415229843786485,0,0,1,-0.47921536510106977,0.5999022198321255 Z" fill="black" />
<circle cx="-0.2666318199504041" cy="0.5999209712221606" r="0.004267517256583461" fill="black" />
<circle cx="-0.43513098294465596" cy="0.630838008480755" r="0.003095283260532393" fill="black" />
<path d="M-0.4348572228342083,0.6315611100375529 A0.47504439114653013,0.47504439114653013,0,0,1,-0.26663252758564204,0.6009866501006997 A1.0674146444296988,1.0674146444296988,0,0,0,-0.2666321782650256,0.5988528918341858 A0.4733579039224573,0.4733579039224573,0,0,0,-0.4354069027211799,0.6301143766442101 A0.3271191875242997,0.3271191875242997,0,0,1,-0.4348572228342081,0.6315611100375529 Z" fill="black" />
<circle cx="-0.2782674368142729" cy="0.7571149292565718" r="0.0026200816312922327" fill="black" />
<path d="M-0.27761950630252685,0.7572123939981052 A1.06265034737341,1.06265034737341,0,0,0,-0.26556440947984017,0.599922117163697 A0.4742419692817926,0.4742419692817926,0,0,0,-0.26769816343862624,0.599922225325481 A1.0711875409490386,1.0711875409490386,0,0,1,-0.2789152553154426,0.7570194426900672 A0.22114796820247315,0.22114796820247315,0,0,1,-0.277619506302527,0.7572123939981061 Z" fill="black" />
<circle cx="-0.06805782256046485" cy="0.643464912247944" r="0.004359907796205555" fill="black" />
<path d="M-0.06760068263387117,0.6424740514927285 A0.47342089808617427,0.47342089808617427,0,0,0,-0.26663249899897745,0.5988528921504621 A1.0666944678980301,1.0666944678980301,0,0,1,-0.2666322082915782,0.6009866504243272 A0.47510783501321285,0.47510783501321285,0,0,1,-0.06851314358941543,0.6444538529919035 A1.400606379286105,1.400606379286105,0,0,1,-0.06760068263387109,0.6424740514927285 Z" fill="black" />
<circle cx="-0.20513681229993108" cy="0.6409281829922908" r="0.004103474643642175" fill="black" />
<circle cx="-0.32165550943435267" cy="0.45832599537253216" r="0.005148562614122285" fill="black" />
<path d="M-0.32260367899743203,0.4591945056190204 A0.6292752419903989,0.6292752419903989,0,0,1,-0.2060826979285303,0.6413231334041927 A0.5334525983550222,0.5334525983550222,0,0,1,-0.20418862073400731,0.6405344093782941 A0.6263193016206767,0.6263193016206767,0,0,0,-0.32070499962012233,0.4574561332232331 A2.840609415170881,2.840609415170881,0,0,0,-0.3226036789974307,0.4591945056190192 Z" fill="black" />
<circle cx="-0.3399994399510972" cy="0.7222684176058108" r="0.002720465353216038" fill="black" />
<path d="M-0.33956704466731846,0.7227928234095345 A0.5345168731568558,0.5345168731568558,0,0,1,-0.20474361830426213,0.6418746399954749 A0.6278036140104557,0.6278036140104557,0,0,0,-0.2055323121924575,0.6399805491089818 A0.5323826269330907,0.5323826269330907,0,0,0,-0.340433807456636,0.7217445173558743 A0.2511018974919588,0.2511018974919588,0,0,1,-0.3395670446673185,0.7227928234095345 Z" fill="black" />
<circle cx="-0.16370845921177696" cy="0.7898377601155326" r="0.002620168898086382" fill="black" />
<path d="M-0.16306009507747354,0.7897421015341107 A0.6261591241796219,0.6261591241796219,0,0,0,-0.20418870643149956,0.6405342025239726 A0.5335514021797428,0.5335514021797428,0,0,0,-0.2060826117184041,0.6413233392534698 A0.6291135492483189,0.6291135492483189,0,0,1,-0.1643558731082383,0.7899351573645378 A0.2307227885181788,0.2307227885181788,0,0,1,-0.1630600950774736,0.7897421015341107 Z" fill="black" />
<circle cx="-1.42867860688416e-16" cy="0.7777364095938333" r="0.002963445578940699" fill="black" />
<circle cx="-0.1234112942895664" cy="0.8097019040131448" r="0.002468643593094466" fill="black" />
<path d="M-0.12311245078294958,0.8102410284963849 A0.2542671349275574,0.2542671349275574,0,0,1,-1.4362490117318796e-07,0.7784761913167302 A1306.5145801925187,1306.5145801925187,0,0,1,1.444650479243137e-07,0.7769944672373641 A0.25378317179624166,0.25378317179624166,0,0,0,-0.12371187974729207,0.8091620319950323 A0.3284304594852375,0.3284304594852375,0,0,1,-0.12311245078294958,0.8102410284963848 Z" fill="black" />
<circle cx="-1.6208129568525692e-16" cy="0.8823294781706582" r="0.0016612101896332045" fill="black" />
<path d="M0.0004153009243168526,0.8823301651567762 A266.66791666549483,266.66791666549483,0,0,0,0.0007408589512465369,0.7777374899134814 A0.25402313194932247,0.25402313194932247,0,0,0,-0.0007408589511272472,0.7777374899544061 A266.66791666549483,266.66791666549483,0,0,0,-0.0004153009243168526,0.8823301651568055 A0.12551699644577263,0.12551699644577263,0,0,1,0.0004153009240735592,0.8823301652303174 Z" fill="black" />
<circle cx="0.12341129428956611" cy="0.8097019040131449" r="0.0024686435930944637" fill="black" />
<path d="M0.1237118797472919,0.8091620319950321 A0.25378317179624177,0.25378317179624177,0,0,0,-1.4446483965817688e-07,0.7769944671407645 A1306.5145801880424,1306.5145801880424,0,0,1,1.436251295672264e-07,0.7784761917499906 A0.25426713492755765,0.25426713492755765,0,0,1,0.12311245078294933,0.8102410284963849 A0.328430459485239,0.328430459485239,0,0,1,0.12371187974729198,0.8091620319950321 Z" fill="black" />
<circle cx="0.20513681229993122" cy="0.6409281829922902" r="0.004103474643642181" fill="black" />
<circle cx="0.16370845921177737" cy="0.7898377601155325" r="0.002620168898086382" fill="black" />
<path d="M0.16435587310823863,0.7899351573645371 A0.6291135492483222,0.6291135492483222,0,0,1,0.2060826117184038,0.6413233392534694 A0.5335514021797423,0.5335514021797423,0,0,0,0.20418870643149978,0.6405342025239722 A0.6261591241796254,0.6261591241796254,0,0,0,0.16306009507747432,0.7897421015341104 A0.23072278851817846,0.23072278851817846,0,0,1,0.16435587310823857,0.7899351573645375 Z" fill="black" />
<circle cx="0.33999943995109877" cy="0.7222684176058088" r="0.0027204653532160515" fill="black" />
<path d="M0.3404338074566373,0.7217445173558723 A0.5323826269330855,0.5323826269330855,0,0,0,0.20553231219245754,0.6399805491089813 A0.6278036140104685,0.6278036140104685,0,0,0,0.20474361830426202,0.6418746399954744 A0.5345168731568506,0.5345168731568506,0,0,1,0.3395670446673201,0.7227928234095327 A0.25110189749196116,0.25110189749196116,0,0,1,0.3404338074566374,0.7217445173558724 Z" fill="black" />
<circle cx="0.32165550943435317" cy="0.4583259953725317" r="0.005148562614122285" fill="black" />
<path d="M0.32070499962012317,0.45745613322323264 A0.6263193016206761,0.6263193016206761,0,0,0,0.20418862073400768,0.6405344093782934 A0.5334525983550247,0.5334525983550247,0,0,1,0.20608269792853046,0.641323133404192 A0.6292752419903975,0.6292752419903975,0,0,1,0.32260367899743303,0.45919450561902 A2.840609415170939,2.840609415170939,0,0,0,0.32070499962012344,0.457456133223233 Z" fill="black" />
<circle cx="0.26663181995040636" cy="0.5999209712221603" r="0.004267517256583455" fill="black" />
<circle cx="0.06805782256046855" cy="0.643464912247947" r="0.004359907796205521" fill="black" />
<path d="M0.06851314358941901,0.6444538529919064 A0.4751078350132086,0.4751078350132086,0,0,1,0.2666322082915806,0.6009866504243266 A1.0666944678980608,1.0666944678980608,0,0,1,0.2666324989989799,0.5988528921504609 A0.4734208980861702,0.4734208980861702,0,0,0,0.06760068263387489,0.6424740514927316 A1.4006063792860297,1.4006063792860297,0,0,1,0.06851314358941907,0.6444538529919066 Z" fill="black" />
<circle cx="0.27826743681427607" cy="0.757114929256571" r="0.002620081631292227" fill="black" />
<path d="M0.2789152553154457,0.7570194426900679 A1.0711875409490432,1.0711875409490432,0,0,1,0.2676981634386284,0.5999222253254813 A0.4742419692817896,0.4742419692817896,0,0,0,0.2655644094798423,0.5999221171636973 A1.0626503473734132,1.0626503473734132,0,0,0,0.2776195063025302,0.7572123939981054 A0.2211479682024725,0.2211479682024725,0,0,1,0.27891525531544564,0.757019442690067 Z" fill="black" />
<circle cx="0.4351309829446584" cy="0.6308380084807536" r="0.0030952832605323903" fill="black" />
<path d="M0.43540690272118193,0.6301143766442087 A0.4733579039224551,0.4733579039224551,0,0,0,0.26663217826502766,0.5988528918341853 A1.0674146444297035,1.0674146444297035,0,0,0,0.26663252758564426,0.600986650100699 A0.4750443911465281,0.4750443911465281,0,0,1,0.4348572228342104,0.6315611100375513 A0.3271191875243002,0.3271191875243002,0,0,1,0.435406902721182,0.6301143766442087 Z" fill="black" />
<circle cx="0.5128195703455386" cy="0.4357766204745116" r="0.004103361189888229" fill="black" />
<circle cx="0.47998430543200776" cy="0.5999014172561998" r="0.00307300017084717" fill="black" />
<path d="M0.48075186268199616,0.5999023427299938 A0.4274629100967643,0.4274629100967643,0,0,1,0.5137651953360363,0.4361711000124645 A1.3344770872249807,1.3344770872249807,0,0,0,0.5118713659312875,0.4353819203749223 A0.4260968619656171,0.4260968619656171,0,0,0,0.4792153651010718,0.5999022198321237 A0.3415229843786487,0.3415229843786487,0,0,1,0.48075186268199627,0.5999023427299941 Z" fill="black" />
<circle cx="0.6478515832293992" cy="0.5011539359456789" r="0.002468497939449864" fill="black" />
<path d="M0.6481522144656657,0.5006148274085453 A1.3269682854541336,1.3269682854541336,0,0,0,0.5132152503438873,0.4348297352503727 A0.4268046735790959,0.4268046735790959,0,0,0,0.5124264698569265,0.4367237251732502 A1.3403073126523928,1.3403073126523928,0,0,1,0.6475527286677014,0.5016937050046577 A0.2032399358137817,0.2032399358137817,0,0,1,0.6481522144656652,0.500614827408545 Z" fill="black" />
<circle cx="0.6236483392559508" cy="0.28049955892895967" r="0.003992870597879651" fill="black" />
<path d="M0.622985617716221,0.27975151446827723 A0.42614048810998517,0.42614048810998517,0,0,0,0.5118712394569978,0.43538222467707416 A1.3331412682944717,1.3331412682944717,0,0,1,0.513765321669492,0.4361707973635973 A0.42750681643100896,0.42750681643100896,0,0,1,0.6243102972342507,0.2812451601530503 A0.9490972482856956,0.9490972482856956,0,0,1,0.622985617716221,0.27975151446827723 Z" fill="black" />
<circle cx="0.39205449762975025" cy="0.0979632513236567" r="0.006275223542087867" fill="black" />
<circle cx="0.6128730666710643" cy="0.20761521666650476" r="0.00435961894468294" fill="black" />
<path d="M0.6133305534686699,0.2066261309968982 A4.338894836241699,4.338894836241699,0,0,1,0.3927933909695245,0.09657967720756311 A1.0670831303247044,1.0670831303247044,0,0,0,0.39131736837955067,0.09934841914061954 A4.2021503149608295,4.2021503149608295,0,0,0,0.6124178517670011,0.20860565622372196 A0.45166190738638695,0.45166190738638695,0,0,1,0.6133305534686653,0.20662613099689578 Z" fill="black" />
<circle cx="0.5467430564323846" cy="-0.12077818469659798" r="0.005148634952582766" fill="black" />
<path d="M0.5457939192154491,-0.12164876575939687 A1.062805208253151,1.062805208253151,0,0,0,0.39066915301667904,0.09722461149949024 A4.2714916160086105,4.2714916160086105,0,0,0,0.3934380777618869,0.09870029787666246 A1.0713449002722177,1.0713449002722177,0,0,1,0.5476925424235219,-0.11991028369605217 A0.7489426814921188,0.7489426814921188,0,0,1,0.5457939192154491,-0.12164876575939698 Z" fill="black" />
<circle cx="0.11507626915351758" cy="-0.063307258708895" r="0.007370622324543541" fill="black" />
<path d="M0.11408996276643135,-0.061750326818836854 A4.202961111655301,4.202961111655301,0,0,0,0.3913174362750744,0.09934845520565849 A1.0670700666408894,1.0670700666408894,0,0,1,0.39279332323013405,0.09657964096968275 A4.339759266135921,4.339759266135921,0,0,1,0.11606251953098834,-0.06486328477282965 A7.760291042105349,7.760291042105349,0,0,0,0.11408996276643091,-0.06175032681883508 Z" fill="black" />
</svg>